<svg width="500" height="354" viewBox="0 0 500 354" fill="none" xmlns="http://www.w3.org/2000/svg">
<g clip-path="url(#clip0_105_291)">
<path opacity="0.1" d="M166.229 353.801C190.579 353.801 210.318 350.632 210.318 346.723C210.318 342.814 190.579 339.645 166.229 339.645C141.88 339.645 122.14 342.814 122.14 346.723C122.14 350.632 141.88 353.801 166.229 353.801Z" fill="#6C63FF"/>
<path opacity="0.1" d="M405.89 354C436.275 354 460.906 350.831 460.906 346.922C460.906 343.013 436.275 339.844 405.89 339.844C375.506 339.844 350.874 343.013 350.874 346.922C350.874 350.831 375.506 354 405.89 354Z" fill="#6C63FF"/>
<path opacity="0.1" d="M6.26219 152.953H52.1836V215.514H9.62406C9.51094 216.156 9.40235 216.803 9.2847 217.45H52.1836V267.904C52.1067 267.881 52.0388 267.854 51.9664 267.827C50.7538 267.347 49.5502 266.841 48.3466 266.298L47.5774 265.95C46.3708 265.38 45.1643 264.777 43.9577 264.141C43.5369 263.919 43.1161 263.689 42.6998 263.454C36.0013 259.703 29.9161 254.951 24.6552 249.361C24.5014 249.212 24.3566 249.054 24.2027 248.909C23.4697 248.113 22.7503 247.308 22.0535 246.485L21.2843 245.58C20.4608 244.572 19.6644 243.536 18.8907 242.487C18.7776 242.333 18.669 242.179 18.5513 242.035C15.4046 237.674 12.7918 232.952 10.7688 227.969C10.7055 227.82 10.6512 227.657 10.5923 227.517C9.97095 225.919 9.42044 224.306 8.94082 222.678C8.73269 221.995 8.5336 221.321 8.36166 220.611C8.29831 220.403 8.24402 220.2 8.19424 219.996C5.6242 209.97 5.32104 199.554 5.32104 189.211C5.32104 188.003 5.32104 186.791 5.32104 185.593C5.32104 181.41 5.37082 177.199 5.44321 172.993C5.44321 171.903 5.48846 170.818 5.51108 169.723C5.57443 166.946 5.66492 164.169 5.78257 161.393C5.80972 160.619 5.84591 159.85 5.88664 159.082C5.88664 158.638 5.90926 158.195 5.95451 157.752C6.0631 156.142 6.15359 154.545 6.26219 152.953Z" fill="#6C63FF"/>
<path opacity="0.1" d="M52.1836 83.2968H26.9945C31.0891 76.8909 35.563 70.7353 40.3922 64.8628C44.1342 60.2678 48.0842 55.7905 52.1836 51.476V83.2968Z" fill="#6C63FF"/>
<path opacity="0.1" d="M52.1836 85.2324V151.018H6.40698C6.40698 150.828 6.43865 150.633 6.45223 150.443C6.49295 149.923 6.53367 149.403 6.57892 148.888C6.62869 148.282 6.68299 147.671 6.74181 147.079C6.80063 146.486 6.86398 145.763 6.93185 145.107C6.99972 144.451 7.06307 143.786 7.13999 143.13C7.21691 142.475 7.28478 141.819 7.36622 141.168C7.44767 140.516 7.52007 139.856 7.60603 139.205C7.67391 138.662 7.7463 138.124 7.81869 137.581C7.92276 136.817 8.03136 136.048 8.149 135.288C8.149 135.175 8.18067 135.058 8.19877 134.949C9.02462 129.387 10.1499 123.874 11.5697 118.433C13.0559 112.725 14.9537 107.133 17.2482 101.699C19.6869 96.015 22.5422 90.5187 25.7909 85.2551L52.1836 85.2324Z" fill="#6C63FF"/>
<path opacity="0.1" d="M63.147 152.949V215.514H161.229V152.949H63.147ZM63.147 217.445V271.174C63.708 271.291 64.2646 271.404 64.8166 271.499C65.5677 271.644 66.3143 271.775 67.079 271.888C67.2237 271.911 67.3731 271.933 67.5314 271.947C67.8301 271.997 68.1377 272.037 68.4364 272.078C69.192 272.182 69.9431 272.268 70.6987 272.336C71.0562 272.372 71.4182 272.404 71.7801 272.431L72.6534 272.499C73.1285 272.535 73.5991 272.562 74.0651 272.576C74.3547 272.576 74.6443 272.603 74.9429 272.612C75.1692 272.612 75.3954 272.612 75.6307 272.612C75.866 272.612 76.2008 272.612 76.4859 272.612C76.875 272.612 77.2641 272.612 77.6487 272.612H78.1691C78.5582 272.612 78.9473 272.612 79.3319 272.576H79.3591C79.626 272.576 79.8975 272.576 80.169 272.539C80.2443 272.544 80.3199 272.544 80.3952 272.539C80.6215 272.539 80.8477 272.539 81.0649 272.508H81.2232L82.739 272.39C83.2367 272.345 83.739 272.286 84.2458 272.232L85.2774 272.11C89.4744 271.522 93.6248 270.639 97.6978 269.469C106.847 266.918 115.797 263.35 124.941 260.735C136.764 257.366 149.827 255.711 161.252 259.831V217.445H63.147ZM161.229 83.2968V0.00452749C150.491 -0.111759 139.782 1.14362 129.362 3.74018C104.526 9.9768 82.2413 23.5038 63.147 40.7801V83.2923H68.0699V85.2234H63.147V151.018H161.229V85.2279H88.2818V83.2968H161.229ZM287.211 55.1618C281.067 54.9448 274.958 53.0001 269.434 49.9971C258.868 44.2534 250.43 35.3846 241 27.8998C221.408 12.3105 197.11 2.9035 172.184 0.569849V83.2968H312.201L312.55 82.9305L287.211 55.1618ZM299.966 52.9006L313.491 67.7346V49.0111C308.962 49.5719 304.993 50.9061 299.985 52.8825L299.966 52.9006ZM313.491 284.515V217.445H284.673C284.596 217.16 284.519 216.871 284.429 216.582C284.515 216.871 284.587 217.16 284.668 217.445H172.202V265.95C173.27 266.741 174.324 267.574 175.369 268.419C176.496 269.324 177.609 270.278 178.726 271.214L179.853 272.146C180.392 272.598 180.935 273.05 181.482 273.476C182.568 274.356 183.664 275.224 184.772 276.081C185.319 276.533 185.88 276.94 186.437 277.365C195.272 284.117 204.593 290.21 214.322 295.595C216.503 296.801 218.704 297.979 220.924 299.128C222.404 299.883 223.892 300.634 225.385 301.362C227.63 302.456 229.892 303.511 232.173 304.528C253.197 313.961 275.429 320.434 298.233 323.762C303.298 324.51 308.382 325.098 313.486 325.526V284.511H313.939L313.491 284.515ZM172.202 85.2279V151.018H313.509V85.2279H172.202ZM172.202 152.949V215.514H313.509V152.949H172.202ZM324.477 48.9297V69.815L341.739 50.8835C336.019 49.9609 330.266 49.3021 324.477 48.9071V48.9297ZM324.477 152.972V215.514H461.915V152.949L324.477 152.972ZM461.413 289.481L461.897 217.445H324.477V326.245C333.329 326.617 342.196 326.511 351.037 325.928H351.191C355.414 325.663 359.617 325.277 363.801 324.771H363.896C386.217 322.174 408.043 316.353 428.69 307.49L461.413 289.481ZM488.417 163.251C487.901 162.035 487.362 160.827 486.815 159.633C485.792 157.372 484.711 155.174 483.598 152.976H472.874V215.514H499.986C499.973 197.804 495.489 179.714 488.43 163.229L488.417 163.251ZM472.874 217.468V279.427C480.512 272.11 486.964 263.738 491.611 254.169C497.199 242.645 499.756 230.167 499.964 217.459L472.874 217.468ZM472.874 134.741V151.022H482.593C479.653 145.418 476.413 139.975 472.888 134.718L472.874 134.741ZM379.665 61.204C378.95 60.9327 378.235 60.6568 377.516 60.3899C369.928 57.5892 362.175 55.2602 354.299 53.4161L327.884 82.3923L327.377 82.9305L327.717 83.3013H421.731C408.638 74.2926 394.522 66.8674 379.678 61.1814L379.665 61.204ZM424.487 85.2505H326.404L324.477 87.0143V151.018H341.372H341.399H461.933V120.016C451.03 106.835 438.445 95.1394 424.5 85.2279L424.487 85.2505Z" fill="#6C63FF"/>
<path opacity="0.1" d="M52.1836 118.415V151.018H6.40698C6.40698 150.828 6.43865 150.633 6.45223 150.443C6.49295 149.923 6.53367 149.403 6.57892 148.888C6.62869 148.282 6.68299 147.671 6.74181 147.079C6.80063 146.486 6.86398 145.763 6.93185 145.107C6.99972 144.451 7.06307 143.786 7.13999 143.13C7.21691 142.475 7.28478 141.819 7.36622 141.168C7.44767 140.516 7.52007 139.856 7.60603 139.205C7.67391 138.662 7.7463 138.124 7.81869 137.581C7.92276 136.817 8.03136 136.048 8.149 135.288C8.149 135.175 8.18067 135.058 8.19877 134.949C9.02462 129.387 10.1499 123.874 11.5697 118.433L52.1836 118.415Z" fill="#6C63FF"/>
<path opacity="0.1" d="M6.26219 152.953H52.1836V215.514H9.62406C9.51094 216.156 9.40235 216.803 9.2847 217.45H52.1836V267.904C52.1067 267.881 52.0388 267.854 51.9664 267.827C50.7538 267.347 49.5502 266.841 48.3466 266.298L47.5774 265.95C46.3708 265.38 45.1643 264.777 43.9577 264.141C43.5369 263.919 43.1161 263.689 42.6998 263.454C36.0013 259.703 29.9161 254.951 24.6552 249.361C24.5014 249.212 24.3566 249.054 24.2027 248.909C23.4697 248.113 22.7503 247.308 22.0535 246.485L21.2843 245.58C20.4608 244.572 19.6644 243.536 18.8907 242.487C18.7776 242.333 18.669 242.179 18.5513 242.035C15.4046 237.674 12.7918 232.952 10.7688 227.969C10.7055 227.82 10.6512 227.657 10.5923 227.517C9.97095 225.919 9.42044 224.306 8.94082 222.678C8.73269 221.995 8.5336 221.321 8.36166 220.611C8.29831 220.403 8.24402 220.2 8.19424 219.996C5.6242 209.97 5.32104 199.554 5.32104 189.211C5.32104 188.003 5.32104 186.791 5.32104 185.593C5.32104 181.41 5.37082 177.199 5.44321 172.993C5.44321 171.903 5.48846 170.818 5.51108 169.723C5.57443 166.946 5.66492 164.169 5.78257 161.393C5.80972 160.619 5.84591 159.85 5.88664 159.082C5.88664 158.638 5.90926 158.195 5.95451 157.752C6.0631 156.142 6.15359 154.545 6.26219 152.953Z" fill="#6C63FF"/>
<path opacity="0.1" d="M97.6751 94.6484V151.018H63.147V94.6484H68.0699V75.5632H88.2773V94.6484H97.6751Z" fill="#6C63FF"/>
<path opacity="0.1" d="M97.6752 152.949H63.1516V215.51H97.6752V152.949Z" fill="#6C63FF"/>
<path opacity="0.1" d="M63.147 217.45H97.6751V269.46C93.6022 270.629 89.4518 271.51 85.2548 272.096L84.2231 272.223C83.7164 272.282 83.2141 272.331 82.7164 272.381C82.2187 272.431 81.7029 272.467 81.2006 272.499H81.0423C80.8251 272.499 80.5898 272.526 80.3771 272.53H80.1464C79.8749 272.53 79.6034 272.557 79.3319 272.567C78.9473 272.589 78.5627 272.594 78.169 272.598C78.0016 272.598 77.8433 272.598 77.6759 272.598C77.2867 272.598 76.9021 272.598 76.513 272.598H75.6578C75.4271 272.598 75.2054 272.598 74.9655 272.598L74.0923 272.567C73.6398 272.567 73.1511 272.517 72.6806 272.485L71.8118 272.422L70.7304 272.322C69.9703 272.254 69.2146 272.169 68.468 272.065L67.5631 271.938L67.1106 271.875C66.355 271.757 65.6084 271.63 64.8483 271.486C64.2917 271.391 63.7397 271.273 63.1786 271.16L63.147 217.45Z" fill="#6C63FF"/>
<path opacity="0.1" d="M313.509 87.9912H285.039V151.013H313.509V87.9912Z" fill="#6C63FF"/>
<path opacity="0.1" d="M313.514 152.949V215.514H172.202V188.528H247.471V204.448H285.039V152.949H313.514Z" fill="#6C63FF"/>
<path opacity="0.1" d="M313.961 284.529H313.509V325.571C308.411 325.14 303.328 324.554 298.261 323.812C275.445 320.473 253.204 313.986 232.173 304.537C226.1 301.805 220.152 298.823 214.327 295.591C204.597 290.203 195.276 284.11 186.437 277.36C184.217 275.66 182.025 273.92 179.862 272.141C178.365 270.907 176.876 269.64 175.369 268.41C174.324 267.565 173.27 266.732 172.202 265.936V217.45H284.664C284.587 217.16 284.51 216.871 284.429 216.586C284.515 216.871 284.596 217.16 284.673 217.45H313.509V284.502C313.663 284.506 313.812 284.52 313.961 284.529Z" fill="#6C63FF"/>
<path opacity="0.1" d="M387.76 83.2968H369.208V77.535H377.525V60.3718C378.246 60.6342 378.964 60.904 379.679 61.1814V77.535H387.76V83.2968Z" fill="#6C63FF"/>
<path opacity="0.1" d="M432.455 151.018H341.381C341.381 151.018 341.381 151.018 341.413 151.04L341.372 151.018H324.477V87.9957H329.264V134.578H351.141V106.991H369.213V85.2324H387.764V107.009H405.836V134.596H432.455V151.018Z" fill="#6C63FF"/>
<path opacity="0.1" d="M324.477 152.949V215.514H432.455V152.949H324.477ZM461.766 289.16L461.915 239.638H432.455V217.477H324.477V326.245C333.33 326.617 342.196 326.511 351.037 325.928H351.191C355.414 325.663 359.617 325.277 363.801 324.771H363.896C386.217 322.174 408.043 316.353 428.69 307.49" fill="#6C63FF"/>
<path opacity="0.1" d="M474.793 217.45H499.982C499.76 230.154 497.208 242.632 491.625 254.155C486.978 263.729 480.521 272.101 472.892 279.414V239.615H474.793V217.45Z" fill="#6C63FF"/>
<path opacity="0.1" d="M499.995 215.514H474.793V163.229H488.43C495.489 179.714 499.973 197.804 499.995 215.514Z" fill="#6C63FF"/>
<path opacity="0.1" d="M313.514 105.512H298.261V125.271H313.514V105.512Z" fill="#6C63FF"/>
<path opacity="0.1" d="M313.514 146.468H298.261V151.018H313.514V146.468Z" fill="#6C63FF"/>
<path opacity="0.1" d="M313.514 152.949H298.261V166.223H313.514V152.949Z" fill="#6C63FF"/>
<path opacity="0.1" d="M313.514 187.425H298.261V207.184H313.514V187.425Z" fill="#6C63FF"/>
<path opacity="0.1" d="M313.514 228.381H298.261V248.14H313.514V228.381Z" fill="#6C63FF"/>
<path opacity="0.1" d="M313.509 284.502C313.663 284.502 313.812 284.502 313.962 284.529H313.509V289.119H298.261V269.337H313.509V284.502Z" fill="#6C63FF"/>
<path opacity="0.1" d="M313.509 310.285V325.548C308.411 325.117 303.328 324.531 298.261 323.789V310.285H313.509Z" fill="#6C63FF"/>
<path opacity="0.1" d="M237.571 214.062H172.202V215.514H237.571V214.062Z" fill="#6C63FF"/>
<path opacity="0.1" d="M237.571 217.445H172.202V223.008H237.571V217.445Z" fill="#6C63FF"/>
<path opacity="0.1" d="M237.571 241.243H172.202V250.189H237.571V241.243Z" fill="#6C63FF"/>
<path opacity="0.1" d="M237.566 268.424V277.37H186.437C184.217 275.675 182.024 273.935 179.858 272.15C178.36 270.916 176.876 269.649 175.365 268.424H237.566Z" fill="#6C63FF"/>
<path opacity="0.1" d="M237.566 295.6V304.537H232.168C226.102 301.802 220.155 298.819 214.327 295.586L237.566 295.6Z" fill="#6C63FF"/>
<path opacity="0.1" d="M363.91 159.014H351.042V171.876H363.91V159.014Z" fill="#6C63FF"/>
<path opacity="0.1" d="M85.2865 99.0851H72.4182V111.947H85.2865V99.0851Z" fill="#6C63FF"/>
<path opacity="0.1" d="M85.2865 128.961H72.4182V141.823H85.2865V128.961Z" fill="#6C63FF"/>
<path opacity="0.1" d="M85.2865 158.837H72.4182V171.7H85.2865V158.837Z" fill="#6C63FF"/>
<path opacity="0.1" d="M85.2865 188.709H72.4182V201.571H85.2865V188.709Z" fill="#6C63FF"/>
<path opacity="0.1" d="M85.2865 218.585H72.4182V231.447H85.2865V218.585Z" fill="#6C63FF"/>
<path opacity="0.1" d="M85.2865 248.461H72.4182V261.323H85.2865V248.461Z" fill="#6C63FF"/>
<path opacity="0.1" d="M413.035 159.014H400.167V171.876H413.035V159.014Z" fill="#6C63FF"/>
<path opacity="0.1" d="M363.91 190.74H351.042V203.602H363.91V190.74Z" fill="#6C63FF"/>
<path opacity="0.1" d="M413.035 190.74H400.167V203.602H413.035V190.74Z" fill="#6C63FF"/>
<path opacity="0.1" d="M363.91 222.461H351.042V235.323H363.91V222.461Z" fill="#6C63FF"/>
<path opacity="0.1" d="M413.035 222.461H400.167V235.323H413.035V222.461Z" fill="#6C63FF"/>
<path opacity="0.1" d="M363.91 254.187H351.042V267.049H363.91V254.187Z" fill="#6C63FF"/>
<path opacity="0.1" d="M413.035 254.187H400.167V267.049H413.035V254.187Z" fill="#6C63FF"/>
<path opacity="0.1" d="M363.91 285.913H351.042V298.775H363.91V285.913Z" fill="#6C63FF"/>
<path opacity="0.1" d="M413.035 285.913H400.167V298.775H413.035V285.913Z" fill="#6C63FF"/>
<path opacity="0.1" d="M351.042 325.928V317.634H363.905V324.748L351.042 325.928Z" fill="#6C63FF"/>
<path opacity="0.1" d="M8.14453 134.94V142.298H52.1837V134.94H8.14453ZM12.5335 141.837H8.94088V135.392H12.5607L12.5335 141.837ZM16.918 141.837H13.2982V135.392H16.918V141.837ZM21.2934 141.837H17.6736V135.392H21.2934V141.837ZM25.6778 141.837H22.0626V135.392H25.6824L25.6778 141.837ZM30.0578 141.837H26.438V135.392H30.0578V141.837ZM34.4422 141.837H30.8224V135.392H34.4422V141.837ZM38.8267 141.837H35.2069V135.392H38.8267V141.837ZM43.2066 141.837H39.5868V135.392H43.2066V141.837ZM47.5865 141.837H43.9668V135.392H47.5865V141.837ZM51.9665 141.837H48.3467V135.392H51.9665V141.837Z" fill="#6C63FF"/>
<path opacity="0.1" d="M8.14453 156.35V163.708H52.1837V156.35H8.14453ZM12.5335 163.242H8.94088V156.816H12.5607L12.5335 163.242ZM16.918 163.242H13.2982V156.816H16.918V163.242ZM21.2934 163.242H17.6736V156.816H21.2934V163.242ZM25.6778 163.242H22.0626V156.816H25.6824L25.6778 163.242ZM30.0578 163.242H26.438V156.816H30.0578V163.242ZM34.4422 163.242H30.8224V156.816H34.4422V163.242ZM38.8267 163.242H35.2069V156.816H38.8267V163.242ZM43.2066 163.242H39.5868V156.816H43.2066V163.242ZM47.5865 163.242H43.9668V156.816H47.5865V163.242ZM51.9665 163.242H48.3467V156.816H51.9665V163.242Z" fill="#6C63FF"/>
<path opacity="0.1" d="M8.14453 177.769V185.141H52.1837V177.769H8.14453ZM12.5335 184.661H8.94088V178.23H12.5607L12.5335 184.661ZM16.918 184.661H13.2982V178.23H16.918V184.661ZM21.2934 184.661H17.6736V178.23H21.2934V184.661ZM25.6778 184.661H22.0626V178.23H25.6824L25.6778 184.661ZM30.0578 184.661H26.438V178.23H30.0578V184.661ZM34.4422 184.661H30.8224V178.23H34.4422V184.661ZM38.8267 184.661H35.2069V178.23H38.8267V184.661ZM43.2066 184.661H39.5868V178.23H43.2066V184.661ZM47.5865 184.661H43.9668V178.23H47.5865V184.661ZM51.9665 184.661H48.3467V178.23H51.9665V184.661Z" fill="#6C63FF"/>
<path opacity="0.1" d="M8.14453 199.188V206.537H52.1837V199.188H8.14453ZM12.5335 206.08H8.94088V199.645H12.5607L12.5335 206.08ZM16.918 206.08H13.2982V199.645H16.918V206.08ZM21.2934 206.08H17.6736V199.645H21.2934V206.08ZM25.6778 206.08H22.0626V199.645H25.6824L25.6778 206.08ZM30.0578 206.08H26.438V199.645H30.0578V206.08ZM34.4422 206.08H30.8224V199.645H34.4422V206.08ZM38.8267 206.08H35.2069V199.645H38.8267V206.08ZM43.2066 206.08H39.5868V199.645H43.2066V206.08ZM47.5865 206.08H43.9668V199.645H47.5865V206.08ZM51.9665 206.08H48.3467V199.645H51.9665V206.08Z" fill="#6C63FF"/>
<path opacity="0.1" d="M8.33459 220.602C8.51106 221.294 8.71014 221.986 8.91828 222.669V221.063H12.5381V227.495H10.6015C10.6603 227.644 10.7191 227.807 10.7779 227.947H52.1837V220.602H8.33459ZM16.9316 227.495H13.3118V221.063H16.9316V227.495ZM21.307 227.495H17.6872V221.063H21.307V227.495ZM25.6914 227.495H22.0626V221.063H25.6824L25.6914 227.495ZM30.0714 227.495H26.4516V221.063H30.0714V227.495ZM34.4558 227.495H30.836V221.063H34.4558V227.495ZM38.8403 227.495H35.2205V221.063H38.8403V227.495ZM43.2202 227.495H39.6004V221.063H43.2202V227.495ZM47.6001 227.495H43.9804V221.063H47.6001V227.495ZM51.9801 227.495H48.3603V221.063H51.9801V227.495Z" fill="#6C63FF"/>
<path opacity="0.1" d="M18.5604 242.021C18.6735 242.166 18.7821 242.329 18.8998 242.473H21.2934V245.562C21.5513 245.87 21.8047 246.177 22.0671 246.467V242.455H25.6869V248.909H24.2209C24.3656 249.058 24.5059 249.216 24.6733 249.361H52.1972V242.021H18.5604ZM30.0577 248.909H26.438V242.482H30.0577V248.909ZM34.4422 248.909H30.8224V242.482H34.4422V248.909ZM38.8267 248.909H35.2069V242.482H38.8267V248.909ZM43.2066 248.909H39.5868V242.482H43.2066V248.909ZM47.5865 248.909H43.9667V242.482H47.5865V248.909ZM51.9664 248.909H48.3467V242.482H51.9664V248.909Z" fill="#6C63FF"/>
<path opacity="0.1" d="M42.7179 263.435C43.1296 263.671 43.5504 263.888 43.9758 264.123V263.897H47.5955V265.932L48.3648 266.289V263.897H51.9845V267.809C52.0539 267.843 52.1267 267.871 52.2017 267.89V263.435H42.7179Z" fill="#6C63FF"/>
<path opacity="0.1" d="M341.381 151.018H341.408H341.381ZM313.509 284.497H313.961H313.509ZM284.429 216.582C284.515 216.871 284.587 217.16 284.668 217.445C284.596 217.16 284.519 216.871 284.429 216.582ZM341.381 151.004H341.408H341.381ZM68.088 83.2832V85.2143H88.2999V83.2832H68.088ZM313.509 284.497H313.961H313.509ZM284.429 216.582C284.515 216.871 284.587 217.16 284.668 217.445C284.596 217.16 284.519 216.871 284.429 216.582ZM341.381 151.004H341.408H341.381ZM313.509 284.484H313.961H313.509ZM284.429 216.582C284.515 216.871 284.587 217.16 284.668 217.445C284.596 217.16 284.519 216.871 284.429 216.582Z" fill="#6C63FF"/>
<path d="M208.861 171.709C208.861 171.709 207.078 171.46 207.078 168.864C207.078 166.268 205.802 161.42 205.802 161.42C205.802 161.397 204.698 152.976 203.174 151.637C201.649 150.299 199.69 142.438 199.69 142.438C199.69 142.438 199.355 138.174 198.671 137.256C197.988 136.338 197.065 134.09 195.703 130.883C194.341 127.677 188.663 125.456 188.663 125.456C188.663 125.456 178.396 119.505 175.487 117.564C175.222 117.405 174.975 117.218 174.749 117.008C174.243 116.343 172.034 116.33 172.034 116.33C171.804 114.873 171.582 113.2 171.51 111.685C171.51 111.522 171.51 111.359 171.487 111.197C174.731 109.28 177.175 106.258 178.369 102.685C178.423 102.513 178.469 102.332 178.518 102.16C178.713 102.096 178.892 101.993 179.044 101.856C179.195 101.718 179.317 101.551 179.401 101.364C179.663 100.781 179.668 100.098 179.993 99.5554C180.374 98.9132 181.097 98.5695 181.668 98.0856C183.106 96.8645 183.477 94.8067 183.41 92.9344C183.364 91.4193 183.12 89.8907 183.215 88.3847L183.242 88.0048C183.269 87.7787 183.301 87.5525 183.342 87.3354C183.563 86.2138 184.048 85.1556 184.319 84.043C184.591 82.9305 184.618 81.6777 183.984 80.7189C183.057 79.3124 181.125 79.032 179.428 78.8873C177.505 78.7245 175.785 78.937 174.555 77.3405C173.979 76.5061 173.331 75.7238 172.618 75.0024C172.365 74.7672 169.903 73.2657 169.903 73.1662C167.501 72.0541 164.778 71.8453 162.234 72.5783C160.958 72.9491 159.754 73.5552 158.46 73.8582C155.669 74.5185 152.456 73.8039 150.085 75.4004C148.764 76.3049 147.972 77.7431 147.23 79.1451C146.627 80.2998 146.014 81.4531 145.393 82.6048C144.393 84.4998 143.375 86.4264 142.954 88.5249C142.866 88.9815 142.811 89.4441 142.791 89.9088V89.9314C142.791 90.0987 142.791 90.2661 142.791 90.4334V90.646C142.791 90.8043 142.791 90.958 142.818 91.0982C142.845 91.2384 142.841 91.2836 142.854 91.3786C142.868 91.4736 142.891 91.6862 142.918 91.8309C142.945 91.9756 142.999 92.2289 143.054 92.4279C143.076 92.5138 143.108 92.5952 143.135 92.6766C143.18 92.8304 143.235 92.9796 143.293 93.1289C143.325 93.2057 143.357 93.2871 143.393 93.364C143.461 93.5223 143.542 93.6761 143.624 93.8163C143.66 93.8796 143.687 93.9384 143.723 93.9972C143.849 94.2075 143.988 94.4099 144.14 94.6032C145.108 95.8107 146.533 96.5796 147.587 97.7102C147.587 97.7554 147.587 97.8007 147.587 97.8414C147.587 97.968 147.587 98.0901 147.587 98.2167C147.643 100.738 148.315 103.208 149.543 105.411C150.772 107.614 152.521 109.484 154.637 110.857C154.637 111.029 154.66 111.206 154.669 111.377C154.757 112.72 154.74 114.067 154.619 115.407C154.435 115.19 154.204 115.017 153.944 114.902C153.684 114.786 153.401 114.73 153.117 114.738C152.922 114.728 152.727 114.745 152.537 114.787L152.497 114.756V114.797C151.501 115.041 150.275 116.076 149.103 119.021C149.103 119.021 145.538 123.037 142.823 122.869C140.108 122.702 133.235 127.048 133.235 127.048C133.235 127.048 126.529 131.399 125.09 135.831C124.286 138.344 123.322 140.804 122.204 143.194L113.914 160.266L112.385 173.812C112.385 173.812 113.231 179.836 113.064 180.754C112.896 181.672 116.543 189.953 116.543 189.953C116.543 189.953 128.593 211.114 133.515 212.199L133.868 211.95C134.079 212.06 134.302 212.144 134.534 212.199L135.547 211.485C135.608 212.281 135.582 213.082 135.47 213.873C134.791 215.962 135.724 229.598 136.909 232.27C138.094 234.943 137.674 269.989 137.674 269.989L137.506 273.082C137.506 273.082 137.506 273.182 137.547 273.353L137.506 274.086L137.628 274.149C137.755 275.131 137.714 276.126 137.506 277.094C137.081 278.45 136.909 282.286 136.909 282.286C136.909 282.286 133.52 303.94 135.126 308.29C136.733 312.641 138.099 317.408 138.099 317.408C138.099 317.408 139.796 322.835 138.18 323.762C136.565 324.689 131.973 326.245 132.918 328.506C133.778 330.596 137.04 336.195 137.524 337.013L137.484 337.443L136.819 344.647C136.926 345.599 137.184 346.527 137.583 347.397C138.312 348.966 139.728 350.595 142.42 350.418C142.873 350.386 143.397 350.332 143.904 350.264C148.832 349.604 154.899 347.406 154.899 347.406C154.584 347.206 154.295 346.968 154.04 346.696C153.797 346.462 153.606 346.18 153.476 345.869C153.346 345.558 153.281 345.224 153.284 344.887C153.356 343.575 150.899 337.325 150.289 335.788C150.194 335.566 150.144 335.439 150.144 335.439C150.144 335.439 155.745 329.587 154.813 324.4C154.813 324.4 148.614 320.782 150.655 318.796C152.696 316.811 156.343 311.108 156.343 311.108C156.343 311.108 156.51 289.784 156.343 286.6C156.168 284.39 156.273 282.167 156.655 279.984C156.723 279.653 156.804 279.332 156.89 279.016C159.712 279.437 162.561 279.653 165.415 279.662C166.455 279.662 167.514 279.662 168.582 279.599C168.582 279.901 168.596 280.226 168.623 280.576C168.858 285.858 169.297 295.121 169.654 298.562C170.161 303.496 172.962 316.793 172.962 316.793C172.962 316.793 167.618 320.221 173.894 328.669C173.894 328.669 173.894 331.731 173.478 332.174C173.033 333.623 172.675 335.097 172.405 336.588C172.143 338.18 172.034 339.79 172.46 340.627C173.478 342.626 179.586 342.463 179.586 342.463L179.736 342.436C180.889 342.317 182.054 342.428 183.164 342.762C184.274 343.097 185.306 343.648 186.201 344.385C188.523 346.248 197.332 345.43 202.101 344.837C203.97 344.602 205.219 344.385 205.219 344.385C205.279 344.174 205.301 343.953 205.282 343.734C205.232 342.562 204.314 339.994 198.088 337.701C198.088 337.701 192.233 333.766 192.314 330.338H192.192H191.513C192.007 330.311 192.323 330.338 192.323 330.338C192.323 330.338 190.029 321.971 190.966 321.293C191.902 320.614 189.097 311.343 189.097 311.343C189.097 311.343 187.491 295.785 187.405 294.695C187.409 293.76 187.55 292.831 187.826 291.937L187.405 283.407C187.405 283.407 187.323 280.571 187.405 279.649C187.391 278.848 187.326 278.049 187.21 277.256C187.17 276.94 187.129 276.61 187.084 276.284C189.278 275.728 190.703 275.212 190.703 275.212L190.45 245.522C192.314 241.903 192.658 233.966 192.649 228.336C192.649 224.718 192.486 222.04 192.486 222.04L195.034 217.884C195.034 217.884 195.622 212.909 194.69 211.819C194.278 211.326 194.463 210.815 194.803 210.395C194.979 210.255 195.165 210.128 195.359 210.015C195.359 210.015 195.332 209.974 195.301 209.915C195.478 209.767 195.668 209.632 195.866 209.513C195.866 209.513 194.961 208.111 195.771 207.518C196.531 208.034 197.21 208.423 197.726 208.739C197.69 209.07 197.653 209.26 197.653 209.26L197.871 208.807C198.368 209.088 198.671 209.26 198.671 209.26C198.671 209.26 202.662 201.313 202.576 200.142C202.49 198.971 205.291 194.037 205.291 194.037C205.291 194.037 205.631 191.445 207.16 190.36C208.689 189.274 208.345 181.41 208.345 181.41C208.345 181.41 208.771 177.312 209.789 175.639C210.807 173.965 208.861 171.709 208.861 171.709ZM132.502 168.222L132.579 170.117C132.126 169.389 131.801 168.864 131.801 168.864L132.502 168.222Z" fill="url(#paint0_linear_105_291)"/>
<path d="M198.889 205.827L197.911 209.988C197.911 209.988 190.084 205.994 188.672 200.92C187.26 195.846 191.034 193.919 191.034 193.919L198.328 197.008L198.889 205.827Z" fill="white"/>
<path opacity="0.1" d="M198.889 205.827L197.911 209.988C197.911 209.988 190.084 205.994 188.672 200.92C187.26 195.846 191.034 193.919 191.034 193.919L198.328 197.008L198.889 205.827Z" fill="black"/>
<path d="M154.958 347.433C154.958 347.433 147.719 350.092 142.741 350.427C140.099 350.604 138.71 348.984 137.995 347.424C137.604 346.557 137.353 345.634 137.248 344.688L137.895 337.52L138.239 333.703L148.814 330.957L150.311 335.534L150.452 335.883C151.053 337.411 153.465 343.63 153.393 344.928C153.39 345.26 153.454 345.59 153.581 345.897C153.709 346.204 153.897 346.482 154.135 346.714C154.377 346.988 154.654 347.229 154.958 347.433Z" fill="white"/>
<path d="M204.409 343.788C204.427 344.006 204.406 344.225 204.346 344.435C204.346 344.435 188.862 347.017 185.695 344.435C184.802 343.68 183.761 343.121 182.639 342.792C181.517 342.464 180.338 342.373 179.179 342.526C179.179 342.526 173.188 342.689 172.188 340.717C171.772 339.89 171.881 338.284 172.139 336.701C172.402 335.218 172.752 333.752 173.188 332.31L173.428 332.12L174.853 330.976L191.541 330.483H191.667C191.586 333.893 197.332 337.805 197.332 337.805C203.436 340.066 204.337 342.621 204.409 343.788Z" fill="white"/>
<path opacity="0.1" d="M204.409 343.788C204.425 344.006 204.402 344.225 204.341 344.435C204.341 344.435 188.862 347.017 185.695 344.435C184.802 343.681 183.762 343.122 182.641 342.793C181.52 342.464 180.342 342.374 179.184 342.526C179.184 342.526 173.188 342.689 172.193 340.717C171.777 339.885 171.881 338.284 172.139 336.701C174.446 336.932 178.089 337.506 179.518 338.877C181.681 340.961 185.346 343.042 187.595 343.205C189.355 343.318 199.884 343.652 204.409 343.788Z" fill="black"/>
<path opacity="0.1" d="M154.958 347.433C154.958 347.433 147.719 350.092 142.741 350.427C140.099 350.604 138.71 348.984 138 347.42C139.841 348.039 142.398 348.69 143.741 348.094C145.334 347.388 150.981 346.931 154.148 346.737C154.389 347.001 154.661 347.234 154.958 347.433Z" fill="black"/>
<path d="M165.7 133.131C159.727 130.811 152.044 123.145 153.963 119.563C154.389 118.659 154.642 117.684 154.709 116.687C154.833 115.334 154.851 113.973 154.764 112.617C154.629 110.396 154.362 108.185 153.963 105.996C153.963 105.996 172.609 106.416 171.523 109.161C171.206 109.966 171.157 111.364 171.243 112.929C171.329 114.493 171.555 116.262 171.79 117.759C172.116 119.812 172.442 121.377 172.442 121.377C172.442 121.377 171.302 122.973 170.632 123.059C169.962 123.145 174.27 136.437 165.7 133.131Z" fill="#CF6F80"/>
<path opacity="0.1" d="M150.438 335.883L150.298 336.036C144.723 329.298 137.981 337.696 137.981 337.696L137.882 337.52L138.226 333.703L148.8 330.957L150.298 335.534L150.438 335.883Z" fill="black"/>
<path opacity="0.1" d="M191.672 330.957C191.672 330.957 187.6 330.872 185.428 332.789C183.256 334.707 172.759 333.205 173.211 332.789C173.345 332.583 173.426 332.347 173.446 332.102L174.872 330.957L191.559 330.465C191.622 330.768 191.672 330.957 191.672 330.957Z" fill="black"/>
<path d="M157.374 278.039C157.071 278.788 156.841 279.565 156.687 280.359C156.309 282.532 156.204 284.744 156.374 286.944C156.542 290.11 156.374 311.325 156.374 311.325C156.374 311.325 152.795 316.983 150.8 318.977C148.805 320.972 154.872 324.554 154.872 324.554C155.777 329.709 150.293 335.534 150.293 335.534C144.719 328.796 137.977 337.199 137.977 337.199C137.977 337.199 134.312 330.867 133.398 328.606C132.484 326.344 136.977 324.78 138.556 323.862C140.135 322.943 138.479 317.53 138.479 317.53C138.479 317.53 137.144 312.786 135.561 308.458C133.977 304.13 137.307 282.584 137.307 282.584C137.307 282.584 137.479 278.758 137.891 277.424C138.099 276.461 138.14 275.47 138.013 274.493C137.986 274.163 137.954 273.887 137.932 273.702C137.909 273.516 137.891 273.43 137.891 273.43L137.954 273.322L140.217 269.107C140.217 269.107 158.46 275.384 157.374 278.039Z" fill="#6C63FF"/>
<path d="M191.672 330.46C191.672 330.46 187.6 330.374 185.428 332.269C183.256 334.164 172.758 332.685 173.211 332.269C173.663 331.853 173.627 328.773 173.627 328.773C167.469 320.37 172.722 316.96 172.722 316.96C172.722 316.96 169.971 303.732 169.474 298.825C169.125 295.396 168.695 286.184 168.465 280.924C168.365 278.663 168.306 277.107 168.306 277.107L173.338 276.094L173.985 275.963L186.12 273.53C186.12 273.53 186.455 275.791 186.681 277.641C186.794 278.431 186.857 279.227 186.871 280.024C186.79 280.929 186.871 283.76 186.871 283.76L187.283 292.249C187.014 293.139 186.875 294.064 186.871 294.994C186.953 296.075 188.532 311.551 188.532 311.551C188.532 311.551 191.278 320.786 190.342 321.451C189.405 322.116 191.672 330.46 191.672 330.46Z" fill="#6C63FF"/>
<path opacity="0.1" d="M171.523 109.161C171.206 109.966 171.157 111.364 171.243 112.929C168.745 114.432 165.874 115.201 162.959 115.146C160.044 115.092 157.203 114.217 154.764 112.621C154.629 110.399 154.362 108.186 153.963 105.996C153.963 105.996 172.609 106.407 171.523 109.161Z" fill="black"/>
<path d="M178.731 99.1665C178.735 100.796 178.478 102.416 177.971 103.965C176.837 107.435 174.513 110.394 171.408 112.317C168.303 114.24 164.619 115.004 161.005 114.474C157.391 113.944 154.081 112.154 151.66 109.421C149.238 106.688 147.862 103.187 147.773 99.5373C147.773 99.4107 147.773 99.2931 147.773 99.1665C147.738 97.1122 148.112 95.0714 148.874 93.1632C149.637 91.2551 150.771 89.5177 152.213 88.0525C153.654 86.5873 155.372 85.4236 157.268 84.6292C159.164 83.8348 161.199 83.4257 163.254 83.4257C165.31 83.4257 167.345 83.8348 169.241 84.6292C171.136 85.4236 172.855 86.5873 174.296 88.0525C175.737 89.5177 176.872 91.2551 177.634 93.1632C178.396 95.0714 178.771 97.1122 178.736 99.1665H178.731Z" fill="#CF6F80"/>
<path opacity="0.1" d="M165.7 133.131C159.727 130.811 152.044 123.145 153.963 119.563C154.389 118.659 154.642 117.684 154.709 116.687L162.886 123.403L167.944 127.55L171.79 117.763C172.116 119.817 172.442 121.381 172.442 121.381C172.442 121.381 171.302 122.978 170.632 123.064C169.962 123.15 174.27 136.437 165.7 133.131Z" fill="black"/>
<path d="M186.844 162.813L180.016 277.46L171.111 278.043L148.053 211.566L151.836 132.643L152.632 115.968L162.885 124.384L167.949 128.532L171.908 118.46L179.27 124.873L186.844 162.813Z" fill="#6C63FF"/>
<path opacity="0.1" d="M157.374 278.039C157.071 278.788 156.841 279.565 156.687 280.359C150.207 279.359 143.914 277.394 138.018 274.529L137.896 274.466L137.936 273.738L137.959 273.358L140.221 269.143C140.221 269.143 158.46 275.384 157.374 278.039Z" fill="black"/>
<path opacity="0.1" d="M173.442 280.377C171.785 280.659 170.115 280.849 168.437 280.947C168.338 278.686 168.279 277.13 168.279 277.13L173.31 276.117L173.442 280.377Z" fill="black"/>
<path opacity="0.1" d="M186.654 277.663C183.437 278.5 178.469 279.441 174.021 278.853L173.958 275.986L186.093 273.552C186.093 273.552 186.428 275.791 186.654 277.663Z" fill="black"/>
<path opacity="0.1" d="M173.939 279.378C155.388 282.543 138.398 273.466 138.398 273.466L138.561 270.391C138.561 270.391 138.981 235.527 137.814 232.854C136.647 230.181 135.737 216.627 136.398 214.546C137.058 212.466 133.986 181.269 133.986 181.269L133.488 168.606L115.272 161.23L123.416 144.261C124.516 141.882 125.463 139.435 126.249 136.935C127.665 132.53 134.24 128.201 134.24 128.201C134.24 128.201 140.981 123.878 143.646 124.041C146.311 124.203 149.805 120.215 149.805 120.215C152.384 113.643 154.718 116.619 154.718 116.619C154.718 116.931 154.718 116.619 154.592 117.591C153.687 124.805 169.225 147.599 169.446 148.001L170.926 184.028L172.424 229.62L173.939 279.378Z" fill="black"/>
<path d="M173.442 279.378C154.89 282.543 137.895 273.466 137.895 273.466L138.063 270.391C138.063 270.391 138.484 235.527 137.312 232.854C136.14 230.181 135.235 216.627 135.9 214.546C136.565 212.466 133.488 181.269 133.488 181.269L132.986 168.606L114.76 161.203L122.905 144.234C124.003 141.854 124.949 139.407 125.737 136.907C127.149 132.502 133.728 128.174 133.728 128.174C133.728 128.174 140.47 123.851 143.131 124.014C145.791 124.176 149.289 120.187 149.289 120.187C151.872 113.616 154.718 116.592 154.718 116.592C154.718 116.904 154.447 117.044 154.592 117.564C156.583 124.561 168.727 147.572 168.949 147.974L170.446 184.001L171.944 229.593L173.442 279.378Z" fill="white"/>
<path opacity="0.1" d="M168.442 149.001C166.447 148.169 155.877 136.107 155.877 136.107V133.362C155.492 132.457 153.207 133.009 151.352 133.642L152.148 116.967L153.053 117.718C155.035 124.71 168.211 148.598 168.442 149.001Z" fill="black"/>
<path d="M168.944 148.001C166.944 147.169 156.374 135.107 156.374 135.107V132.362C155.99 131.458 153.705 132.009 151.85 132.643L152.651 115.968L153.556 116.719C155.542 123.71 168.722 147.603 168.944 148.001Z" fill="white"/>
<path opacity="0.1" d="M138.398 208.156C138.647 208.156 151.298 206.826 151.298 206.826C151.298 206.826 158.958 221.882 158.456 225.545C157.954 229.209 157.044 232.451 153.963 231.877C150.881 231.303 137.38 232.329 137.38 232.329L138.398 208.156Z" fill="black"/>
<path d="M137.896 207.157C138.144 207.157 150.795 205.827 150.795 205.827C150.795 205.827 158.451 220.887 157.954 224.546C157.456 228.205 156.537 231.452 153.461 230.877C150.384 230.303 136.877 231.33 136.877 231.33L137.896 207.157Z" fill="white"/>
<path d="M147.429 200.088C147.429 200.088 159.039 206.324 159.288 208.228C159.537 210.132 153.379 207.396 152.049 207.066C151.173 206.855 150.282 206.716 149.384 206.65L140.511 206.89L147.429 200.088Z" fill="#CF6F80"/>
<path opacity="0.1" d="M165.202 149.779C165.877 149.779 166.424 149.232 166.424 148.558C166.424 147.883 165.877 147.336 165.202 147.336C164.527 147.336 163.98 147.883 163.98 148.558C163.98 149.232 164.527 149.779 165.202 149.779Z" fill="black"/>
<path d="M165.202 149.281C165.877 149.281 166.424 148.734 166.424 148.06C166.424 147.386 165.877 146.839 165.202 146.839C164.527 146.839 163.98 147.386 163.98 148.06C163.98 148.734 164.527 149.281 165.202 149.281Z" fill="#3F3D56"/>
<path opacity="0.1" d="M167.451 202.638C168.126 202.638 168.673 202.092 168.673 201.417C168.673 200.743 168.126 200.196 167.451 200.196C166.776 200.196 166.229 200.743 166.229 201.417C166.229 202.092 166.776 202.638 167.451 202.638Z" fill="black"/>
<path d="M167.451 202.136C168.126 202.136 168.673 201.59 168.673 200.915C168.673 200.241 168.126 199.694 167.451 199.694C166.776 199.694 166.229 200.241 166.229 200.915C166.229 201.59 166.776 202.136 167.451 202.136Z" fill="#3F3D56"/>
<path opacity="0.1" d="M166.419 176.209C167.094 176.209 167.641 175.662 167.641 174.987C167.641 174.313 167.094 173.766 166.419 173.766C165.745 173.766 165.198 174.313 165.198 174.987C165.198 175.662 165.745 176.209 166.419 176.209Z" fill="black"/>
<path d="M166.419 175.711C167.094 175.711 167.641 175.164 167.641 174.49C167.641 173.816 167.094 173.269 166.419 173.269C165.745 173.269 165.198 173.816 165.198 174.49C165.198 175.164 165.745 175.711 166.419 175.711Z" fill="#3F3D56"/>
<path d="M194.581 206.397C194.581 206.397 195.414 207.645 194.581 208.228C193.749 208.812 194.663 210.223 194.663 210.223C194.663 210.223 192.586 211.439 193.5 212.534C194.414 213.628 193.835 218.571 193.835 218.571L191.337 222.705C191.337 222.705 191.486 225.369 191.495 228.969C191.495 234.586 191.165 242.482 189.337 246.082L189.59 275.619C189.59 275.619 180.844 278.812 173.523 277.84L172.437 230.443C172.437 230.443 174.021 203.566 174.605 198.41C174.946 195.733 175.085 193.035 175.021 190.337C175.021 190.337 174.772 182.269 173.935 178.524C173.935 178.524 173.03 162.302 172.939 157.811C172.899 155.662 173.012 149.394 173.139 143.433C173.279 136.916 173.437 130.77 173.437 130.77L171.786 117.709C171.786 117.709 173.437 117.542 173.935 118.207C174.158 118.415 174.4 118.601 174.659 118.763C177.509 120.689 187.581 126.614 187.581 126.614C187.581 126.614 193.156 128.83 194.491 132.005C195.825 135.18 196.753 137.432 197.4 138.337C198.047 139.241 198.4 143.492 198.4 143.492C198.4 143.492 200.319 151.316 201.816 152.641C203.314 153.967 204.409 162.397 204.409 162.397L191.174 172.799C191.174 172.799 190.011 190.102 189.762 190.771C189.514 191.441 194.581 206.397 194.581 206.397Z" fill="white"/>
<path d="M195.083 206.397C195.083 206.397 195.911 207.645 195.083 208.228C194.255 208.812 195.16 210.223 195.16 210.223C195.16 210.223 193.097 211.453 194.002 212.547C194.907 213.642 194.337 218.585 194.337 218.585L191.839 222.719C191.839 222.719 191.988 225.382 192.002 228.982C192.002 234.6 191.672 242.496 189.844 246.096L190.093 275.633C190.093 275.633 181.333 278.826 174.021 277.853L172.939 230.457C172.939 230.457 174.523 203.579 175.107 198.423C175.449 195.747 175.586 193.048 175.518 190.351C175.518 190.351 175.27 182.282 174.437 178.538C174.437 178.538 173.532 162.315 173.437 157.824C173.396 155.676 173.514 149.408 173.636 143.447C173.776 136.93 173.935 130.784 173.935 130.784L171.754 117.546C171.754 117.546 173.935 117.546 174.437 118.22C174.658 118.431 174.901 118.617 175.161 118.776C178.012 120.703 188.088 126.628 188.088 126.628C188.088 126.628 193.658 128.844 194.993 132.018C196.328 135.193 197.255 137.446 197.907 138.35C198.558 139.255 198.902 143.506 198.902 143.506C198.902 143.506 200.821 151.33 202.318 152.655C203.816 153.98 204.898 162.392 204.898 162.392L191.663 172.794C191.663 172.794 190.5 190.097 190.246 190.767C189.993 191.436 195.083 206.397 195.083 206.397Z" fill="white"/>
<path opacity="0.1" d="M179.233 134.623L180.428 138.106L174.139 144.437C174.279 137.925 174.437 131.774 174.437 131.774L172.256 118.537C172.256 118.537 174.437 118.537 174.939 119.211C175.16 119.421 175.402 119.606 175.663 119.762L181.012 135.184L179.233 134.623Z" fill="black"/>
<path d="M178.731 133.624L179.93 137.106L173.641 143.438C173.781 136.921 173.939 130.775 173.939 130.775L171.754 117.537C171.754 117.537 173.939 117.537 174.437 118.211C174.659 118.42 174.902 118.607 175.161 118.767L180.514 134.185L178.731 133.624Z" fill="white"/>
<path opacity="0.1" d="M178.731 99.1665C178.735 100.796 178.478 102.416 177.971 103.965C177.885 103.978 177.798 103.974 177.714 103.953C177.63 103.932 177.551 103.895 177.482 103.843C177.365 99.7725 175.36 95.9509 172.894 92.6992C172.202 91.7174 171.362 90.848 170.406 90.1213C169.438 89.3951 168.235 89.0549 167.03 89.1671C165.673 89.3525 164.474 90.2751 163.103 90.3927C161.293 90.5419 159.673 89.2892 157.877 89.2259C157.146 89.2328 156.426 89.3953 155.764 89.7026C155.101 90.0099 154.512 90.4548 154.035 91.0078C153.091 92.1236 152.39 93.4235 151.976 94.8248C151.265 96.9497 150.878 99.1695 150.827 101.41C150.804 102.676 150.682 104.263 149.506 104.725C149.594 103.793 149.489 102.854 149.195 101.966C148.901 101.077 148.426 100.26 147.8 99.5645L147.773 99.5373C147.773 99.4107 147.773 99.2931 147.773 99.1665C147.738 97.1122 148.112 95.0714 148.874 93.1632C149.637 91.2551 150.771 89.5177 152.213 88.0525C153.654 86.5873 155.372 85.4236 157.268 84.6292C159.164 83.8348 161.199 83.4257 163.254 83.4257C165.31 83.4257 167.345 83.8348 169.241 84.6292C171.136 85.4236 172.855 86.5873 174.296 88.0525C175.737 89.5177 176.872 91.2551 177.634 93.1632C178.396 95.0714 178.771 97.1122 178.736 99.1665H178.731Z" fill="black"/>
<path d="M169.664 74.5953C167.312 73.4899 164.638 73.2808 162.143 74.0074C160.89 74.3783 159.709 74.9798 158.438 75.2828C155.723 75.9385 152.556 75.2285 150.225 76.8159C148.931 77.7204 148.153 79.1496 147.429 80.538L145.619 83.9842C144.633 85.8701 143.637 87.7877 143.226 89.8635C142.814 91.9394 143.063 94.264 144.379 95.9328C145.339 97.1494 146.755 97.9137 147.796 99.0579C148.419 99.7539 148.892 100.571 149.185 101.458C149.477 102.345 149.584 103.284 149.497 104.214C150.678 103.761 150.791 102.169 150.818 100.903C150.869 98.663 151.256 96.4432 151.967 94.3183C152.38 92.9166 153.082 91.6165 154.026 90.5012C154.503 89.9487 155.093 89.5041 155.755 89.1969C156.417 88.8896 157.137 88.7269 157.868 88.7193C159.677 88.7827 161.302 90.0309 163.094 89.8816C164.451 89.7686 165.655 88.8414 167.021 88.6605C168.226 88.5466 169.43 88.887 170.397 89.6148C171.353 90.3403 172.191 91.21 172.881 92.1927C175.351 95.4444 177.356 99.2569 177.473 103.336C177.985 103.712 178.722 103.223 178.975 102.644C179.229 102.065 179.238 101.387 179.559 100.835C179.93 100.198 180.641 99.8584 181.197 99.379C182.609 98.1625 182.962 96.1138 182.907 94.255C182.853 92.3962 182.491 90.5103 182.844 88.6832C183.057 87.5616 183.536 86.5123 183.799 85.4043C184.061 84.2963 184.093 83.0526 183.473 82.0983C182.568 80.6963 180.663 80.4204 179.003 80.2893C177.116 80.1265 175.428 80.3345 174.224 78.7471C173.66 77.9187 173.024 77.1409 172.324 76.4225C172.084 76.1873 169.664 74.6948 169.664 74.5953Z" fill="#512E4E"/>
<path opacity="0.1" d="M120.484 169.967L115.756 161.23L114.258 174.712C114.258 174.712 115.091 180.699 114.923 181.618C114.756 182.536 118.335 190.767 118.335 190.767C118.335 190.767 130.158 211.815 134.986 212.9L151.298 201.25L146.972 195.76C146.972 195.76 145.474 195.176 145.099 195.76C145.099 195.76 137.067 181.948 136.235 180.948C135.402 179.949 135.565 177.954 135.565 177.954C135.565 177.954 134.316 176.625 134.733 175.376C135.149 174.128 132.321 169.8 132.321 169.8L134.9 167.39L120.484 169.967Z" fill="black"/>
<path d="M116.005 160.235L114.756 161.23L113.258 174.712C113.258 174.712 114.091 180.699 113.923 181.618C113.756 182.536 117.34 190.767 117.34 190.767C117.34 190.767 129.158 211.815 133.986 212.9L150.302 201.25L145.972 195.76C145.972 195.76 144.474 195.176 144.099 195.76C144.099 195.76 136.067 181.948 135.235 180.948C134.402 179.949 134.57 177.954 134.57 177.954C134.57 177.954 133.321 176.625 133.737 175.376C134.153 174.128 131.321 169.8 131.321 169.8L133.9 167.39L116.005 160.235Z" fill="white"/>
<path opacity="0.1" d="M193.5 213.049C194.405 214.148 193.835 219.083 193.835 219.083L191.337 223.216C191.337 223.216 191.486 225.884 191.495 229.48L187.296 230.791C186.917 230.91 186.515 230.936 186.123 230.867C185.731 230.799 185.362 230.638 185.045 230.397C184.729 230.157 184.474 229.845 184.303 229.486C184.132 229.127 184.049 228.733 184.061 228.336L184.785 204.995L194.581 208.739C193.749 209.318 194.663 210.738 194.663 210.738C194.663 210.738 192.586 211.95 193.5 213.049Z" fill="black"/>
<path d="M194.002 212.547C194.907 213.646 194.337 218.585 194.337 218.585L191.839 222.719C191.839 222.719 191.989 225.383 192.002 228.982L187.726 230.317C187.355 230.432 186.961 230.457 186.578 230.39C186.194 230.322 185.833 230.164 185.523 229.929C185.213 229.693 184.964 229.388 184.796 229.036C184.629 228.685 184.547 228.299 184.559 227.911L185.287 204.497L195.088 208.242C194.251 208.821 195.165 210.236 195.165 210.236C195.165 210.236 193.097 211.453 194.002 212.547Z" fill="white"/>
<path d="M197.246 201.422C197.246 201.422 196.581 205.669 194.916 205.917C193.251 206.166 192.504 212.787 190.844 212.552C189.183 212.317 190.283 206.397 190.342 205.248C190.4 204.099 188.532 199.342 189.93 198.261C191.328 197.18 195.753 198.261 195.753 198.261L197.246 201.422Z" fill="#CF6F80"/>
<path opacity="0.1" d="M200.789 168.719L203.929 162.388C203.929 162.388 205.178 167.213 205.178 169.791C205.178 172.369 206.925 172.622 206.925 172.622C206.925 172.622 208.839 174.883 207.83 176.53C206.821 178.176 206.413 182.273 206.413 182.273C206.413 182.273 206.744 190.093 205.246 191.174C203.748 192.255 203.436 194.837 203.436 194.837C203.436 194.837 200.685 199.744 200.771 200.911C200.857 202.078 196.943 209.979 196.943 209.979C196.943 209.979 198.857 200.16 187.704 195.918C187.704 195.918 187.618 192.585 188.45 191.671C189.283 190.758 190.581 190.342 189.767 185.724C188.952 181.106 189.532 175.589 189.532 174.481C189.532 173.373 192.029 166.462 192.029 166.462L200.789 168.719Z" fill="black"/>
<path d="M202.147 161.483L204.888 162.388C204.888 162.388 206.142 167.213 206.142 169.791C206.142 172.369 207.888 172.622 207.888 172.622C207.888 172.622 209.802 174.883 208.793 176.53C207.784 178.176 207.382 182.273 207.382 182.273C207.382 182.273 207.712 190.093 206.214 191.174C204.717 192.255 204.382 194.837 204.382 194.837C204.382 194.837 201.635 199.744 201.721 200.911C201.807 202.078 197.889 209.979 197.889 209.979C197.889 209.979 199.807 200.16 188.649 195.918C188.649 195.918 188.568 192.585 189.4 191.671C190.233 190.758 191.532 190.342 190.717 185.724C189.903 181.107 190.482 175.589 190.482 174.481C190.482 173.373 192.979 166.462 192.979 166.462L202.147 161.483Z" fill="white"/>
<path opacity="0.1" d="M141.583 325.594C141.583 325.594 145.954 322.849 148.823 324.843C151.691 326.837 141.583 325.594 141.583 325.594Z" fill="black"/>
<path opacity="0.1" d="M175.546 317.105C175.546 317.105 179.414 316.607 182.663 320.103C185.912 323.599 175.546 317.105 175.546 317.105Z" fill="black"/>
<g opacity="0.1">
<path opacity="0.1" d="M181.206 98.3886C180.649 98.868 179.935 99.2117 179.564 99.8494C179.247 100.397 179.238 101.07 178.984 101.658C178.731 102.246 177.993 102.726 177.482 102.355C177.365 98.2846 175.356 94.463 172.89 91.2067C172.2 90.224 171.362 89.3544 170.406 88.6289C169.437 87.9011 168.232 87.5608 167.026 87.6746C165.668 87.86 164.474 88.7827 163.103 88.8957C161.293 89.0495 159.668 87.7967 157.872 87.7334C157.142 87.7407 156.422 87.9038 155.76 88.2119C155.099 88.52 154.51 88.966 154.035 89.5198C153.091 90.6334 152.389 91.932 151.976 93.3324C151.265 95.4574 150.878 97.6771 150.827 99.9172C150.8 101.179 150.682 102.753 149.515 103.223C149.542 103.557 149.542 103.893 149.515 104.227C150.691 103.775 150.809 102.183 150.836 100.917C150.887 98.6766 151.274 96.4567 151.985 94.3318C152.398 92.9301 153.1 91.63 154.044 90.5148C154.52 89.9624 155.109 89.5178 155.771 89.2106C156.432 88.9033 157.152 88.7405 157.881 88.7329C159.691 88.7962 161.32 90.0444 163.112 89.8952C164.469 89.7821 165.673 88.855 167.035 88.6741C168.241 88.5603 169.446 88.9006 170.415 89.6284C171.371 90.3539 172.209 91.2235 172.899 92.2062C175.365 95.458 177.374 99.2705 177.491 103.35C178.003 103.725 178.74 103.237 178.993 102.658C179.247 102.079 179.256 101.401 179.573 100.849C179.944 100.211 180.659 99.872 181.215 99.3926C182.627 98.176 182.98 96.1273 182.925 94.2685C182.925 94.2097 182.925 94.1509 182.925 94.0967C182.839 95.7067 182.41 97.3484 181.206 98.3886Z" fill="black"/>
<path opacity="0.1" d="M147.805 98.0675C146.764 96.9233 145.343 96.159 144.388 94.9469C143.584 93.874 143.125 92.5824 143.072 91.243C142.929 92.9167 143.397 94.5855 144.388 95.9419C145.343 97.1585 146.764 97.9228 147.805 99.067C148.804 100.186 149.404 101.605 149.51 103.101C149.58 102.191 149.464 101.275 149.171 100.41C148.878 99.5455 148.413 98.7486 147.805 98.0675Z" fill="black"/>
<path opacity="0.1" d="M183.808 84.4139C183.541 85.5219 183.066 86.5756 182.849 87.6927C182.72 88.4392 182.673 89.1974 182.708 89.954C182.723 89.523 182.77 89.0937 182.849 88.6696C183.066 87.548 183.541 86.4988 183.808 85.3907C183.963 84.7796 184.014 84.1464 183.957 83.5184C183.929 83.8201 183.879 84.1194 183.808 84.4139Z" fill="black"/>
</g>
<path opacity="0.1" d="M60.0567 343.983C84.4063 343.983 104.146 340.814 104.146 336.905C104.146 332.996 84.4063 329.827 60.0567 329.827C35.707 329.827 15.9678 332.996 15.9678 336.905C15.9678 340.814 35.707 343.983 60.0567 343.983Z" fill="#6C63FF"/>
<path d="M61.4774 201.318H58.6404V265.163H61.4774V201.318Z" fill="#535461"/>
<path d="M79.3049 264.969L79.1284 267.845L78.875 271.915L78.771 273.607L78.5221 277.677L78.4135 279.368L78.1601 283.439L75.3005 329.601C75.1762 331.587 74.2994 333.451 72.8485 334.814C71.3977 336.177 69.4818 336.936 67.4908 336.936H52.6226C50.6321 336.935 48.7167 336.176 47.2666 334.813C45.8164 333.451 44.9406 331.586 44.8174 329.601L41.9714 283.407L41.718 279.337L41.6139 277.645L41.3605 273.575L41.2565 271.884L41.0031 267.813L40.8221 264.937C40.7907 264.383 40.8727 263.829 41.0632 263.308C41.2538 262.788 41.5487 262.311 41.9301 261.909C42.3114 261.506 42.771 261.185 43.2808 260.966C43.7905 260.748 44.3396 260.635 44.8943 260.636H75.305C75.8577 260.641 76.4035 260.759 76.9088 260.982C77.4141 261.206 77.8682 261.531 78.243 261.937C78.6178 262.343 78.9054 262.822 79.088 263.343C79.2707 263.864 79.3444 264.418 79.3049 264.969Z" fill="#3F3D56"/>
<path d="M79.1284 267.845L78.875 271.902H41.2384L40.985 267.845H79.1284Z" fill="#9D9CB5"/>
<path d="M78.7709 273.593L78.522 277.654H41.5958L41.3424 273.593H78.7709Z" fill="#9D9CB5"/>
<path d="M78.4134 279.35L78.1646 283.407H41.9532L41.6998 279.35H78.4134Z" fill="#9D9CB5"/>
<path d="M36.6547 225.247C53.1745 237.195 60.0702 255.883 60.0702 255.883C60.0702 255.883 40.1614 255.2 23.6371 243.251C7.11282 231.303 0.230713 212.62 0.230713 212.62C0.230713 212.62 20.1304 213.298 36.6547 225.247Z" fill="#6C63FF"/>
<path d="M0.217163 212.62C0.217163 212.62 20.8861 224.085 27.5148 233.577C34.1435 243.07 60.0702 255.883 60.0702 255.883" stroke="#535461" stroke-width="2" stroke-miterlimit="10"/>
<path d="M47.3195 201.178C56.3102 207.677 60.0702 217.848 60.0702 217.848C60.0702 217.848 49.2335 217.477 40.2383 210.978C31.2432 204.479 27.4922 194.303 27.4922 194.303C27.4922 194.303 38.3244 194.674 47.3195 201.178Z" fill="#6C63FF"/>
<path d="M27.4922 194.303C27.4922 194.303 38.7407 200.545 42.3469 205.709C45.9531 210.874 60.0702 217.848 60.0702 217.848" stroke="#535461" stroke-width="2" stroke-miterlimit="10"/>
<path d="M73.124 217.332C62.7941 228.679 60.6086 243.509 60.6086 243.509C60.6086 243.509 75.1737 239.936 85.4946 228.584C95.8155 217.233 98.01 202.408 98.01 202.408C98.01 202.408 83.454 205.985 73.124 217.332Z" fill="#6C63FF"/>
<path d="M98.0191 202.412C98.0191 202.412 84.5625 214.044 81.1418 222.058C77.7211 230.072 60.6086 243.509 60.6086 243.509" stroke="#535461" stroke-width="2" stroke-miterlimit="10"/>
<path d="M452.323 213.339C452.323 213.339 444.853 176.19 447.712 171.568C447.712 171.568 447.816 167.272 447.644 161.795C447.644 161.587 447.644 161.379 447.644 161.166C448.147 161.502 448.672 161.804 449.214 162.071C451.849 163.424 454.874 163.814 457.766 163.174L455.504 160.655C454.961 160.054 454.395 159.403 454.278 158.607C454.16 157.811 454.486 157.101 454.766 156.391C456.916 150.964 457.029 144.139 452.889 139.996C449.391 136.514 448.54 132.018 444.744 128.839C441.97 126.51 440.446 123.095 439.007 119.794C437.79 117.004 436.563 114.19 435.867 111.233C435.324 108.922 435.106 106.529 434.36 104.272C433.613 102.016 432.215 99.8223 430.03 98.8137C429.251 98.4564 428.387 98.2529 427.677 97.7781C426.745 97.1494 426.184 96.1273 425.509 95.2319C422.084 90.7093 410.614 93.3731 405.184 95.2092C403.708 95.6716 402.341 96.4286 401.166 97.4343L401.216 97.3529C401.257 97.2851 401.307 97.2173 401.352 97.1494C400.758 97.6298 400.244 98.2024 399.832 98.8454C399.04 100.098 398.709 101.559 398.049 102.916C397.253 104.521 392.823 109.003 394.728 110.808C394.861 110.929 395.014 111.027 395.18 111.097C395.895 111.395 396.683 111.473 397.443 111.323L397.361 111.518C396.711 113.11 396.377 114.813 396.379 116.533C396.379 123.964 402.51 129.988 410.08 129.988C411.503 129.989 412.918 129.771 414.275 129.341C414.306 129.513 414.333 129.685 414.365 129.857C414.365 129.925 414.388 129.992 414.397 130.06L414.157 130.395C414.145 130.374 414.131 130.355 414.116 130.336L407.012 140.259C405.926 141.023 399.673 145.546 399.32 148.937C398.949 152.65 398.578 156.997 398.578 156.997L398.528 157.928C398.218 158.188 397.855 158.376 397.464 158.482C397.074 158.587 396.665 158.607 396.266 158.539C394.049 158.177 394.049 166.679 394.049 166.679C394.049 166.679 392.574 168.036 391.56 166.86C390.547 165.685 387.868 169.669 387.868 169.669L371.082 170.393L370.697 170.415L369.792 167.616C369.695 167.32 369.485 167.075 369.208 166.934C368.93 166.793 368.609 166.766 368.312 166.86C368.242 166.883 368.174 166.912 368.109 166.946L368.045 166.982L367.928 167.064L367.869 167.118C367.837 167.148 367.806 167.179 367.778 167.213L367.724 167.276L367.697 167.304C367.593 167.448 367.523 167.615 367.495 167.791C367.467 167.967 367.48 168.147 367.534 168.317L368.312 170.718C365.073 171.369 361.761 173.206 364.462 178.262L350.77 175.734L355.2 179.451L378.068 184.168C377.765 184.711 377.964 185.498 378.909 186.606C382.982 191.386 390.402 192.684 393.388 193.019C394.177 194.782 395.162 196.451 396.325 197.994L396.067 202.756C396.067 202.756 388.506 239.054 387.122 240.895C387.821 240.103 388.46 239.261 389.036 238.376C386.841 245.834 383.773 256.041 382.968 257.57C381.674 260.012 380.475 269.894 381.95 270.527C382.402 270.721 383.696 270.626 385.543 270.486V271.305L385.461 302.325C385.461 302.325 385.832 321.352 384.814 323.165C383.796 324.979 383.525 328.782 383.525 328.782C383.525 328.782 379.452 336.285 376.226 339.302C376.204 339.325 376.18 339.346 376.154 339.365L376.054 338.659C376.054 338.659 372.177 343.553 363.598 343.277C363.598 343.277 358.435 346.633 366.091 346.814C373.747 346.995 383.525 346.542 383.525 346.542C383.525 346.542 390.352 336.14 396.072 337.497V345.38H397.823V337.37C398.635 336.836 399.33 336.143 399.866 335.332C400.402 334.521 400.767 333.61 400.94 332.653C401.09 331.668 400.98 330.66 400.622 329.73C400.263 328.8 399.668 327.979 398.895 327.348C398.548 327.035 398.269 326.653 398.077 326.226C397.885 325.8 397.783 325.338 397.777 324.87L397.714 324.924C397.714 324.766 397.673 324.603 397.655 324.436C397.153 320.366 396.524 311.967 398.746 305.753C401.791 297.233 402.714 285.365 400.497 278.301C399.781 276.043 399.194 273.746 398.737 271.422C398.682 271.128 398.633 270.848 398.587 270.586C400.103 270.791 401.604 271.093 403.08 271.49C408.216 272.906 419.451 273.168 429.043 273.091C429.066 273.353 429.093 273.629 429.125 273.905C429.296 275.823 429.653 277.719 430.193 279.567C431.396 283.186 431.948 299.137 431.948 299.137C431.948 299.137 433.5 312.252 432.654 317.589C432.201 320.556 431.749 323.536 431.491 326.53V326.589C431.491 326.589 428.948 333.825 427.089 337.755C427.043 337.854 426.994 337.954 426.948 338.049C426.452 338.094 425.964 338.202 425.496 338.37C425.496 338.37 423.003 343.345 420.519 344.168C418.035 344.991 418.858 347.7 424.482 346.705C430.107 345.71 438.599 344.896 438.599 344.896L438.966 339.822L440.694 337.66L440.242 342.721L442.083 342.359L441.839 336.204L444.667 332.667C444.667 332.667 448.083 329.628 443.007 323.649V323.78C442.952 323.694 442.902 323.604 442.844 323.518V323.491C442.002 322.188 441.332 319.76 442.559 315.45C444.776 307.662 446.065 300.593 446.065 300.593C446.065 300.593 451.015 281.657 445.065 272.698H445.328C444.718 271.437 444.287 270.097 444.047 268.718C444.017 268.555 443.99 268.388 443.966 268.216C448.368 267.963 452.689 267.167 456.214 265.448C456.201 265.43 454.079 220.494 452.323 213.339ZM396.429 181.997V182.088L395.524 182.133L396.429 181.997ZM393.325 182.427C393.176 182.46 393.037 182.527 392.918 182.622C392.529 183.172 392.284 183.811 392.207 184.48L390.796 184.164C390.796 184.164 389.805 183.951 388.38 183.712L387.705 183.033C389.56 182.879 391.488 182.653 393.325 182.427Z" fill="url(#paint1_linear_105_291)"/>
<path d="M440.034 336.267L439.495 342.675L441.301 342.314L441.029 335.362L440.034 336.267Z" fill="#1D2366"/>
<path d="M398.845 305.839C396.669 312.035 397.284 320.397 397.773 324.459C397.954 325.96 398.121 326.874 398.121 326.874C398.121 326.874 394.868 334.282 394.597 334.562C394.325 334.842 385.022 340.518 385.022 340.518L378.52 344.313C378.52 344.313 371.923 341.423 375.086 340.428C375.732 340.169 376.314 339.772 376.792 339.265C379.959 336.258 383.936 328.782 383.936 328.782C383.936 328.782 384.208 324.988 385.203 323.183C386.199 321.379 385.837 302.416 385.837 302.416L385.914 271.504V267.474L398.289 267.565C398.367 268.933 398.545 270.293 398.823 271.635C399.267 273.951 399.842 276.24 400.547 278.491C402.728 285.542 401.823 297.35 398.845 305.839Z" fill="#FFB0B1"/>
<path opacity="0.1" d="M398.121 326.874C398.121 326.874 394.868 334.282 394.597 334.562C394.325 334.842 385.022 340.518 385.022 340.518L378.52 344.313C378.52 344.313 371.923 341.423 375.086 340.428C375.732 340.169 376.314 339.772 376.792 339.265L377.072 341.242L379.24 341.151L397.791 324.468C397.954 325.96 398.121 326.874 398.121 326.874Z" fill="black"/>
<path d="M397.895 324.888L379.24 341.685L377.072 341.776L376.62 338.61C376.62 338.61 372.828 343.485 364.403 343.214C364.403 343.214 359.344 346.556 366.842 346.737C374.339 346.918 383.914 346.465 383.914 346.465C383.914 346.465 390.601 336.063 396.198 337.42V345.276H397.918V337.348C398.717 336.81 399.399 336.116 399.924 335.308C400.448 334.499 400.803 333.593 400.967 332.644C401.116 331.667 401.011 330.667 400.661 329.742C400.312 328.817 399.73 327.997 398.972 327.362C398.633 327.045 398.363 326.662 398.178 326.236C397.993 325.811 397.897 325.352 397.895 324.888Z" fill="#1D2366"/>
<path d="M441.753 315.499C440.55 319.796 441.206 322.215 442.029 323.513V323.54C443.085 325.143 443.82 326.936 444.192 328.818L444.264 329.225L435.776 341.595L431.17 343.404C431.17 343.404 423.763 340.876 425.116 340.152C425.455 339.976 425.984 339.035 426.591 337.737C428.401 333.825 430.898 326.607 430.898 326.607V326.548C431.161 323.568 431.577 320.596 432.039 317.639C432.867 312.315 431.346 299.25 431.346 299.25C431.346 299.25 430.803 283.362 429.627 279.748C429.096 277.911 428.743 276.027 428.573 274.122C428.328 271.861 428.274 269.998 428.274 269.998C428.274 269.998 433.152 263.214 442.093 270.54C442.807 271.125 443.437 271.807 443.961 272.567C450.137 281.349 445.165 300.697 445.165 300.697C445.165 300.697 443.92 307.734 441.753 315.499Z" fill="#FFB0B1"/>
<path opacity="0.1" d="M444.278 329.225L435.79 341.595L431.184 343.404C431.184 343.404 423.777 340.876 425.129 340.152C425.469 339.976 425.998 339.035 426.605 337.737C429.74 337.71 431.365 340.695 431.365 340.695L435.337 340.061C435.337 340.061 440.577 329.768 441.753 329.139C442.93 328.511 441.934 324.44 441.934 324.44V323.405C441.966 323.441 441.993 323.482 442.029 323.518V323.545C443.086 325.148 443.82 326.94 444.192 328.823L444.278 329.225Z" fill="black"/>
<path d="M431.636 340.961C431.636 340.961 429.374 336.81 425.039 338.343C425.039 338.343 422.6 343.318 420.161 344.123C417.722 344.928 418.537 347.641 424.048 346.651C429.559 345.66 437.867 344.842 437.867 344.842L438.229 339.781L443.83 332.649C443.83 332.649 447.169 329.623 442.201 323.667V324.703C442.201 324.703 443.197 328.773 442.02 329.402C440.844 330.03 435.622 340.328 435.622 340.328L431.636 340.961Z" fill="#1D2366"/>
<path opacity="0.1" d="M398.302 267.555C398.38 268.923 398.559 270.284 398.836 271.626C393.741 270.88 389.013 271.25 385.914 271.495V267.465L398.302 267.555Z" fill="black"/>
<path opacity="0.1" d="M444.464 273.693C444.464 273.693 437.224 274.045 428.591 274.118C428.347 271.856 428.292 269.993 428.292 269.993C428.292 269.993 433.17 263.209 442.111 270.536C442.826 271.12 443.455 271.802 443.979 272.562C444.12 272.948 444.281 273.325 444.464 273.693Z" fill="black"/>
<path d="M444.464 272.879C444.464 272.879 412.754 274.412 403.089 271.703C393.425 268.994 383.846 271.341 382.402 270.712C380.959 270.084 382.131 260.238 383.398 257.8C384.665 255.363 391.615 230.71 391.615 230.71L398.302 195.859L405.347 193.919L405.845 193.779L418.121 190.396L427.116 187.913C427.116 187.913 445.002 257.71 443.468 262.857C442.911 264.827 442.821 266.901 443.206 268.912C443.44 270.286 443.863 271.621 444.464 272.879Z" fill="#1D2366"/>
<path d="M374.991 172.025C374.991 172.025 368.656 178.809 373.453 182.59C378.249 186.371 381.402 182.952 381.402 182.952L374.991 172.025Z" fill="#C7DAF5"/>
<path opacity="0.1" d="M374.991 172.025C374.991 172.025 368.656 178.809 373.453 182.59C378.249 186.371 381.402 182.952 381.402 182.952L374.991 172.025Z" fill="black"/>
<path d="M426.17 127.424C426.17 127.424 425.428 128.129 424.31 129.169C422.718 130.657 420.36 132.833 418.27 134.655C415.374 137.174 412.985 139.024 413.84 137.446C414.695 135.867 414.533 133.117 414.107 130.544C414.076 130.372 414.048 130.2 414.017 130.033C413.664 128.143 413.198 126.276 412.619 124.443C412.619 124.443 417.297 118.401 419.885 116.018C420.849 115.113 421.523 114.742 421.564 115.371C421.609 116.217 422.243 118.084 423.03 120.065C423.053 120.129 423.075 120.187 423.102 120.251C423.627 121.608 424.22 123 424.74 124.203C425.537 126.049 426.17 127.424 426.17 127.424Z" fill="#FFB0B1"/>
<path opacity="0.1" d="M423.102 120.251C422.663 122.614 421.596 124.817 420.014 126.627C418.431 128.438 416.391 129.791 414.107 130.544C413.747 128.48 413.25 126.441 412.619 124.443C412.619 124.443 421.428 113.069 421.564 115.371C421.596 116.244 422.283 118.179 423.102 120.251Z" fill="black"/>
<path opacity="0.1" d="M413.229 133.583L414.37 131.978C414.37 131.978 415.125 136.582 417.903 134.551C420.682 132.52 420.817 149.833 420.817 149.833L417.836 194.394L396.289 193.105L396.9 171.573L399.338 160.719L405.37 144.939L408.958 139.725L413.229 133.583Z" fill="black"/>
<path d="M420.817 150.109L418.103 190.4L417.817 194.67L405.804 193.951L405.352 193.923L396.302 193.381L396.913 171.844L399.352 160.99L405.383 145.211L408.972 139.996L413.243 133.832L414.383 132.231C414.383 132.231 415.139 136.835 417.917 134.804L417.976 134.764C420.691 133.045 420.817 150.109 420.817 150.109Z" fill="#1D2366"/>
<path d="M399.655 157.218C399.655 157.218 398.574 159.48 396.402 159.113C394.23 158.747 394.235 167.254 394.235 167.254C394.235 167.254 392.791 168.611 391.796 167.435C390.8 166.259 388.176 170.234 388.176 170.234L371.733 170.958C371.733 170.958 379.05 174.3 377.615 184.413C377.615 184.413 402.456 182.875 403.271 180.528C404.085 178.18 399.655 157.218 399.655 157.218Z" fill="white"/>
<path opacity="0.03" d="M399.655 157.218C399.655 157.218 398.574 159.48 396.402 159.113C394.23 158.747 394.235 167.254 394.235 167.254C394.235 167.254 392.791 168.611 391.796 167.435C390.8 166.259 388.176 170.234 388.176 170.234L371.733 170.958C371.733 170.958 379.05 174.3 377.615 184.413C377.615 184.413 402.456 182.875 403.271 180.528C404.085 178.18 399.655 157.218 399.655 157.218Z" fill="black"/>
<path d="M351.87 176.272L356.204 179.971L391.886 187.465L387.461 182.952L351.87 176.272Z" fill="white"/>
<path d="M413.297 135.008C412.704 135.912 411.008 140.544 409.591 144.587C408.41 147.956 407.424 150.918 407.424 150.918C407.424 150.918 405.121 165.906 403.945 168.615C402.768 171.324 403.406 181.889 403.406 181.889L399.022 207.98C399.022 207.98 397.035 221.434 393.968 229.471C390.941 237.381 387.57 241.089 387.466 241.207C388.823 239.371 396.221 203.217 396.221 203.217L398.664 157.621C398.664 157.621 399.022 153.288 399.384 149.584C399.746 145.88 407.076 140.824 407.076 140.824L414.143 130.779C414.854 131.729 414.379 133.384 413.297 135.008Z" fill="white"/>
<path d="M394.868 193.607C394.868 193.607 384.461 193.155 379.421 187.103C374.38 181.052 391.072 184.688 391.072 184.688L395.411 185.683L394.868 193.607Z" fill="#FFB0B1"/>
<path opacity="0.1" d="M443.468 262.861C442.911 264.832 442.821 266.905 443.206 268.917C431.853 269.722 419.709 266.656 419.709 266.656C417.446 268.736 411.487 271.802 411.487 271.802L408.239 231.551C406.162 226.124 405.347 197.691 405.347 197.691C405.347 197.691 405.533 196.203 405.8 193.973C405.8 193.919 405.8 193.86 405.822 193.806C406.632 187.578 408.239 175.887 409.026 174.309C410.112 172.138 405.687 166.363 405.687 166.363L407.7 149.2L407.944 147.128C412.189 145.233 415.442 139.182 415.442 139.182L417.94 134.809C420.654 133.068 420.795 150.131 420.795 150.131L418.08 190.423L427.075 187.94C427.075 187.94 445.002 257.714 443.468 262.861Z" fill="black"/>
<path d="M455.119 265.642C442.744 271.784 420.252 266.095 420.252 266.095C417.989 268.175 412.03 271.241 412.03 271.241L408.777 230.99C406.705 225.563 405.89 197.13 405.89 197.13C405.89 197.13 408.506 175.915 409.591 173.748C409.908 173.115 409.754 172.174 409.379 171.161C407.532 166.34 406.853 161.15 407.397 156.015L408.266 148.639L408.506 146.572C412.754 144.673 416.008 138.621 416.008 138.621L418.27 134.66L422.433 127.36L424.405 123.905L424.74 124.208L427.297 126.524C427.297 126.524 428.383 127.428 430.012 128.785C433.554 131.77 439.676 137.025 442.835 140.241C445.613 143.072 446.491 154.084 446.744 162.374C446.911 167.833 446.812 172.111 446.812 172.111C444.011 176.72 451.337 213.719 451.337 213.719C453.042 220.869 455.119 265.642 455.119 265.642Z" fill="white"/>
<path opacity="0.03" d="M431.364 138.531C431.364 138.531 422.872 154.69 423.858 160.832C424.844 166.973 427.65 173.925 426.297 175.548C425.832 176.163 425.231 176.663 424.541 177.007C423.851 177.352 423.091 177.532 422.32 177.534C420.962 177.624 417.342 180.152 417.342 180.424C417.342 180.695 413.999 180.695 411.008 181.961C408.017 183.228 403.601 183.947 403.601 183.947C403.601 183.947 395.004 183.675 394.203 184.489C393.402 185.303 392.579 190.174 394.293 194.059C396.008 197.944 397.913 200.843 399.352 201.372C400.791 201.901 409.922 198.844 417.329 198.12C424.736 197.397 432.776 191.531 432.776 191.531C432.776 191.531 441.631 188.365 443.183 183.042C444.735 177.719 441.287 148.463 441.287 148.463C441.287 148.463 438.681 134.827 431.364 138.531Z" fill="black"/>
<path opacity="0.03" d="M430.279 137.174C430.279 137.174 421.786 153.338 422.781 159.475C423.776 165.612 426.573 172.568 425.215 174.196C424.752 174.812 424.152 175.312 423.463 175.656C422.773 176.001 422.013 176.181 421.243 176.181C419.885 176.272 416.265 178.8 416.265 179.071C416.265 179.343 412.922 179.343 409.931 180.604C406.94 181.866 402.524 182.59 402.524 182.59C402.524 182.59 393.927 182.319 393.131 183.133C392.334 183.947 391.502 188.822 393.221 192.702C394.94 196.583 396.841 199.486 398.28 200.015C399.718 200.545 408.849 197.487 416.256 196.768C423.663 196.049 431.704 190.174 431.704 190.174C431.704 190.174 440.554 187.008 442.088 181.69C443.622 176.371 440.192 147.106 440.192 147.106C440.192 147.106 437.595 133.475 430.279 137.174Z" fill="black"/>
<path d="M431.097 137.717C431.097 137.717 422.605 153.881 423.6 160.018C424.595 166.155 427.392 173.111 426.039 174.734C425.576 175.351 424.975 175.853 424.285 176.198C423.595 176.543 422.834 176.723 422.062 176.724C420.704 176.815 417.084 179.343 417.084 179.61C417.084 179.876 413.745 179.881 410.75 181.147C407.754 182.414 403.343 183.133 403.343 183.133C403.343 183.133 394.746 182.861 393.945 183.675C393.144 184.489 392.321 189.365 394.035 193.245C395.75 197.125 397.655 200.029 399.094 200.558C400.533 201.087 409.664 198.03 417.071 197.306C424.478 196.583 432.518 190.717 432.518 190.717C432.518 190.717 441.373 187.551 442.925 182.228C444.477 176.905 441.052 147.648 441.052 147.648C441.052 147.648 438.409 134.036 431.097 137.717Z" fill="white"/>
<path opacity="0.1" d="M430.912 181.07C430.912 181.07 424.125 179.714 426.487 181.975C428.849 184.236 428.835 186.217 431.726 186.127C434.618 186.036 430.912 181.07 430.912 181.07Z" fill="black"/>
<path opacity="0.1" d="M442.382 229.724C442.382 229.724 439.314 231.8 445.183 236.585C451.052 241.37 442.382 229.724 442.382 229.724Z" fill="black"/>
<path opacity="0.1" d="M436.527 246.788C436.527 247.059 435.441 256.737 439.504 259.157C443.568 261.577 436.527 246.788 436.527 246.788Z" fill="black"/>
<path d="M372.014 170.935C368.738 171.048 361.661 172.048 365.331 178.89C368.575 184.946 374.027 180.898 377.095 177.828C376.347 174.965 374.528 172.498 372.014 170.935Z" fill="#FFB0B1"/>
<path d="M377.136 177.773L377.271 177.633L377.136 177.773Z" fill="#FFB0B1"/>
<path opacity="0.1" d="M430.012 129.061C426.537 131.435 423.623 133.439 423.053 133.855C421.496 135.008 418.528 141.778 416.614 145.233C415.089 148.015 410.134 148.729 408.266 148.906L408.506 146.839C412.754 144.939 416.008 138.888 416.008 138.888L424.405 124.172L427.297 126.799C427.297 126.799 428.383 127.704 430.012 129.061Z" fill="black"/>
<path d="M430.012 128.789C426.537 131.164 423.623 133.167 423.053 133.588C421.496 134.737 418.528 141.507 416.614 144.962C415.089 147.743 410.134 148.458 408.266 148.634L408.506 146.568C412.754 144.668 416.008 138.617 416.008 138.617L424.405 123.9L427.297 126.519C427.297 126.519 428.383 127.414 430.012 128.789Z" fill="#DCE7FF"/>
<path d="M423.324 117.266C423.326 119.981 422.502 122.632 420.962 124.868C419.143 127.512 416.436 129.417 413.333 130.237C410.229 131.057 406.934 130.737 404.046 129.337C401.157 127.936 398.867 125.547 397.59 122.603C396.314 119.659 396.135 116.355 397.087 113.29C398.039 110.226 400.059 107.604 402.779 105.9C405.5 104.197 408.741 103.525 411.915 104.006C415.089 104.487 417.986 106.089 420.079 108.522C422.172 110.955 423.323 114.057 423.324 117.266Z" fill="#FFB0B1"/>
<path opacity="0.1" d="M446.744 162.379C444.906 161.249 443.41 159.642 442.414 157.729C441.658 156.237 441.156 154.514 439.866 153.455C438.704 152.506 437.152 152.275 435.704 151.85C430.944 150.443 426.953 146.102 426.804 141.145C426.731 138.811 427.46 136.482 427.129 134.171C426.941 132.863 426.421 131.625 425.618 130.576C425.219 130.074 424.782 129.604 424.31 129.169C423.677 128.572 423.012 127.993 422.433 127.36C422.068 126.968 421.749 126.536 421.482 126.071C421.267 125.691 421.093 125.289 420.962 124.873C420.057 122.105 420.881 118.822 419.885 116.022L419.831 115.868C419.455 114.873 418.691 113.878 417.627 113.802C416.564 113.725 415.655 114.607 414.641 115C412.519 115.823 410.229 114.421 408.46 112.992C406.691 111.563 404.696 109.93 402.447 110.247C400.958 110.459 399.782 111.472 398.411 111.997C398.101 112.117 397.782 112.209 397.456 112.273C398.616 109.381 400.748 106.983 403.485 105.491C406.222 103.999 409.393 103.506 412.454 104.098C415.515 104.689 418.274 106.327 420.258 108.731C422.241 111.135 423.326 114.154 423.324 117.27C423.326 118.211 423.227 119.15 423.03 120.07C423.053 120.133 423.075 120.192 423.102 120.255C423.627 121.612 424.22 123.005 424.74 124.208L427.297 126.524C427.297 126.524 428.383 127.428 430.012 128.785C433.554 131.77 439.676 137.025 442.835 140.241C445.613 143.081 446.481 154.089 446.744 162.379Z" fill="black"/>
<path d="M398.253 103.734C398.9 102.418 399.221 100.944 399.995 99.6956C401.13 97.8866 403.112 96.7288 405.148 96.0278C410.465 94.1962 421.7 91.5369 425.057 96.0278C425.718 96.9323 426.265 97.9364 427.179 98.5605C427.876 99.0353 428.718 99.2389 429.482 99.5961C431.622 100.6 432.989 102.789 433.717 105.023C434.446 107.257 434.663 109.654 435.197 111.956C435.88 114.91 437.079 117.709 438.274 120.49C439.681 123.774 441.174 127.179 443.889 129.499C447.595 132.665 448.414 137.147 451.852 140.62C455.925 144.745 455.793 151.551 453.694 156.956C453.418 157.666 453.106 158.408 453.214 159.163C453.323 159.918 453.884 160.606 454.413 161.207L456.64 163.717C451.373 164.988 445.414 162.238 442.961 157.413C442.206 155.92 441.704 154.202 440.409 153.139C439.251 152.189 437.695 151.963 436.251 151.538C431.491 150.127 427.5 145.781 427.351 140.824C427.279 138.495 428.007 136.166 427.677 133.859C427.493 132.542 426.971 131.296 426.161 130.241C424.917 128.618 423.039 127.528 422.025 125.719C420.311 122.693 421.614 118.763 420.378 115.516C419.998 114.521 419.238 113.526 418.175 113.449C417.112 113.372 416.202 114.254 415.184 114.647C413.067 115.47 410.777 114.073 409.008 112.639C407.239 111.206 405.243 109.577 402.99 109.899C401.501 110.107 400.329 111.12 398.958 111.649C397.945 112.038 395.891 112.386 395.004 111.531C393.131 109.808 397.47 105.344 398.253 103.734Z" fill="#591D4B"/>
<path opacity="0.1" d="M444.219 155.92C443.459 154.428 442.961 152.709 441.667 151.651C440.509 150.701 438.952 150.471 437.505 150.045C432.749 148.639 428.758 144.293 428.604 139.336C428.532 137.007 429.261 134.673 428.935 132.367C428.745 131.058 428.223 129.821 427.419 128.771C426.17 127.148 424.292 126.058 423.283 124.249C421.569 121.228 422.872 117.297 421.632 114.046C421.256 113.055 420.492 112.06 419.433 111.979C418.374 111.898 417.456 112.788 416.442 113.182C414.324 114.005 412.03 112.603 410.266 111.174C408.501 109.745 406.497 108.112 404.248 108.429C402.759 108.641 401.583 109.654 400.216 110.179C399.203 110.568 397.144 110.921 396.257 110.066C394.393 108.257 398.732 103.802 399.511 102.201C400.158 100.881 400.479 99.4107 401.257 98.1625C401.298 98.0946 401.343 98.0268 401.388 97.959C400.806 98.441 400.304 99.0118 399.9 99.6504C399.126 100.899 398.805 102.364 398.158 103.689C397.375 105.29 393.036 109.758 394.904 111.554C395.809 112.413 397.845 112.06 398.859 111.671C400.216 111.142 401.402 110.129 402.89 109.921C405.153 109.6 407.144 111.233 408.908 112.662C410.673 114.091 412.981 115.493 415.089 114.67C416.103 114.276 416.989 113.39 418.075 113.471C419.161 113.553 419.885 114.543 420.279 115.538C421.514 118.785 420.211 122.716 421.926 125.741C422.939 127.519 424.817 128.631 426.062 130.264C426.871 131.318 427.394 132.565 427.577 133.882C427.908 136.188 427.179 138.517 427.252 140.847C427.401 145.821 431.392 150.149 436.152 151.561C437.586 151.986 439.152 152.212 440.31 153.162C441.608 154.224 442.12 155.943 442.862 157.435C445.314 162.261 451.273 165.011 456.54 163.74L455.49 162.555C450.925 162.623 446.305 160.027 444.219 155.92Z" fill="black"/>
<path opacity="0.1" d="M413.026 135.279C412.433 136.184 410.736 140.815 409.32 144.858C407.994 144.342 406.791 141.055 406.791 141.055L413.858 131.005C414.582 132 414.107 133.651 413.026 135.279Z" fill="black"/>
<path d="M413.297 135.008C412.704 135.912 411.008 140.544 409.591 144.587C408.266 144.076 407.062 140.783 407.062 140.783L414.13 130.739C414.854 131.729 414.379 133.384 413.297 135.008Z" fill="#DCE7FF"/>
<path d="M372.204 181.211L368.285 168.859C368.239 168.715 368.222 168.562 368.234 168.411C368.247 168.26 368.289 168.112 368.359 167.978C368.429 167.843 368.525 167.723 368.641 167.625C368.757 167.527 368.892 167.453 369.036 167.408C369.328 167.317 369.644 167.344 369.915 167.485C370.186 167.626 370.391 167.868 370.484 168.158L374.403 180.496L374.014 183.078L372.204 181.211Z" fill="#BE8B87"/>
<path opacity="0.1" d="M368.656 167.774C368.949 167.682 369.265 167.709 369.538 167.849C369.81 167.99 370.015 168.233 370.109 168.525L374.027 180.862L373.733 182.798L374.018 183.096L374.407 180.514L370.466 168.176C370.373 167.886 370.168 167.644 369.897 167.503C369.626 167.363 369.31 167.335 369.018 167.426C368.773 167.505 368.561 167.664 368.417 167.878C368.493 167.837 368.574 167.802 368.656 167.774Z" fill="white"/>
<path d="M372.204 181.211L374.403 180.514L374.082 182.631L374.014 183.096L373.371 182.427L372.204 181.211Z" fill="#EFC8C4"/>
<path d="M373.371 182.427C373.409 182.379 373.457 182.339 373.511 182.309C373.543 182.289 373.58 182.279 373.618 182.279C373.655 182.279 373.692 182.289 373.724 182.309C373.755 182.347 373.781 182.388 373.801 182.432C373.831 182.482 373.872 182.524 373.92 182.556C373.969 182.588 374.024 182.609 374.081 182.617L374.014 183.069L373.371 182.427Z" fill="#727A9C"/>
<path d="M368.263 173.246C368.263 173.246 376.122 173.201 374.271 176.543C372.421 179.885 369.53 180.288 369.53 180.288L368.263 173.246Z" fill="#FFB0B1"/>
<path d="M319.382 23.2551H319.043C305.541 23.2551 293.6 30.3962 286.732 40.9338C279.863 30.3962 267.922 23.2551 254.421 23.2551H254.081C243.949 23.3516 234.263 27.4412 227.13 34.6351C219.997 41.829 215.993 51.546 215.988 61.6743C215.988 74.2516 221.499 92.0977 232.245 106.782C252.719 134.764 286.732 159.244 286.732 159.244C286.732 159.244 320.744 134.768 341.214 106.782C351.965 92.0977 357.471 74.2516 357.471 61.6743C357.466 51.5468 353.462 41.8305 346.33 34.6367C339.198 27.4429 329.514 23.3528 319.382 23.2551ZM314.527 108.935C312.989 108.929 311.489 108.459 310.224 107.586C308.959 106.712 307.987 105.477 307.437 104.042H299.365C298.833 104.038 298.316 103.869 297.885 103.558C297.454 103.247 297.132 102.809 296.962 102.305L294.483 94.8384L286.637 122.241C286.484 122.768 286.164 123.232 285.725 123.562C285.286 123.892 284.752 124.071 284.202 124.072H284.044C283.471 124.045 282.924 123.821 282.496 123.439C282.068 123.057 281.784 122.54 281.691 121.974L273.605 73.3652L267.696 102.129C267.561 102.675 267.246 103.16 266.802 103.507C266.359 103.854 265.812 104.042 265.248 104.042H253.878C253.537 104.056 253.197 104.002 252.877 103.881C252.558 103.761 252.267 103.577 252.02 103.341C251.774 103.105 251.578 102.822 251.444 102.508C251.31 102.194 251.241 101.857 251.241 101.516C251.241 101.175 251.31 100.837 251.444 100.524C251.578 100.21 251.774 99.9269 252.02 99.6909C252.267 99.4549 252.558 99.2712 252.877 99.1508C253.197 99.0303 253.537 98.9757 253.878 98.9901H263.257L271.628 60.3176C271.766 59.7458 272.097 59.2395 272.567 58.8852C273.037 58.5309 273.615 58.3507 274.202 58.3752C274.79 58.3998 275.351 58.6277 275.789 59.0199C276.228 59.4121 276.516 59.9444 276.605 60.5256L284.863 110.111L291.894 85.5942C292.041 85.0779 292.35 84.6227 292.777 84.2967C293.203 83.9706 293.724 83.7912 294.261 83.7852H294.311C294.842 83.7854 295.361 83.9534 295.791 84.2652C296.222 84.5771 296.543 85.0168 296.709 85.5219L301.193 99.0037H307.337C307.774 97.677 308.569 96.4968 309.635 95.5933C310.7 94.6898 311.995 94.0981 313.376 93.8836C314.756 93.6691 316.17 93.84 317.459 94.3776C318.749 94.9151 319.865 95.7984 320.684 96.9299C321.503 98.0613 321.994 99.397 322.101 100.79C322.209 102.182 321.93 103.577 321.294 104.821C320.659 106.065 319.692 107.109 318.5 107.838C317.308 108.567 315.938 108.953 314.541 108.953L314.527 108.935Z" fill="#6C63FF"/>
</g>
<defs>
<linearGradient id="paint0_linear_105_291" x1="161.229" y1="350.441" x2="161.229" y2="72.1486" gradientUnits="userSpaceOnUse">
<stop stop-color="#808080" stop-opacity="0.25"/>
<stop offset="0.54" stop-color="#808080" stop-opacity="0.12"/>
<stop offset="1" stop-color="#808080" stop-opacity="0.1"/>
</linearGradient>
<linearGradient id="paint1_linear_105_291" x1="404.252" y1="346.922" x2="404.252" y2="92.7535" gradientUnits="userSpaceOnUse">
<stop stop-color="#808080" stop-opacity="0.25"/>
<stop offset="0.54" stop-color="#808080" stop-opacity="0.12"/>
<stop offset="1" stop-color="#808080" stop-opacity="0.1"/>
</linearGradient>
<clipPath id="clip0_105_291">
<rect width="500" height="354" fill="white"/>
</clipPath>
</defs>
</svg>
