<svg width="298" height="198" viewBox="0 0 298 198" fill="none" xmlns="http://www.w3.org/2000/svg">
<g clip-path="url(#clip0_105_119)">
<path d="M278.429 187.82L275.099 189.992L265.165 178.143L270.079 174.937L278.429 187.82Z" fill="#A0616A"/>
<path d="M280.804 191.228L270.566 197.906L270.482 197.776C269.795 196.716 269.555 195.425 269.817 194.188C270.078 192.951 270.819 191.869 271.875 191.179L271.876 191.179L272.823 188.536L277.235 187.683L278.129 187.1L280.804 191.228Z" fill="#2F2E41"/>
<path d="M221.372 193.511L217.401 193.51L215.512 178.144L221.373 178.144L221.372 193.511Z" fill="#A0616A"/>
<path d="M221.512 197.666L209.3 197.666V197.511C209.3 196.246 209.801 195.033 210.692 194.139C211.583 193.245 212.792 192.743 214.053 192.743H214.053L216.284 191.045L220.446 192.743H221.512L221.512 197.666Z" fill="#2F2E41"/>
<path d="M262.478 99.5122L226.866 100.298L223.336 104.724C223.336 104.724 223.641 103.163 223.37 104.878C223.098 106.592 216.228 140.768 217.526 141.914C218.825 143.06 215.064 150.974 214.788 151.456C214.511 151.939 211.534 175.76 214.788 177.719L216.01 186.034H221.697C221.697 186.034 227.394 179.42 226.248 178.221C225.101 177.022 228.38 173.035 228.506 170.897C228.631 168.759 229.828 159.063 228.901 157.508C227.973 155.953 226.719 150.118 229.072 147.856C231.425 145.594 242.401 117.798 242.401 117.798C242.401 117.798 245.59 150.385 245.583 152.944C245.573 156.271 247.751 154.624 247.751 157.546C247.751 158.136 254.844 173.305 259.611 178.046L269.469 185.653L274.018 182.23V177.286C274.018 177.286 269.802 168.111 268.331 166.636C266.86 165.161 261.43 160.644 261.43 158.578C261.43 156.513 258.873 155.793 260.593 153.054C262.312 150.316 261.724 149.135 261.135 147.955C260.547 146.775 261.663 98.4116 261.663 98.4116L262.478 99.5122Z" fill="#2F2E41"/>
<path d="M247.629 27.8001C253.572 27.8001 258.39 22.9669 258.39 17.0048C258.39 11.0427 253.572 6.20953 247.629 6.20953C241.685 6.20953 236.867 11.0427 236.867 17.0048C236.867 22.9669 241.685 27.8001 247.629 27.8001Z" fill="#A0616A"/>
<path d="M256.226 103.638L259.255 94.4907L264.706 95.4975L261.16 105.054C261.375 105.614 261.431 106.224 261.32 106.813C261.21 107.403 260.937 107.951 260.534 108.394C260.13 108.837 259.611 109.158 259.035 109.322C258.46 109.485 257.85 109.484 257.275 109.319C256.699 109.154 256.181 108.831 255.779 108.387C255.376 107.943 255.106 107.395 254.997 106.804C254.888 106.214 254.945 105.605 255.162 105.046C255.379 104.486 255.748 103.999 256.226 103.638L256.226 103.638Z" fill="#A0616A"/>
<path d="M193.404 85.9602L200.826 79.8386L204.903 83.6041L196.826 89.7961C196.711 90.3851 196.435 90.9303 196.028 91.3704C195.621 91.8104 195.1 92.1279 194.523 92.2871C193.946 92.4462 193.336 92.4408 192.762 92.2713C192.188 92.1019 191.672 91.7752 191.273 91.328C190.874 90.8807 190.607 90.3307 190.503 89.7396C190.398 89.1486 190.46 88.54 190.681 87.9823C190.903 87.4246 191.275 86.9399 191.756 86.5827C192.237 86.2255 192.807 86.0099 193.404 85.9602H193.404Z" fill="#A0616A"/>
<path d="M234.744 15.1163C235.904 15.4776 237.023 15.6906 237.777 14.7359C238.532 13.7813 238.335 12.6897 239.457 12.2294C240.396 11.9137 241.418 11.9612 242.323 12.3626C242.486 12.4234 242.646 12.4919 242.801 12.5603C242.888 12.4843 242.975 12.412 243.07 12.3435C243.784 11.8347 244.664 11.6196 245.531 11.7426C244.897 12.0496 244.376 12.5485 244.041 13.1689C244.352 13.3248 244.666 13.4808 244.985 13.6139C246.323 14.1631 247.771 14.392 249.213 14.2824C250.655 14.1728 252.051 13.7278 253.292 12.9825C252.048 16.2687 253.015 17.4401 254.839 20.4411L254.911 20.616C254.729 19.8287 257.114 18.9197 257.114 20.0607C257.009 21.2298 256.754 22.3803 256.355 23.4838C258.695 19.9504 260.075 15.8161 259.169 11.8491C258.975 11.0161 258.888 10.1223 258.361 9.44531C257.834 8.77212 256.863 8.37655 256.098 8.75689C256.003 7.46696 255.561 6.22694 254.82 5.16867C254.078 4.1104 253.065 3.27343 251.887 2.74674C250.71 2.22005 249.412 2.02333 248.132 2.17749C246.852 2.33165 245.637 2.83092 244.617 3.62225C243.669 4.35631 242.922 5.31859 242.077 6.17437C241.231 7.03016 240.23 7.80984 239.048 8.02283C238.297 8.15596 237.451 8.07608 236.852 8.55153C236.158 9.10303 236.151 10.0729 236.155 11.0048C236.834 10.9853 237.503 11.1694 238.077 11.5334C237.374 11.5511 236.695 11.7907 236.136 12.218C236.125 12.2247 236.115 12.2324 236.105 12.2409C235.901 13.8079 235.984 14.1388 234.744 15.1163Z" fill="#2F2E41"/>
<path d="M272.605 50.5009C272.355 49.2968 271.859 48.1575 271.149 47.1545C270.439 46.1514 269.53 45.3062 268.48 44.6719C268.402 44.2689 268.262 44.0112 268.048 43.9349C264.99 42.8441 256.451 37.8048 256.451 37.8048L255.735 32.0424L240.284 31.2976L236.33 37.8048C236.33 37.8048 226.088 38.8376 226.278 42.5987C223.798 45.7023 212.756 59.57 206.138 68.7409C202.976 73.124 200.822 76.4355 201.098 76.9839C202.03 78.8305 200.721 77.5845 199.258 77.9182C197.794 78.2519 198.504 79.1196 198.537 80.3988C198.57 81.6781 193.536 84.3699 193.536 84.3699C196.607 85.4713 200.455 89.9989 200.455 89.9989C200.455 89.9989 204.181 86.0611 204.857 85.6496C205.534 85.238 205.911 84.6373 208.051 83.8921C210.191 83.1468 209.293 82.5795 209.448 80.9999C209.603 79.4203 210.125 80.5883 213.13 79.1312C216.135 77.674 213.695 78.2301 214.527 76.239C215.359 74.2478 215.093 75.3379 217.798 73.6917C219.425 72.7022 221.04 71.249 223.287 68.7409C224.779 67.0763 226.549 64.9478 228.788 62.1787C228.803 62.1599 228.817 62.1403 228.832 62.1215C228.983 64.3662 229.099 66.6118 229.167 68.7409C229.363 74.7904 229.176 79.8914 228.299 81.2961C227.067 83.2678 224.981 89.8661 223.286 95.6593C222.958 96.7828 222.9 97.9684 223.117 99.1187C223.334 100.269 223.82 101.351 224.535 102.277C225.249 103.202 226.173 103.944 227.229 104.442C228.285 104.94 229.444 105.18 230.611 105.141C241.127 104.794 256.517 103.989 259.516 102.223C261.147 102.457 262.759 102.812 264.338 103.286C264.338 103.286 265.399 97.9625 265.753 97.2527C266.107 96.5428 266.107 95.833 267.522 94.0584C268.937 92.2838 267.876 92.2838 267.168 90.8641C266.461 89.4444 267.522 90.1542 269.291 87.3148C271.06 84.4755 269.291 86.2501 268.937 84.1205C268.584 81.991 268.937 83.0558 270.353 80.2164C271.525 77.8637 272.212 74.7767 273.017 68.7409C273.184 67.4923 273.355 66.1206 273.537 64.5998C274.138 59.5758 273.378 54.2104 272.605 50.5009Z" fill="#6C63FF"/>
<path d="M103.582 189.347C103.346 189.358 103.113 189.296 102.913 189.169C102.714 189.042 102.558 188.857 102.467 188.639C102.376 188.42 102.354 188.179 102.404 187.947C102.454 187.716 102.574 187.506 102.747 187.345L102.826 187.03C102.816 187.005 102.805 186.98 102.795 186.955C102.557 186.392 102.159 185.912 101.651 185.575C101.142 185.238 100.545 185.06 99.9361 185.062C99.3267 185.064 98.7315 185.247 98.2254 185.588C97.7193 185.928 97.3247 186.411 97.0913 186.976C96.1584 189.23 94.9707 191.487 94.6783 193.871C94.5495 194.924 94.6038 195.992 94.8389 197.027C92.6478 192.232 91.5101 187.021 91.5028 181.746C91.5023 180.423 91.5756 179.1 91.7223 177.785C91.8436 176.706 92.0118 175.636 92.227 174.573C93.4014 168.805 95.9228 163.4 99.5841 158.799C101.356 157.829 102.789 156.338 103.69 154.526C104.017 153.874 104.247 153.179 104.375 152.461C104.175 152.487 103.622 149.433 103.772 149.246C103.494 148.822 102.995 148.611 102.691 148.197C101.178 146.139 99.0929 146.498 98.0046 149.295C95.6796 150.472 95.6571 152.425 97.0837 154.302C97.9913 155.497 98.116 157.113 98.9123 158.392C98.8304 158.497 98.7452 158.599 98.6633 158.704C97.1656 160.636 95.8603 162.71 94.766 164.898C95.0321 162.447 94.7145 159.969 93.8393 157.665C92.9523 155.519 91.2898 153.711 89.8257 151.855C88.0671 149.626 84.461 150.599 84.1511 153.424C84.1481 153.452 84.1452 153.479 84.1424 153.506C84.3598 153.63 84.5727 153.76 84.781 153.898C85.0426 154.074 85.2454 154.324 85.3627 154.617C85.4799 154.91 85.5063 155.232 85.4382 155.54C85.3701 155.848 85.2108 156.129 84.9812 156.344C84.7516 156.56 84.4623 156.702 84.1513 156.75L84.1194 156.755C84.1969 157.541 84.3338 158.32 84.5291 159.085C82.6508 166.372 86.7058 169.026 92.4957 169.145C92.6235 169.211 92.7481 169.277 92.8759 169.339C91.7765 172.465 91.0869 175.72 90.8244 179.024C90.6758 180.973 90.6846 182.931 90.8506 184.879L90.8408 184.81C90.4213 182.644 89.2695 180.69 87.58 179.277C85.0707 177.209 81.5256 176.448 78.8185 174.786C78.5308 174.601 78.1962 174.502 77.8543 174.501C77.5124 174.5 77.1774 174.597 76.8888 174.781C76.6003 174.965 76.3701 175.228 76.2255 175.539C76.081 175.849 76.028 176.195 76.0729 176.535C76.0765 176.559 76.0802 176.584 76.084 176.608C76.4875 176.773 76.8804 176.963 77.2604 177.177C77.4779 177.3 77.6908 177.43 77.8991 177.568C78.1607 177.744 78.3635 177.994 78.4807 178.287C78.598 178.58 78.6243 178.902 78.5562 179.21C78.4882 179.518 78.3289 179.799 78.0993 180.015C77.8696 180.23 77.5804 180.372 77.2694 180.42L77.2375 180.425C77.2145 180.428 77.1949 180.431 77.172 180.435C77.8615 182.086 78.8293 183.606 80.0329 184.929C81.2073 191.289 86.2514 191.893 91.647 190.041H91.6502C92.2422 192.621 93.1 195.133 94.2097 197.536H103.353C103.386 197.434 103.415 197.329 103.445 197.227C102.598 197.28 101.749 197.23 100.915 197.076C101.593 196.241 102.271 195.399 102.95 194.564C102.965 194.549 102.979 194.532 102.992 194.515C103.336 194.088 103.684 193.663 104.028 193.236L104.028 193.236C104.046 191.926 103.897 190.619 103.582 189.347L103.582 189.347Z" fill="#F2F2F2"/>
<path d="M33.2557 175.474L35.7785 178.149L47.4924 169.443L43.7692 165.495L33.2557 175.474Z" fill="#C78F8F"/>
<path d="M37.39 176.953L34.534 174.262L33.8327 173.603L26.5618 179.434L28.4532 181.44L30.6795 180.007L29.6567 182.716L34.6713 188.033C34.9116 188.288 35.2269 188.459 35.571 188.522C35.9152 188.584 36.2703 188.535 36.5846 188.381C36.8988 188.226 37.1556 187.976 37.3176 187.665C37.4797 187.354 37.5384 186.999 37.4852 186.652L36.4029 179.628L38.31 177.819L37.39 176.953Z" fill="#2F2E41"/>
<path d="M88.6991 78.0856L87.8993 86.8451C87.8993 86.8451 86.5032 93.4446 87.4699 92.9097C88.4366 92.3748 86.7033 94.7824 87.1598 96.8701C87.6163 98.9578 83.2606 114.527 85.2334 112.914C87.2062 111.301 84.0933 122.443 82.1245 127.94C81.5217 129.639 80.9023 131.359 80.2789 133.066C80.1559 133.412 80.0328 133.753 79.9058 134.099C79.0977 136.321 78.2897 138.509 77.5147 140.575C77.4039 140.863 77.2972 141.151 77.1906 141.435C77.1864 141.443 77.1864 141.451 77.1824 141.451C74.6313 148.187 72.4452 153.486 71.5717 154.362C71.1165 154.819 63.894 160.053 56.614 165.294C48.9732 170.795 41.2707 176.308 41.2707 176.308L34.0769 168.738C34.0769 168.738 34.2491 168.689 34.5732 168.59C35.172 168.417 36.2794 168.092 37.7313 167.66C43.7848 165.87 36.0948 163.085 41.5908 161.093C43.141 160.534 44.1746 160.098 44.4083 159.867C45.7741 158.53 47.6075 155.342 48.4728 156.679C49.3381 158.016 53.2633 148.08 54.3952 147.096C55.0022 146.566 56.9832 144.085 58.6812 141.904C60.1411 140.028 61.3961 138.37 61.3961 138.37C61.3961 138.37 61.4208 137.481 61.4576 136.066C61.5111 133.971 61.589 130.717 61.6711 127.458C61.6669 127.454 61.6669 127.454 61.6711 127.454C61.6997 126.228 61.7284 125.002 61.7572 123.838C61.7777 122.936 61.7981 122.068 61.8187 121.266C61.872 118.863 61.9088 117.045 61.9088 116.592C61.9088 115.107 61.9088 116.263 63.0778 115.366C63.2523 115.228 63.4181 115.08 63.574 114.922C63.8239 114.696 64.0545 114.45 64.2631 114.185C64.3493 114 63.8119 114.251 63.1146 114.111C62.737 114.035 62.3878 113.856 62.1057 113.593C60.6374 112.268 62.2206 108.195 62.2206 108.195C58.8821 101.496 59.1242 96.0037 60.6866 91.77C61.855 88.7319 63.7096 86.0068 66.1045 83.8088C67.0161 82.9374 68.0092 82.1561 69.07 81.4757L69.1726 80.9204L70.3004 74.7941C70.9002 74.4635 71.524 74.1788 72.1665 73.9424C74.1698 73.2213 76.3193 73.0065 78.4251 73.317C80.5179 73.6208 82.5441 74.2789 84.4173 75.2631C85.9485 76.0348 87.3854 76.982 88.6991 78.0856Z" fill="#2F2E41"/>
<path d="M57.1989 189.121L60.8536 189.462L63.9333 175.167L58.5388 174.664L57.1989 189.121Z" fill="#C78F8F"/>
<path d="M67.7245 194.724L62.2942 190.162L62.5403 187.537L61.2773 187.496L57.3645 187.368H57.3603L56.4007 187.335L54.7723 196.527L57.5161 196.782L58.2421 194.231L59.2552 196.946L60.7071 197.082L66.5187 197.625C66.568 197.629 66.6213 197.633 66.6705 197.633C66.9016 197.634 67.13 197.585 67.3407 197.49C67.5515 197.395 67.7396 197.256 67.8927 197.082C68.1306 196.821 68.2762 196.488 68.3069 196.136C68.3309 195.871 68.2905 195.604 68.189 195.358C68.0876 195.112 67.9282 194.895 67.7245 194.724Z" fill="#2F2E41"/>
<path d="M77.5147 140.575C76.1243 148.166 70.2388 165.965 66.6789 176.383C65.0588 181.143 63.9269 184.365 63.9269 184.365L62.0813 183.78H62.0771L58.956 182.793L57.8199 182.431H57.8157L56.4377 181.991C56.4377 181.991 56.5977 173.49 56.6141 165.294C56.6263 161.859 56.6099 158.473 56.5444 155.79C56.4705 152.865 56.3434 150.771 56.1343 150.355C55.2688 148.651 56.7167 148.47 58.2465 148.043C59.7803 147.611 58.5827 146.96 57.9879 145.578C57.5862 144.656 58.3776 143.426 58.9396 142.727C59.0946 142.53 59.2603 142.342 59.4358 142.163C59.4358 142.163 59.1651 142.068 58.6813 141.904C60.1412 140.028 61.3962 138.37 61.3962 138.37C61.3962 138.37 61.4209 137.481 61.4577 136.066C61.5112 133.971 61.5891 130.717 61.6712 127.458C61.667 127.454 61.667 127.454 61.6712 127.454C61.6998 126.228 61.7285 125.002 61.7573 123.838C64.1032 125.644 66.3836 127.413 68.4507 129.051C68.4532 129.053 68.4553 129.055 68.4567 129.058C68.4581 129.061 68.4589 129.064 68.4589 129.067C73.4256 133.004 77.1539 136.164 77.6788 137.168C77.9167 137.621 77.8346 138.831 77.5147 140.575Z" fill="#2F2E41"/>
<path d="M296.601 197.904H1.00193C0.893159 197.904 0.788839 197.861 0.711923 197.784C0.635007 197.707 0.591797 197.602 0.591797 197.493C0.591797 197.384 0.635007 197.279 0.711923 197.202C0.788839 197.125 0.893159 197.081 1.00193 197.081H296.601C296.709 197.081 296.814 197.125 296.891 197.202C296.968 197.279 297.011 197.384 297.011 197.493C297.011 197.602 296.968 197.707 296.891 197.784C296.814 197.861 296.709 197.904 296.601 197.904Z" fill="#E6E6E6"/>
<path d="M68.2294 63.2786L68.998 70.4302L68.546 79.8081L89.2518 77.3403L91.1971 63.2786L88.7182 63.3032L68.2294 63.2786Z" fill="#FFB6B6"/>
<path d="M85.8421 40.1795L78.0495 34.0079L73.9589 33.7693L67.8891 37.6701L66.4029 45.2765L62.8878 53.8419L68.0434 76.9573C68.0434 76.9573 68.527 78.6161 67.2598 78.8153C65.9927 79.0145 66.1447 81.4595 66.1447 81.4595C66.1447 81.4595 66.4027 83.5786 65.1723 83.7652C63.9419 83.9518 60.6609 83.9518 63.5319 87.6548C66.4029 91.3577 89.1104 77.3525 89.1104 77.3525L92.4086 59.9921C92.4086 59.9921 98.8047 51.374 91.9165 46.4383L85.8421 40.1795Z" fill="#6C63FF"/>
<path d="M51.8235 92.6621C51.4802 92.2323 51.2349 91.7321 51.1051 91.1969C50.9752 90.6617 50.9639 90.1045 51.072 89.5645C51.18 89.0244 51.4048 88.5147 51.7305 88.0712C52.0562 87.6277 52.4748 87.2613 52.9569 86.9977L62.7588 53.9983L68.8878 57.0938L58.2134 88.7234C58.6011 89.5652 58.6676 90.5205 58.4002 91.4082C58.1327 92.2959 57.55 93.0544 56.7624 93.5399C55.9747 94.0254 55.0369 94.2042 54.1267 94.0424C53.2164 93.8806 52.3969 93.3895 51.8235 92.6621L51.8235 92.6621Z" fill="#C78F8F"/>
<path d="M69.2968 37.3647C69.2968 37.3647 67.5447 36.4306 66.3463 40.4727C65.3869 43.7087 57.6019 62.9838 57.5026 67.6701C56.8619 67.8063 56.2846 68.1524 55.8617 68.654C55.4387 69.1556 55.1941 69.7841 55.1664 70.4405L64.7918 71.7344C66.4738 70.3113 66.9151 68.3892 66.2643 67.8187L68.3542 62.0926L77.0731 43.8743L70.5752 38.0173L69.2968 37.3647Z" fill="#6C63FF"/>
<path d="M120.728 81.8152C120.853 81.2787 120.858 80.7213 120.745 80.1824C120.631 79.6435 120.401 79.1362 120.071 78.6961C119.74 78.2561 119.318 77.894 118.833 77.6354C118.348 77.3768 117.813 77.228 117.265 77.1995L94.7794 51.4379L90.0096 57.1474L113.269 81.0358C113.282 81.9631 113.634 82.8533 114.258 83.5377C114.882 84.2221 115.734 84.6532 116.654 84.7493C117.573 84.8454 118.496 84.5997 119.247 84.059C119.998 83.5182 120.525 82.7198 120.728 81.8152L120.728 81.8152Z" fill="#C78F8F"/>
<path d="M81.1363 39.5358C81.1363 39.5358 82.3134 37.9334 85.1364 41.0582C87.3964 43.5597 102.725 57.5621 104.835 61.7444C105.471 61.5893 106.141 61.651 106.738 61.9197C107.336 62.1885 107.827 62.6491 108.135 63.2289L100.014 68.5713C97.8841 68.0178 96.6577 66.4761 96.9985 65.6794L92.6458 61.4231L76.9309 48.7788L80.265 40.6788L81.1363 39.5358Z" fill="#6C63FF"/>
<path d="M189.411 93.445C188.762 93.22 188.226 92.7499 187.917 92.1346C187.608 91.5193 187.551 90.8074 187.758 90.1504C187.802 90.0176 187.857 89.8886 187.922 89.7648L181.712 82.9599L184.045 78.5839L191.547 88.8283C192.038 89.1396 192.412 89.6051 192.612 90.1521C192.811 90.6992 192.824 91.297 192.649 91.8523C192.546 92.1674 192.383 92.4591 192.168 92.7107C191.953 92.9624 191.691 93.1691 191.396 93.3191C191.101 93.469 190.78 93.5593 190.451 93.5848C190.122 93.6102 189.79 93.5703 189.476 93.4674C189.454 93.4602 189.433 93.4528 189.411 93.445Z" fill="#FFB6B6"/>
<path d="M149.597 41.7587C149.392 42.7196 149.37 43.7108 149.533 44.6798C149.576 44.954 149.635 45.2254 149.71 45.4925C149.988 46.4908 150.253 47.4107 150.508 48.2407C150.657 48.7562 150.812 49.242 150.959 49.6929C151.809 52.3251 152.472 53.8154 152.943 54.129C153.171 54.2824 153.4 54.4229 153.622 54.56C154.76 55.2588 155.585 55.7653 155.034 57.0549C154.953 57.2391 154.858 57.4164 154.749 57.585C154.566 57.8683 154.364 58.1386 154.144 58.3941C154.019 58.5385 153.903 58.6911 153.798 58.8509C153.661 59.0549 153.601 59.2267 153.675 59.3823C153.769 59.5738 154.027 59.669 154.583 59.6959C154.671 59.6998 154.772 59.7052 154.88 59.7049C154.915 59.7072 154.952 59.7057 154.992 59.7061C155.064 59.707 155.145 59.7077 155.227 59.7045C155.913 59.6914 156.799 60.0538 157.746 60.6071C160.543 62.2411 163.838 65.53 163.878 65.5709L184.455 86.6771L184.855 86.4078L185.808 85.766L186.137 85.5454L186.513 85.2919L188.149 84.1932L188.976 83.6389L183.669 73.8636L183.091 72.8011L182.596 71.8842L172.464 53.2179L168.44 46.8007L167.541 45.3709L163.714 39.2738C163.174 38.4111 162.469 37.6636 161.641 37.074C160.812 36.4844 159.876 36.0643 158.886 35.8376C157.896 35.6109 156.871 35.5821 155.87 35.7528C154.868 35.9235 153.91 36.2904 153.05 36.8325C152.992 36.8691 152.935 36.9064 152.878 36.9445C151.203 38.0618 150.027 39.788 149.597 41.7587Z" fill="#6C63FF"/>
<path d="M150.963 189.252L147.193 189.22L145.524 174.294L151.088 174.341L150.963 189.252Z" fill="#FFB6B6"/>
<path d="M151.963 187.508L150.979 187.442L146.963 187.166L145.671 187.08L145.647 189.783L139.626 193.881C139.329 194.084 139.104 194.376 138.984 194.716C138.864 195.057 138.856 195.426 138.96 195.771C139.065 196.116 139.276 196.419 139.564 196.635C139.852 196.85 140.201 196.968 140.561 196.971L148.054 197.033L149.367 194.367L149.847 197.049L152.676 197.074L151.963 187.508Z" fill="#2F2E41"/>
<path d="M190.652 186.489L187.049 187.6L180.967 173.876L186.285 172.236L190.652 186.489Z" fill="#FFB6B6"/>
<path d="M191.082 184.525L190.122 184.76L186.214 185.71L184.954 186.019L185.746 188.607L181.238 194.334C181.016 194.617 180.889 194.964 180.877 195.324C180.864 195.684 180.967 196.039 181.17 196.337C181.373 196.634 181.665 196.859 182.004 196.978C182.344 197.098 182.712 197.105 183.055 197L190.22 194.79L190.667 191.849L191.935 194.26L194.638 193.424L191.082 184.525Z" fill="#2F2E41"/>
<path d="M143.38 63.7411L136.187 84.7138L135.949 86.3921C134.136 88.1186 136.413 88.6874 135.56 89.1427C134.706 89.5981 134.132 90.8744 135.282 91.1025C136.433 91.3305 140.142 173.132 145.036 176.309C149.929 179.485 152.907 181.782 152.008 177.131C151.646 175.258 152.158 165.211 152.899 153.882C152.983 152.598 154.309 151.239 153.158 149.99C152.008 148.742 153.3 147.921 153.372 146.885C154.405 132.091 155.596 117.485 155.596 117.485C155.596 117.485 163.222 143.758 165.203 141.724C167.183 139.69 166.399 144.698 167.004 146.194C167.51 147.445 165.352 149.901 168.523 149.939C171.695 149.976 179.142 175.515 179.897 175.486C181.394 175.428 185.602 175.59 188.1 175.074C189.334 174.819 183.857 155.484 179.284 138.788C178.919 137.457 176.934 137.426 178.211 134.855C179.487 132.285 173.135 115.652 173.68 114.882C175.127 112.84 175.678 111.953 174.251 111.819C172.825 111.685 172.403 112.471 172.326 110.49C172.249 108.509 172.003 103.625 172.003 103.625C172.003 103.625 170.969 84.3085 163.732 73.6363L163.115 67.2952L143.38 63.7411Z" fill="#2F2E41"/>
<path d="M161.353 23.6992L151.813 25.0618L151.237 31.9917L146.529 39.3792C146.529 39.3792 136.065 46.7666 143.363 58.4364C140.586 68.4891 137.825 78.13 135.192 84.5575C133.141 97.3122 151.513 98.5346 172.515 94.0207C172.515 94.0207 172.225 88.567 170.319 85.9451C168.413 83.3232 169.451 82.7508 169.451 82.7508L168.119 77.8526C168.873 70.7723 166.328 70.1369 165.132 66.8657L168.763 32.9242L161.353 23.6992Z" fill="#6C63FF"/>
<path d="M115.555 83.0253C115.656 82.3439 116.019 81.729 116.565 81.3114C117.111 80.8938 117.798 80.7065 118.48 80.7892C118.618 80.8083 118.754 80.8387 118.888 80.8803L124.414 73.5057L129.131 75.0021L120.472 84.2834C120.257 84.8245 119.87 85.279 119.37 85.5761C118.871 85.8732 118.287 85.9961 117.711 85.9256C117.05 85.8382 116.45 85.4907 116.044 84.9597C115.637 84.4286 115.458 83.7575 115.545 83.0939C115.548 83.071 115.552 83.0481 115.555 83.0253Z" fill="#FFB6B6"/>
<path d="M164.64 37.1104C164.505 36.9417 164.357 36.7772 164.201 36.6166C163.118 35.4966 161.723 34.7309 160.199 34.4196C158.674 34.1083 157.092 34.2661 155.658 34.8722C155.519 34.9297 155.379 34.9956 155.244 35.0615C150.343 37.4765 147.697 39.0853 147.377 39.8382C147.267 40.0934 147.172 40.3443 147.078 40.587C146.988 40.8256 146.902 41.0518 146.812 41.2576C146.434 42.1381 145.999 42.6853 144.892 42.4384C144.525 42.3484 144.171 42.2115 143.838 42.0312C143.686 41.9571 143.547 41.8789 143.415 41.8048C142.94 41.5416 142.595 41.3524 142.361 41.5252C142.136 41.6937 142.128 42.1216 142.333 43.1133C142.401 43.5271 142.39 43.9501 142.3 44.3598C142.029 45.555 141.604 46.7098 141.037 47.7954C140.187 49.497 139.23 51.1433 138.174 52.7244L128.417 66.6804L127.757 67.6226L127.035 68.6555L121.276 76.8925L121.617 77.242L123.044 78.7028L123.36 79.0278L123.647 79.3239L124.389 80.0851L125.086 80.7969L140.643 68.0835L142.378 66.6639L145.487 64.1214L151.856 58.9167L163.91 47.7255C164.671 47.0247 165.283 46.1769 165.709 45.2331C166.136 44.2892 166.368 43.2687 166.391 42.2327C166.391 42.1628 166.396 42.0969 166.396 42.027C166.4 40.2329 165.779 38.4937 164.64 37.1104Z" fill="#6C63FF"/>
<path d="M155.625 23.4469C161.513 23.4469 166.286 18.659 166.286 12.7528C166.286 6.84667 161.513 2.05878 155.625 2.05878C149.738 2.05878 144.965 6.84667 144.965 12.7528C144.965 18.659 149.738 23.4469 155.625 23.4469Z" fill="#FFB6B6"/>
<path d="M169.753 27.5816C171.183 29.6357 172.14 31.9835 172.554 34.4547C171.401 35.1947 170.059 35.5834 168.69 35.5736C168.644 35.3938 168.597 35.214 168.544 35.0342C168.148 33.6417 167.558 32.3122 166.792 31.0848C166.897 32.4084 166.718 33.7392 166.267 34.9876C165.544 34.6578 164.769 34.4572 163.977 34.3948C163.332 34.3948 162.695 34.5453 162.118 34.8344C161.447 32.6033 160.83 30.552 160.392 29.0801C160.378 32.7698 154.988 35.9866 149.106 35.5204C148.893 35.3872 151.024 29.3199 150.818 29.1801C150.347 28.8671 149.889 28.5274 149.431 28.1944C151.356 25.2107 153.447 22.0139 153.089 21.5344C153.115 22.1272 151.004 24.9776 148.707 27.6682C147.433 26.7292 154.676 11.4512 151.097 10.2124C151.037 10.7519 150.247 10.7519 149.285 10.6387C149.031 9.74862 148.653 8.89887 148.163 8.11454C148.227 8.90463 148.132 9.69952 147.884 10.4522C146.933 10.4525 145.986 10.5529 145.056 10.7519C144.841 10.4124 144.603 10.0875 144.345 9.77954C144.371 10.1549 144.36 10.5319 144.312 10.9051C143.363 11.1115 142.58 11.3513 142.467 11.5444C141.723 11.2714 142.991 10.0393 142.526 9.39992C141.345 7.80155 143.097 5.47056 144.206 3.81886C146.483 0.435611 151.482 -0.736552 155.021 1.29473C155.18 0.741939 155.997 0.375656 157.046 0.129237C157.49 0.0309367 157.945 -0.0115745 158.4 0.0026898C162.915 0.0826037 169.182 3.81885 169.427 8.341C169.447 8.79387 169.48 9.2867 169.514 9.81283C169.832 14.8744 169.441 19.5431 172.886 23.246C174.134 24.5847 174.148 30.925 173.67 34.1884C172.428 32.8763 171.545 27.7748 169.753 27.5816Z" fill="#2F2E41"/>
<path d="M66.876 17.1995C65.9396 19.539 63.2979 24.1397 62.9401 26.6495L63.1011 26.4906C63.4083 27.0171 63.7574 27.5178 64.145 27.9879C64.8397 27.256 65.6787 26.6773 66.6087 26.2886C66.1009 27.3338 65.8068 28.4704 65.7437 29.6314C66.7407 32.7664 71.3495 31.3703 74.0498 31.028C76.7464 34.1223 80.3341 34.9298 85.0321 33.1508C86.3461 33.2865 87.817 33.3689 88.7377 32.59C89.6584 31.8112 89.1101 30.3688 89.6055 29.2778C93.134 21.507 89.8776 18.7033 87.1109 15.1797C86.5021 14.4043 86.5046 13.2472 85.7637 12.5073C84.7358 11.4819 83.1601 11.1664 81.7073 10.9137C82.0847 10.9337 82.4608 10.8558 82.7995 10.6877C83.1383 10.5196 83.4281 10.2668 83.6412 9.9537C83.8282 9.63827 83.9246 9.27717 83.92 8.91023C83.9154 8.54329 83.8098 8.18477 83.6149 7.8742C83.0953 7.01009 82.0157 6.50759 80.9741 6.38206C79.9479 6.31216 78.9171 6.40105 77.9178 6.64562C77.2706 6.73102 76.6438 6.93201 76.0671 7.23905C75.795 7.38467 75.5737 7.61015 75.4328 7.88533C75.2919 8.16051 75.2381 8.47228 75.2786 8.77897C75.3654 9.06218 75.5148 9.32208 75.7157 9.53929C75.9165 9.7565 76.1637 9.9254 76.4388 10.0334C76.8581 10.2113 77.2992 10.3324 77.7504 10.3936C75.678 10.1238 73.5729 10.4935 71.715 11.4533C69.3867 12.6992 67.8156 14.8613 66.876 17.1995Z" fill="#2F2E41"/>
<path d="M79.4832 30.3155C84.0798 30.3155 87.806 26.5775 87.806 21.9663C87.806 17.3551 84.0798 13.6171 79.4832 13.6171C74.8867 13.6171 71.1604 17.3551 71.1604 21.9663C71.1604 26.5775 74.8867 30.3155 79.4832 30.3155Z" fill="#C78F8F"/>
<path d="M71.4744 17.4896C71.957 18.9527 73.336 19.4241 74.6106 19.7181C75.0125 19.8121 75.4169 19.8997 75.825 19.9776C75.9756 19.7887 76.1357 19.6037 76.303 19.4287C76.9976 18.6968 77.8367 18.1181 78.7666 17.7294C78.3645 18.555 78.0972 19.4401 77.9751 20.3508C78.7456 20.463 79.5204 20.5546 80.2995 20.6258C80.9587 20.7665 81.6465 20.6478 82.221 20.2943C82.7954 19.9407 83.2124 19.3793 83.386 18.726C84.0952 19.8895 84.9338 20.9852 86.0807 21.4474C86.7365 21.6838 87.4505 21.7032 88.1181 21.5029C88.7858 21.3025 89.3719 20.8929 89.7905 20.334C90.4518 19.4224 90.9103 18.379 91.135 17.2743C91.4605 15.9787 91.6412 14.4862 91.0022 13.6642C90.4903 12.9989 89.6073 12.9869 88.7924 13.046C86.994 13.1844 85.2146 13.508 83.4823 14.0117L83.3356 14.3425C83.6334 12.5483 82.9876 10.8221 81.7928 10.2081C80.9868 9.79765 80.0172 9.86647 79.0751 9.94974C77.865 10.0039 76.6693 10.2359 75.5263 10.6382C74.2151 11.1442 73.0917 12.0442 72.3099 13.2152C71.4737 14.4889 71.0581 16.226 71.4744 17.4896Z" fill="#2F2E41"/>
<path d="M83.3392 9.68597C83.2571 9.66165 83.4699 9.69289 83.3961 9.69488C83.4328 9.69275 83.4692 9.68764 83.505 9.67958C83.5111 9.67835 83.594 9.65183 83.5389 9.67133C83.6625 9.63425 83.7728 9.56206 83.8564 9.46348C84.0519 9.22095 84.2053 8.94711 84.3101 8.65346C84.4424 8.2654 84.655 7.90979 84.9339 7.60997C85.0131 7.5302 85.1099 7.47028 85.2165 7.43508C85.3231 7.39988 85.4364 7.39038 85.5473 7.40737C85.6583 7.42435 85.7637 7.46734 85.8549 7.53284C85.9462 7.59834 86.0208 7.6845 86.0726 7.78433C86.1779 8.16948 86.1418 8.57974 85.971 8.94047C85.8517 9.30753 85.6742 9.65289 85.4452 9.96322C85.0616 10.4707 84.5391 10.8553 83.9414 11.07C83.2496 11.3221 82.4952 11.3437 81.7902 11.1317C81.697 11.0929 81.6171 11.0278 81.5602 10.9443C81.5033 10.8608 81.4718 10.7625 81.4696 10.6614C81.4674 10.5602 81.4946 10.4606 81.5478 10.3747C81.601 10.2888 81.678 10.2202 81.7694 10.1774L82.9453 9.69458C83.0071 9.667 83.0738 9.65192 83.1414 9.65021C83.2091 9.64849 83.2764 9.66018 83.3396 9.6846C83.4028 9.70901 83.4605 9.74568 83.5095 9.79251C83.5585 9.83933 83.5979 9.89539 83.6253 9.95747C83.6527 10.0196 83.6676 10.0865 83.6692 10.1543C83.6708 10.2222 83.6591 10.2898 83.6347 10.3531C83.6102 10.4164 83.5736 10.4743 83.5269 10.5234C83.4801 10.5725 83.4242 10.6119 83.3622 10.6393L83.36 10.6402L82.1842 11.1231L82.1634 10.1688C82.3101 10.2113 82.4611 10.2372 82.6135 10.246C82.7762 10.2624 82.9403 10.2554 83.1011 10.2254C83.255 10.2051 83.4062 10.1681 83.5522 10.115C83.6456 10.0808 83.7373 10.0418 83.8268 9.99824C83.8594 9.9824 83.8916 9.96596 83.9235 9.9489C83.9212 9.95014 84.058 9.87022 83.998 9.90776C84.1501 9.81027 84.2928 9.69877 84.4242 9.57471C84.4707 9.53072 84.5134 9.48299 84.5521 9.43201C84.619 9.34945 84.6812 9.26304 84.7381 9.17321C84.8539 8.98299 84.9457 8.77903 85.0112 8.56605C85.0411 8.47654 85.0663 8.38553 85.0868 8.29339C85.0925 8.24281 85.1016 8.19268 85.1141 8.14334C85.1577 8.0258 85.1058 8.21198 85.156 8.26292L85.3728 8.42315C85.4135 8.43531 85.4564 8.43813 85.4983 8.4314C85.5402 8.42466 85.5801 8.40854 85.615 8.38423C85.6407 8.34799 85.6351 8.354 85.5982 8.40227C85.5553 8.45909 85.516 8.51858 85.4805 8.58039C85.4028 8.72589 85.3326 8.87527 85.27 9.02792C85.1406 9.35259 84.9771 9.66246 84.7821 9.95228C84.5911 10.2454 84.3126 10.4706 83.9865 10.5957C83.6604 10.7207 83.3033 10.7394 82.966 10.6489C82.8395 10.5983 82.7378 10.4999 82.6829 10.3748C82.628 10.2497 82.6244 10.108 82.6727 9.98021C82.7244 9.8543 82.8227 9.75335 82.947 9.6985C83.0712 9.64366 83.2118 9.63917 83.3392 9.68597Z" fill="#2F2E41"/>
</g>
<defs>
<clipPath id="clip0_105_119">
<rect width="296.419" height="197.906" fill="white" transform="translate(0.591553)"/>
</clipPath>
</defs>
</svg>
