<svg width="291" height="195" viewBox="0 0 291 195" fill="none" xmlns="http://www.w3.org/2000/svg">
<g clip-path="url(#clip0_105_184)">
<path opacity="0.1" d="M285.669 155.372C278.48 168.967 263.874 178.058 248.743 184.053C236.628 188.821 223.822 191.953 210.726 193.349C208.217 193.622 205.701 193.834 203.176 193.984C196.725 194.37 190.254 194.363 183.804 193.965C179.924 193.728 176.058 193.35 172.205 192.831C158.818 191.041 145.767 187.559 133.425 182.483C129.862 181.013 126.372 179.408 122.955 177.668C117.246 174.769 111.776 171.491 106.589 167.861C105.442 167.057 104.308 166.236 103.19 165.398L102.729 165.053C101.85 164.388 100.978 163.708 100.093 163.049C98.6217 161.919 97.06 160.893 95.421 159.978C95.31 159.918 95.199 159.859 95.0854 159.802C94.7822 159.64 94.4736 159.489 94.1596 159.345C93.5128 159.046 92.8496 158.778 92.1728 158.542C89.0465 157.45 85.6981 157.053 82.3038 157.12C81.7408 157.12 81.1778 157.155 80.612 157.19C79.8217 157.239 79.0286 157.314 78.2382 157.408L77.9458 157.445C75.4272 157.772 72.937 158.262 70.494 158.911C66.7207 159.903 63.0151 161.144 59.2851 162.262C57.7016 162.741 56.1154 163.197 54.5157 163.607L54.1638 163.696C51.8886 164.282 49.5726 164.727 47.2317 165.025C41.9121 165.649 36.5092 165.25 31.3671 163.855L31.1884 163.808L30.8582 163.718L30.4061 163.589C29.6482 163.371 28.8966 163.132 28.1514 162.872L27.6993 162.714C26.9775 162.459 26.271 162.185 25.5799 161.893L25.1279 161.704C24.406 161.397 23.6996 161.072 23.0084 160.729C22.7594 160.61 22.5131 160.481 22.2695 160.36C21.5332 159.983 20.8114 159.588 20.104 159.174C19.3533 158.736 18.6189 158.279 17.9007 157.802C17.5686 157.584 17.2402 157.36 16.9154 157.13C15.0429 155.818 13.2895 154.369 11.6723 152.797C11.583 152.715 11.4991 152.631 11.4152 152.549C10.9848 152.122 10.5625 151.688 10.1538 151.244C10.0022 151.08 9.85062 150.917 9.70175 150.748C9.21632 150.206 8.74804 149.651 8.29691 149.084C8.22924 149.002 8.16428 148.918 8.09931 148.836C6.24985 146.492 4.71658 143.952 3.53292 141.27C3.49503 141.189 3.45984 141.104 3.42736 141.022C3.06645 140.171 2.73712 139.305 2.43937 138.425C2.31757 138.058 2.20117 137.681 2.09831 137.314C2.06313 137.205 2.03064 137.093 2.00087 136.984C0.50671 131.594 0.336182 125.991 0.336182 120.42C0.336182 119.77 0.336182 119.121 0.336182 118.473C0.379491 109.461 0.531071 100.296 1.98192 91.4089C1.98192 91.3469 2.00087 91.2848 2.0117 91.2253C2.49729 88.2334 3.1578 85.2675 3.99038 82.3404C4.86175 79.2692 5.97537 76.2599 7.32246 73.3365C10.66 66.1432 15.5133 59.5974 20.9025 53.5303C27.3989 46.2304 34.8426 39.4935 43.1336 33.9349C44.3246 33.1362 45.5318 32.3607 46.7553 31.6083L47.321 31.2684C47.5186 31.1469 47.7162 31.0204 47.9138 30.9137C48.3198 30.6657 48.7258 30.4325 49.1373 30.1969L49.5974 29.934L50.4744 29.4379L50.7451 29.2965L51.2134 29.0485L51.6762 28.8004C52.2176 28.5077 52.7653 28.2217 53.3193 27.9422C55.685 26.7334 58.1067 25.6288 60.5844 24.6284C61.3152 24.3324 62.0505 24.0471 62.7904 23.7726C66.1494 22.519 69.6 21.4821 73.1169 20.6696C74.4162 20.3686 75.7235 20.1041 77.0391 19.8759C78.591 19.6014 80.151 19.374 81.7191 19.1937C84.2145 18.906 86.7243 18.7347 89.2386 18.6803C106.92 18.2859 124.779 23.5593 138.635 33.667C144.157 37.6952 149.119 42.4651 155.32 45.5532C160.734 48.242 167.07 49.3557 172.868 47.2399C177.659 45.4912 180.778 44.6231 186.159 44.8885C197.294 45.4632 208.271 47.5669 218.724 51.1292C219.147 51.2706 219.569 51.417 219.988 51.5633C247.249 61.1253 270.687 80.113 282.862 104.513C283.183 105.158 283.496 105.808 283.801 106.463C291.064 122.002 293.684 140.221 285.669 155.372Z" fill="#D3D1E9"/>
<path opacity="0.1" d="M54.5071 69.5637V163.612L54.1553 163.701C51.88 164.287 49.564 164.732 47.2231 165.03C41.9036 165.654 36.5007 165.255 31.3585 163.86L31.1799 163.812L30.8496 163.723L30.3976 163.594C29.6397 163.376 28.8881 163.137 28.1428 162.877L27.6908 162.719C26.969 162.464 26.2625 162.19 25.5713 161.898L25.1193 161.709C24.3975 161.402 23.691 161.077 22.9999 160.734C22.7508 160.615 22.5045 160.486 22.2609 160.365C21.5247 159.988 20.8028 159.592 20.0955 159.179C19.3448 158.741 18.6103 158.284 17.8921 157.807C17.5601 157.589 17.2317 157.365 16.9068 157.135C15.0344 155.823 13.281 154.374 11.6638 152.802C11.5744 152.72 11.4905 152.636 11.4066 152.554C10.9762 152.127 10.554 151.693 10.1452 151.249C9.99365 151.085 9.84207 150.922 9.6932 150.753C9.20778 150.211 8.7395 149.656 8.28836 149.089C8.22069 149.007 8.15573 148.922 8.09076 148.841C6.2413 146.497 4.70804 143.957 3.52438 141.275C3.48648 141.193 3.4513 141.109 3.41881 141.027C3.05791 140.176 2.72858 139.31 2.43083 138.43C2.30902 138.063 2.19263 137.686 2.08977 137.319C2.05458 137.21 2.0221 137.098 1.99232 136.989C0.498165 131.599 0.327637 125.996 0.327637 120.425C0.327637 119.775 0.327637 119.126 0.327637 118.478C0.370946 109.466 0.522526 100.301 1.97338 91.4138C1.97338 91.3518 1.99232 91.2898 2.00315 91.2303C2.48874 88.2383 3.14925 85.2724 3.98183 82.3454H31.6238V69.5637H37.1348V59.2972H48.9961V69.5637H54.5071Z" fill="#6C63FF"/>
<path opacity="0.1" d="M285.669 155.372C278.48 168.967 263.874 178.058 248.743 184.053C236.628 188.821 223.822 191.953 210.725 193.349C208.217 193.622 205.701 193.834 203.176 193.984C196.725 194.37 190.254 194.363 183.804 193.965C179.924 193.728 176.058 193.35 172.205 192.831C158.818 191.041 145.767 187.559 133.424 182.483C129.862 181.013 126.372 179.408 122.954 177.668C117.246 174.769 111.776 171.491 106.589 167.861C105.441 167.057 104.308 166.236 103.189 165.397L102.729 165.053C101.849 164.388 100.978 163.708 100.093 163.049C98.6215 161.919 97.0598 160.893 95.4208 159.978C95.3098 159.918 95.1988 159.859 95.0851 159.802C94.782 159.64 94.4734 159.489 94.1594 159.345C93.5126 159.046 92.8494 158.778 92.1726 158.542V120.068H142.408V128.633H164.455V65.982H190.405V91.0343H203.241V76.2014H213.846V60.3564H218.719V51.1292C219.141 51.2706 219.563 51.4169 219.983 51.5633V60.3564H224.725V76.2113H235.322V91.0442H250.949V147.556H275.786V106.458H283.79C291.064 122.002 293.684 140.221 285.669 155.372Z" fill="#131313"/>
<path opacity="0.1" d="M183.809 75.4101H172.21V86.0387H183.809V75.4101Z" fill="#ECECEC"/>
<path opacity="0.1" d="M183.809 97.4412H172.21V108.07H183.809V97.4412Z" fill="#ECECEC"/>
<path opacity="0.1" d="M183.809 119.475H172.21V130.103H183.809V119.475Z" fill="#ECECEC"/>
<path opacity="0.1" d="M183.809 141.508H172.21V152.137H183.809V141.508Z" fill="#ECECEC"/>
<path opacity="0.1" d="M183.809 163.54H172.21V174.168H183.809V163.54Z" fill="#ECECEC"/>
<path opacity="0.1" d="M183.809 185.568V193.962C179.929 193.726 176.063 193.348 172.21 192.828V185.568H183.809Z" fill="#ECECEC"/>
<path opacity="0.1" d="M136.597 133.804H95.9973V138.619H136.597V133.804Z" fill="#6C63FF"/>
<path opacity="0.1" d="M136.597 148.426H95.9973V153.241H136.597V148.426Z" fill="#6C63FF"/>
<path opacity="0.1" d="M136.597 163.049V167.861H106.594C105.447 167.057 104.313 166.236 103.194 165.397L102.734 165.053C101.855 164.388 100.983 163.708 100.098 163.049H136.597Z" fill="#6C63FF"/>
<path opacity="0.1" d="M136.597 177.668V182.483H133.43C129.868 181.013 126.378 179.408 122.96 177.668H136.597Z" fill="#6C63FF"/>
<path opacity="0.1" d="M210.731 104.19H203.182V111.108H210.731V104.19Z" fill="#ECECEC"/>
<path opacity="0.1" d="M47.2397 71.9499H39.6904V78.8678H47.2397V71.9499Z" fill="#6C63FF"/>
<path opacity="0.1" d="M47.2397 88.0231H39.6904V94.941H47.2397V88.0231Z" fill="#6C63FF"/>
<path opacity="0.1" d="M47.2397 104.094H39.6904V111.012H47.2397V104.094Z" fill="#6C63FF"/>
<path opacity="0.1" d="M47.2397 120.167H39.6904V127.085H47.2397V120.167Z" fill="#6C63FF"/>
<path opacity="0.1" d="M47.2397 136.24H39.6904V143.158H47.2397V136.24Z" fill="#6C63FF"/>
<path opacity="0.1" d="M47.2397 152.311H39.6904V159.229H47.2397V152.311Z" fill="#6C63FF"/>
<path opacity="0.1" d="M239.556 104.19H232.007V111.108H239.556V104.19Z" fill="#ECECEC"/>
<path opacity="0.1" d="M210.731 121.256H203.182V128.174H210.731V121.256Z" fill="#ECECEC"/>
<path opacity="0.1" d="M239.556 121.256H232.007V128.174H239.556V121.256Z" fill="#ECECEC"/>
<path opacity="0.1" d="M210.731 138.324H203.182V145.242H210.731V138.324Z" fill="#ECECEC"/>
<path opacity="0.1" d="M239.556 138.324H232.007V145.242H239.556V138.324Z" fill="#ECECEC"/>
<path opacity="0.1" d="M210.731 155.391H203.182V162.309H210.731V155.391Z" fill="#ECECEC"/>
<path opacity="0.1" d="M239.556 155.391H232.007V162.309H239.556V155.391Z" fill="#ECECEC"/>
<path opacity="0.1" d="M210.731 172.457H203.182V179.375H210.731V172.457Z" fill="#ECECEC"/>
<path opacity="0.1" d="M239.556 172.457H232.007V179.375H239.556V172.457Z" fill="#ECECEC"/>
<path opacity="0.1" d="M203.182 193.984V189.522H210.731V193.349L203.182 193.984Z" fill="#ECECEC"/>
<path opacity="0.1" d="M1.97681 91.2327V95.2014H30.8503V91.2327H1.97681ZM4.54828 94.9534H2.42884V91.4808H4.54828V94.9534ZM7.11974 94.9534H5.00031V91.4808H7.11974V94.9534ZM9.69121 94.9534H7.57178V91.4808H9.69121V94.9534ZM12.2627 94.9534H10.1432V91.4808H12.2627V94.9534ZM14.8341 94.9534H12.7147V91.4808H14.8341V94.9534ZM17.4056 94.9534H15.2862V91.4808H17.4056V94.9534ZM19.9771 94.9534H17.8577V91.4808H19.9771V94.9534ZM22.5486 94.9534H20.4291V91.4808H22.5486V94.9534ZM25.12 94.9534H23.0006V91.4808H25.12V94.9534ZM27.6915 94.9534H25.5721V91.4808H27.6915V94.9534ZM30.3983 94.9534H28.1435V91.4808H30.3983V94.9534Z" fill="#6C63FF"/>
<path opacity="0.1" d="M1.97681 102.757V106.713H30.8503V102.757H1.97681ZM4.54828 106.465H2.42884V103.005H4.54828V106.465ZM7.11974 106.465H5.00031V103.005H7.11974V106.465ZM9.69121 106.465H7.57178V103.005H9.69121V106.465ZM12.2627 106.465H10.1432V103.005H12.2627V106.465ZM14.8341 106.465H12.7147V103.005H14.8341V106.465ZM17.4056 106.465H15.2862V103.005H17.4056V106.465ZM19.9771 106.465H17.8577V103.005H19.9771V106.465ZM22.5486 106.465H20.4291V103.005H22.5486V106.465ZM25.12 106.465H23.0006V103.005H25.12V106.465ZM27.6915 106.465H25.5721V103.005H27.6915V106.465ZM30.3983 106.465H28.1435V103.005H30.3983V106.465Z" fill="#6C63FF"/>
<path opacity="0.1" d="M1.97681 114.278V118.235H30.8503V114.278H1.97681ZM4.54828 117.987H2.42884V114.526H4.54828V117.987ZM7.11974 117.987H5.00031V114.526H7.11974V117.987ZM9.69121 117.987H7.57178V114.526H9.69121V117.987ZM12.2627 117.987H10.1432V114.526H12.2627V117.987ZM14.8341 117.987H12.7147V114.526H14.8341V117.987ZM17.4056 117.987H15.2862V114.526H17.4056V117.987ZM19.9771 117.987H17.8577V114.526H19.9771V117.987ZM22.5486 117.987H20.4291V114.526H22.5486V117.987ZM25.12 117.987H23.0006V114.526H25.12V117.987ZM27.6915 117.987H25.5721V114.526H27.6915V117.987ZM30.3983 117.987H28.1435V114.526H30.3983V117.987Z" fill="#6C63FF"/>
<path opacity="0.1" d="M1.97681 125.79V129.759H30.8503V125.79H1.97681ZM4.54828 129.511H2.42884V126.038H4.54828V129.511ZM7.11974 129.511H5.00031V126.038H7.11974V129.511ZM9.69121 129.511H7.57178V126.038H9.69121V129.511ZM12.2627 129.511H10.1432V126.038H12.2627V129.511ZM14.8341 129.511H12.7147V126.038H14.8341V129.511ZM17.4056 129.511H15.2862V126.038H17.4056V129.511ZM19.9771 129.511H17.8577V126.038H19.9771V129.511ZM22.5486 129.511H20.4291V126.038H22.5486V129.511ZM25.12 129.511H23.0006V126.038H25.12V129.511ZM27.6915 129.511H25.5721V126.038H27.6915V129.511ZM30.3983 129.511H28.1435V126.038H30.3983V129.511Z" fill="#6C63FF"/>
<path opacity="0.1" d="M2.08716 137.322C2.19002 137.694 2.30641 138.066 2.42822 138.433V137.57H4.54765V141.042H3.4162C3.44868 141.124 3.48387 141.208 3.52177 141.29H30.8605V137.322H2.08716ZM7.11912 141.042H4.99969V137.57H7.11912V141.042ZM9.69059 141.042H7.57115V137.57H9.69059V141.042ZM12.2621 141.042H10.1426V137.57H12.2621V141.042ZM14.8335 141.042H12.7141V137.57H14.8335V141.042ZM17.405 141.042H15.2856V137.57H17.405V141.042ZM19.9765 141.042H17.857V137.57H19.9765V141.042ZM22.5479 141.042H20.4285V137.57H22.5479V141.042ZM25.1194 141.042H23V137.57H25.1194V141.042ZM27.6909 141.042H25.5714V137.57H27.6909V141.042ZM30.3977 141.042H28.1429V137.57H30.3977V141.042Z" fill="#6C63FF"/>
<path opacity="0.1" d="M8.08862 148.843C8.15359 148.925 8.21855 149.009 8.28622 149.091H9.69105V150.756C9.83993 150.922 9.99151 151.085 10.1431 151.252V149.094H12.2625V152.566H11.4045C11.4884 152.648 11.5723 152.732 11.6616 152.814H30.8502V148.846L8.08862 148.843ZM14.834 152.564H12.7146V149.091H14.834V152.564ZM17.4055 152.564H15.286V149.091H17.4055V152.564ZM19.9769 152.564H17.8575V149.091H19.9769V152.564ZM22.5484 152.564H20.429V149.091H22.5484V152.564ZM25.1199 152.564H23.0004V149.091H25.1199V152.564ZM27.6913 152.564H25.5719V149.091H27.6913V152.564ZM30.3981 152.564H28.1434V149.091H30.3981V152.564Z" fill="#6C63FF"/>
<path opacity="0.1" d="M22.261 160.365C22.5046 160.491 22.7509 160.613 22.9999 160.734V160.613H25.1194V161.709L25.5714 161.898V160.613H27.6908V162.719L28.1429 162.877V160.613H30.3977V163.589L30.8497 163.718V160.365H22.261Z" fill="#6C63FF"/>
<path opacity="0.1" d="M111.293 56.8763C111.293 56.8763 104.84 56.5191 105.609 60.6614C105.57 60.872 105.604 61.0885 105.707 61.2801C105.81 61.4717 105.977 61.6285 106.183 61.728C106.183 61.728 106.183 61.4205 106.843 61.5246C107.075 61.5595 107.31 61.5695 107.544 61.5544C107.861 61.5353 108.162 61.4221 108.402 61.2319C108.402 61.2319 110.216 60.5449 110.922 57.8288C110.922 57.8288 111.442 57.236 111.423 57.0847L110.341 57.5113C110.341 57.5113 110.714 58.2306 110.422 58.8284C110.422 58.8284 110.387 57.5386 110.175 57.5684C110.135 57.5684 109.61 57.8164 109.61 57.8164C109.61 57.8164 110.251 59.0715 109.767 59.9818C109.767 59.9818 109.951 58.439 109.412 57.9082L108.627 58.3224C108.627 58.3224 109.377 59.6172 108.868 60.6738C108.868 60.6738 109.001 59.0541 108.467 58.4241L107.772 58.9202C107.772 58.9202 108.476 60.1951 108.042 61.0732C108.042 61.0732 107.986 59.1856 107.617 59.0417C107.353 59.2458 107.118 59.479 106.916 59.7362C106.916 59.7362 107.398 60.6614 107.1 61.1501C107.1 61.1501 106.916 59.895 106.765 59.8876C106.765 59.8876 106.161 60.721 106.099 61.2915C106.127 60.7622 106.306 60.249 106.619 59.8032C106.27 59.8637 105.948 60.0163 105.693 60.2423C105.693 60.2423 105.788 59.6544 106.776 59.6023C106.776 59.6023 107.276 58.9723 107.412 58.9326C107.412 58.9326 106.435 58.8582 105.842 59.0988C105.842 59.0988 106.364 58.5432 107.59 58.7962L108.275 58.2827C108.275 58.2827 106.989 58.1215 106.445 58.3001C106.445 58.3001 107.071 57.804 108.459 58.1661L109.206 57.7569C108.632 57.6417 108.045 57.595 107.458 57.618C107.458 57.618 108.145 57.2781 109.426 57.6477L109.967 57.427C109.967 57.427 109.155 57.2831 108.93 57.2608C108.706 57.2385 108.681 57.1789 108.681 57.1789C109.19 57.1012 109.712 57.1545 110.189 57.3327C110.189 57.3327 111.312 56.9408 111.293 56.8763Z" fill="#6C63FF"/>
<path opacity="0.1" d="M94.3539 77.0347C94.3539 77.0347 92.1479 82.6008 96.7007 83.1093C96.9092 83.2033 97.1448 83.2345 97.3737 83.1984C97.6027 83.1623 97.8134 83.0608 97.9756 82.9084C97.9756 82.9084 97.6589 82.8116 97.9513 82.2684C98.0537 82.0754 98.1318 81.8724 98.184 81.6632C98.2525 81.379 98.2183 81.0822 98.0866 80.8174C98.0866 80.8174 97.8836 79.029 95.2417 77.6375C95.2417 77.6375 94.7708 77.0099 94.6056 76.9851L94.741 78.0641C94.741 78.0641 95.599 77.9401 96.1431 78.3667C96.1431 78.3667 94.7897 78.0318 94.7545 78.2253C94.7545 78.2625 94.8547 78.7933 94.8547 78.7933C94.8547 78.7933 96.3488 78.585 97.1636 79.2696C97.1636 79.2696 95.599 78.6693 94.8926 78.9943L95.1037 79.783C95.1037 79.783 96.6709 79.4953 97.6319 80.2394C97.6319 80.2394 95.9753 79.6665 95.1633 79.9542L95.4854 80.6983C95.4854 80.6983 97.0201 80.4503 97.8159 81.0679C97.8159 81.0679 95.8237 80.5718 95.572 80.8645C95.7106 81.1533 95.8869 81.4257 96.0971 81.6756C96.0971 81.6756 97.2042 81.5169 97.6292 81.9236C97.6292 81.9236 96.2622 81.7277 96.2135 81.8567C96.2135 81.8567 96.9146 82.6256 97.4938 82.8488C96.9498 82.6724 96.4656 82.3689 96.089 81.9683C96.0531 82.2926 96.1218 82.6195 96.2866 82.9084C96.2866 82.9084 95.6965 82.6603 95.9212 81.7798C95.9212 81.7798 95.4014 81.1622 95.4014 81.0357C95.4014 81.0357 95.0441 81.8716 95.1308 82.4619C95.1308 82.4619 94.6977 81.8443 95.3094 80.8397L94.9684 80.0956C94.9684 80.0956 94.427 81.1795 94.4649 81.7103C94.4649 81.7103 94.1292 81.0183 94.898 79.8996L94.6841 79.1282C94.4009 79.5967 94.1852 80.097 94.0426 80.6165C94.0426 80.6165 93.8802 79.9145 94.63 78.895L94.5515 78.3642C94.5515 78.3642 94.1726 79.029 94.0832 79.2299C93.9939 79.4308 93.9262 79.4234 93.9262 79.4234C93.9886 78.9543 94.1919 78.5103 94.5136 78.141C94.5136 78.141 94.427 77.0347 94.3539 77.0347Z" fill="#6C63FF"/>
<path opacity="0.1" d="M137.13 72.3418C137.13 72.3418 134.927 77.9178 139.477 78.4138C139.686 78.5077 139.922 78.5386 140.152 78.5021C140.381 78.4655 140.592 78.3635 140.755 78.2104C140.755 78.2104 140.435 78.1137 140.73 77.573C140.834 77.3797 140.911 77.1756 140.96 76.9653C141.03 76.6814 140.996 76.3845 140.866 76.1195C140.866 76.1195 140.663 74.3311 138.021 72.9395C138.021 72.9395 137.547 72.3145 137.382 72.2897L137.52 73.3662C137.52 73.3662 138.378 73.2446 138.922 73.6713C138.922 73.6713 137.569 73.3364 137.531 73.5274C137.531 73.5671 137.631 74.0954 137.631 74.0954C137.631 74.0954 139.125 73.8896 139.943 74.5717C139.943 74.5717 138.378 73.9739 137.669 74.2963L137.883 75.0876C137.883 75.0876 139.45 74.7974 140.411 75.544C140.411 75.544 138.752 74.9685 137.94 75.2563L138.262 76.0004C138.262 76.0004 139.796 75.7524 140.592 76.37C140.592 76.37 138.603 75.8739 138.348 76.1691C138.491 76.459 138.673 76.7315 138.89 76.9802C138.89 76.9802 139.994 76.8189 140.422 77.2282C140.422 77.2282 139.055 77.0322 139.006 77.1637C139.006 77.1637 139.704 77.9302 140.284 78.1559C139.74 77.9802 139.256 77.6765 138.882 77.2753C138.846 77.5994 138.913 77.926 139.076 78.2154C139.076 78.2154 138.489 77.9674 138.714 77.0893C138.714 77.0893 138.194 76.4692 138.191 76.3452C138.191 76.3452 137.837 77.1836 137.921 77.7714C137.921 77.7714 137.488 77.1563 138.099 76.1492L137.758 75.4051C137.758 75.4051 137.217 76.489 137.255 77.0174C137.255 77.0174 136.919 76.3278 137.688 75.2091L137.471 74.4352C137.188 74.9038 136.972 75.404 136.83 75.9235C136.83 75.9235 136.67 75.2215 137.42 74.2021L137.341 73.6713C137.341 73.6713 136.962 74.336 136.87 74.5369C136.778 74.7379 136.713 74.7304 136.713 74.7304C136.778 74.2613 136.982 73.8176 137.303 73.448C137.303 73.448 137.206 72.3442 137.13 72.3418Z" fill="#6C63FF"/>
<path opacity="0.1" d="M75.9828 117.853C75.9828 117.853 73.7768 123.421 78.3296 123.93C78.5383 124.024 78.7741 124.055 79.0032 124.018C79.2323 123.982 79.4428 123.879 79.6045 123.726C79.6045 123.726 79.2878 123.63 79.5802 123.089C79.6842 122.896 79.7624 122.692 79.8129 122.481C79.8828 122.197 79.8486 121.9 79.7155 121.635C79.7155 121.635 79.5125 119.847 76.8706 118.458C76.8706 118.458 76.3997 117.83 76.2345 117.806L76.3699 118.882C76.3699 118.882 77.2307 118.761 77.772 119.187C77.772 119.187 76.4186 118.852 76.3834 119.043C76.3834 119.083 76.4836 119.611 76.4836 119.611C76.4836 119.611 77.9777 119.405 78.7925 120.088C78.7925 120.088 77.2279 119.49 76.5215 119.812L76.7326 120.603C76.7326 120.603 78.2998 120.313 79.2608 121.06C79.2608 121.06 77.6042 120.484 76.7921 120.772L77.1143 121.516C77.1143 121.516 78.649 121.268 79.4448 121.886C79.4448 121.886 77.4553 121.39 77.2009 121.685C77.3395 121.974 77.5158 122.246 77.726 122.496C77.726 122.496 78.8331 122.335 79.2608 122.744C79.2608 122.744 77.8911 122.548 77.8424 122.68C77.8424 122.68 78.5435 123.446 79.1227 123.672C78.5786 123.497 78.0942 123.194 77.7179 122.794C77.6821 123.117 77.7508 123.443 77.9155 123.731C77.9155 123.731 77.3254 123.483 77.5501 122.605C77.5501 122.605 77.0331 121.985 77.0303 121.861C77.0303 121.861 76.673 122.699 76.7597 123.287C76.7597 123.287 76.3266 122.672 76.9383 121.665L76.5973 120.921C76.5973 120.921 76.0559 122.005 76.0965 122.533C76.0965 122.533 75.7609 121.844 76.5296 120.725L76.313 119.954C76.0292 120.422 75.8136 120.922 75.6715 121.442C75.6715 121.442 75.5091 120.737 76.2589 119.72L76.1804 119.187C76.1804 119.187 75.8015 119.852 75.7121 120.053C75.6228 120.254 75.5551 120.246 75.5551 120.246C75.6177 119.777 75.8221 119.333 76.1452 118.964C76.1452 118.964 76.0559 117.853 75.9828 117.853Z" fill="#6C63FF"/>
<path opacity="0.1" d="M67.2294 65.3693C67.2294 65.3693 65.026 70.9354 69.5762 71.4439C69.7852 71.5377 70.0211 71.5688 70.2504 71.5327C70.4798 71.4966 70.6909 71.3952 70.8538 71.243C70.8538 71.243 70.5344 71.1462 70.8294 70.603C70.9315 70.4093 71.0087 70.2054 71.0595 69.9953C71.1288 69.7122 71.0955 69.4162 70.9648 69.152C70.9648 69.152 70.7618 67.3636 68.1172 65.9721C68.1172 65.9721 67.6462 65.3445 67.4811 65.3197L67.6192 66.3987C67.6192 66.3987 68.4772 66.2747 69.0186 66.7013C69.0186 66.7013 67.6652 66.3664 67.63 66.5599C67.63 66.5971 67.7301 67.1279 67.7301 67.1279C67.7301 67.1279 69.2243 66.9196 70.0418 67.6042C70.0418 67.6042 68.4772 67.0039 67.768 67.3289L67.9792 68.1176C67.9792 68.1176 69.5464 67.8274 70.51 68.574C70.51 68.574 68.8508 67.9986 68.0387 68.2888L68.3608 69.0329C68.3608 69.0329 69.8956 68.7849 70.6914 69.405C70.6914 69.405 68.7019 68.9089 68.4474 69.2016C68.5861 69.4904 68.7624 69.7627 68.9726 70.0127C68.9726 70.0127 70.0796 69.8539 70.5073 70.2607C70.5073 70.2607 69.1404 70.0648 69.0917 70.1937C69.0917 70.1937 69.79 70.9627 70.3693 71.1859C69.8257 71.0089 69.3416 70.7055 68.9644 70.3054C68.9286 70.6297 68.9973 70.9565 69.162 71.2454C69.162 71.2454 68.572 70.9974 68.7993 70.1168C68.7993 70.1168 68.2796 69.4992 68.2769 69.3727C68.2769 69.3727 67.9223 70.2086 68.0062 70.799C68.0062 70.799 67.5704 70.1813 68.1849 69.1768L67.8411 68.4326C67.8411 68.4326 67.2998 69.5166 67.3404 70.0474C67.3404 70.0474 67.0047 69.3554 67.7734 68.2367L67.5569 67.4653C67.2736 67.9338 67.058 68.4341 66.9154 68.9535C66.9154 68.9535 66.7557 68.2516 67.5028 67.2321L67.427 66.7013C67.427 66.7013 67.0453 67.3661 66.956 67.5645C66.8667 67.7629 66.799 67.7604 66.799 67.7604C66.8616 67.291 67.0659 66.8468 67.3891 66.4781C67.3891 66.4781 67.3052 65.3693 67.2294 65.3693Z" fill="#6C63FF"/>
<path opacity="0.1" d="M83.5896 95.6801C83.5896 95.6801 85.2922 101.385 89.3307 99.4008C89.5602 99.3673 89.7723 99.2682 89.9367 99.1176C90.101 98.967 90.2091 98.7727 90.2456 98.5624C90.2456 98.5624 89.9262 98.6517 89.8261 98.0539C89.7879 97.8417 89.7225 97.6344 89.6312 97.4363C89.5112 97.167 89.297 96.9419 89.0222 96.7963C89.0222 96.7963 87.731 95.442 84.6913 95.7C84.6913 95.7 83.9117 95.4395 83.7601 95.5065L84.5505 96.3126C84.5505 96.3126 85.1758 95.7595 85.8877 95.8165C85.8877 95.8165 84.564 96.263 84.6615 96.4342C84.6831 96.4689 85.1 96.8459 85.1 96.8459C85.1 96.8459 86.1827 95.886 87.2871 96.0125C87.2871 96.0125 85.6332 96.3498 85.2597 96.9898L85.9283 97.5231C85.9283 97.5231 87.0272 96.459 88.2832 96.5582C88.2832 96.5582 86.5644 96.965 86.0826 97.6297L86.8188 98.0737C86.8188 98.0737 87.9015 97.0543 88.9572 97.1461C88.9572 97.1461 87.0245 97.7984 86.9948 98.1655C87.2904 98.3285 87.6068 98.4576 87.9367 98.55C87.9367 98.55 88.7488 97.8356 89.3416 97.9373C89.3416 97.9373 88.0991 98.5004 88.1425 98.6318C88.1425 98.6318 89.1981 98.8799 89.8071 98.7608C89.2526 98.9049 88.6665 98.9134 88.1073 98.7856C88.2814 99.0695 88.5432 99.2999 88.8598 99.4479C88.8598 99.4479 88.221 99.5545 87.8528 98.7186C87.8528 98.7186 87.0408 98.488 86.9542 98.3838C86.9542 98.3838 87.1924 99.2569 87.6309 99.6935C87.6309 99.6935 86.8892 99.4181 86.7566 98.2722L86.0068 97.8431C86.0068 97.8431 86.2531 99.0113 86.6104 99.4256C86.6104 99.4256 85.9012 99.0386 85.8254 97.719L85.165 97.2031C85.2293 97.7384 85.3694 98.2637 85.5818 98.7658C85.5818 98.7658 85.0107 98.2697 84.9809 97.0493L84.583 96.6549C84.583 96.6549 84.6913 97.3991 84.7427 97.6099C84.7941 97.8207 84.7427 97.8579 84.7427 97.8579C84.4989 97.4413 84.3864 96.9706 84.4179 96.4987C84.4179 96.4987 83.6519 95.6429 83.5896 95.6801Z" fill="#6C63FF"/>
<path opacity="0.1" d="M129.778 100.775C129.778 100.775 131.481 106.48 135.517 104.496C135.747 104.463 135.96 104.364 136.124 104.213C136.289 104.063 136.398 103.868 136.434 103.657C136.434 103.657 136.112 103.746 136.012 103.161C135.976 102.949 135.911 102.741 135.82 102.543C135.698 102.275 135.483 102.05 135.208 101.904C135.208 101.904 133.917 100.549 130.877 100.81C130.877 100.81 130.097 100.547 129.949 100.614L130.736 101.42C130.736 101.42 131.362 100.867 132.073 100.924C132.073 100.924 130.75 101.37 130.85 101.541C130.869 101.576 131.288 101.953 131.288 101.953C131.288 101.953 132.371 100.993 133.476 101.12C133.476 101.12 131.819 101.457 131.445 102.097L132.117 102.63C132.117 102.63 133.199 101.566 134.469 101.665C134.469 101.665 132.753 102.072 132.271 102.737L133.007 103.181C133.007 103.181 134.09 102.161 135.143 102.253C135.143 102.253 133.21 102.906 133.183 103.273C133.478 103.436 133.793 103.565 134.123 103.657C134.123 103.657 134.935 102.943 135.527 103.045C135.527 103.045 134.288 103.608 134.328 103.739C134.328 103.739 135.384 103.987 135.996 103.868C135.44 104.012 134.853 104.02 134.293 103.893C134.468 104.176 134.73 104.406 135.046 104.555C135.046 104.555 134.407 104.662 134.039 103.826C134.039 103.826 133.227 103.595 133.143 103.491C133.143 103.491 133.378 104.364 133.817 104.801C133.817 104.801 133.075 104.525 132.942 103.379L132.193 102.945C132.193 102.945 132.439 104.114 132.799 104.528C132.799 104.528 132.09 104.141 132.014 102.821L131.351 102.305C131.415 102.841 131.556 103.366 131.77 103.868C131.77 103.868 131.196 103.372 131.167 102.152L130.769 101.757C130.769 101.757 130.877 102.501 130.928 102.712C130.98 102.923 130.928 102.96 130.928 102.96C130.685 102.543 130.572 102.073 130.604 101.601C130.604 101.601 129.84 100.738 129.778 100.775Z" fill="#6C63FF"/>
<path d="M112.449 158.068C112.449 158.068 126.492 153.735 123.585 138.381L105.747 134.137L101.606 146.735L112.449 158.068Z" fill="#CED7E7"/>
<path opacity="0.1" d="M101.606 146.735L112.447 158.068C112.447 158.068 126.49 153.735 123.583 138.381L101.606 146.735Z" fill="black"/>
<path d="M42.5974 33.3048C42.5974 33.3048 44.4922 36.13 47.0826 34.7187C49.673 33.3073 47.1882 29.4081 47.1882 29.4081C47.1882 29.4081 42.2266 28.7855 42.5974 33.3048Z" fill="#FED253"/>
<path opacity="0.1" d="M47.0827 34.7186C46.7771 34.8998 46.4344 35.0219 46.0756 35.0773C45.7167 35.1328 45.3492 35.1204 44.9957 35.0411C44.0457 34.8203 43.3148 34.1506 42.9223 33.7116C42.8052 33.583 42.6968 33.4479 42.5975 33.3073C42.4649 31.695 43.0117 30.7351 43.7696 30.1695C44.8117 29.3932 46.2544 29.3609 46.877 29.3857C47.0692 29.3857 47.1801 29.4105 47.1801 29.4105L47.2316 29.4899C47.3047 29.6164 47.4644 29.8967 47.6349 30.2712C48.2141 31.499 48.9044 33.724 47.0827 34.7186Z" fill="black"/>
<path d="M113.83 137.659L123.574 138.381L141.71 138.517L127.42 154.64C127.42 154.64 122.886 154.866 121.953 155.451C121.019 156.036 107.907 155.724 107.907 155.724L105.79 147.459L113.83 137.659Z" fill="#FFA2A2"/>
<path opacity="0.05" d="M113.83 137.659L123.574 138.381L141.71 138.517L127.42 154.64C127.42 154.64 122.886 154.866 121.953 155.451C121.019 156.036 107.907 155.724 107.907 155.724L105.79 147.459L113.83 137.659Z" fill="black"/>
<path d="M103.974 94.3109L106.24 97.8331L106.732 103.975C106.732 103.975 108.31 109.211 109.493 110.746C110.676 112.282 111.169 116.347 111.169 116.347C111.169 116.347 111.661 120.14 112.252 120.951C112.842 121.762 113.632 127.648 113.632 127.648C113.632 127.648 118.856 137.22 123.585 138.393C123.585 138.393 100.13 145.437 112.449 158.08C112.449 158.08 103.679 160.065 101.608 157.81C99.5377 155.555 94.1187 122.139 94.1187 122.139L95.7942 93.9612L103.974 94.3109Z" fill="#CED7E7"/>
<path opacity="0.05" d="M103.974 94.3109L106.24 97.8331L106.732 103.975C106.732 103.975 108.31 109.211 109.493 110.746C110.676 112.282 111.169 116.347 111.169 116.347C111.169 116.347 111.661 120.14 112.252 120.951C112.842 121.762 113.632 127.648 113.632 127.648C113.632 127.648 118.856 137.22 123.585 138.393C123.585 138.393 100.13 145.437 112.449 158.08C112.449 158.08 103.679 160.065 101.608 157.81C99.5377 155.555 94.1187 122.139 94.1187 122.139L95.7942 93.9612L103.974 94.3109Z" fill="black"/>
<path d="M75.5175 59.9843C74.8593 63.113 75.0545 66.3422 76.0859 69.3851L72.4371 78.9571C72.4371 78.9571 44.6463 64.7789 47.012 61.346C48.3519 59.3989 48.5224 54.2471 48.4142 50.1544C48.3357 47.0439 48.0948 44.5486 48.0948 44.5486C48.0948 44.5486 82.2006 47.6218 77.6613 54.7555C76.634 56.3769 75.9094 58.1442 75.5175 59.9843Z" fill="#FFA2A2"/>
<path opacity="0.1" d="M77.6617 54.7555C76.6344 56.3769 75.9099 58.1442 75.5179 59.9843C70.4565 61.4681 64.9905 61.2996 60.0494 59.5075C55.1082 57.7154 50.9969 54.4104 48.4146 50.1544C48.3361 47.0439 48.0952 44.5486 48.0952 44.5486C48.0952 44.5486 82.1929 47.6218 77.6617 54.7555Z" fill="black"/>
<path d="M91.4579 39.4018C91.4603 42.7128 90.61 45.9776 88.9762 48.9309C87.3424 51.8841 84.9712 54.4424 82.0554 56.3978C79.1395 58.3531 75.7613 59.6504 72.1953 60.1842C68.6293 60.7179 64.9762 60.473 61.5329 59.4695C58.0896 58.4659 54.9534 56.732 52.379 54.4086C49.8047 52.0852 47.865 49.238 46.7176 46.0983C45.5701 42.9586 45.2473 39.6152 45.7754 36.3397C46.3035 33.0642 47.6676 29.9491 49.7568 27.2477C50.0817 26.8293 50.4236 26.4209 50.7827 26.0223C52.8289 23.7434 55.3751 21.8842 58.2562 20.5654C59.8193 19.8488 61.468 19.3011 63.1691 18.9333C66.2406 18.2665 69.4291 18.186 72.536 18.6968C75.643 19.2076 78.602 20.2988 81.229 21.9025C83.856 23.5062 86.0948 25.5881 87.8061 28.0187C89.5175 30.4493 90.6647 33.1766 91.1764 36.0309C91.3676 37.1459 91.4618 38.2731 91.4579 39.4018Z" fill="#FFA2A2"/>
<path d="M100.523 125.922C100.179 127.603 100.61 130.676 101.262 133.804C101.289 133.941 101.319 134.077 101.349 134.214C101.378 134.35 101.422 134.561 101.46 134.732C101.76 136.076 102.088 137.408 102.407 138.619C102.726 139.829 103.013 140.866 103.257 141.719C103.625 142.997 103.877 143.8 103.877 143.8C103.877 143.8 103.909 144.589 103.953 145.844C103.977 146.569 104.004 147.452 104.031 148.426C104.031 148.709 104.05 148.997 104.058 149.295C104.072 149.813 104.085 150.351 104.099 150.902C104.099 151.08 104.099 151.259 104.112 151.44C104.112 152.033 104.137 152.638 104.147 153.241C104.161 154.069 104.172 154.898 104.177 155.702C104.177 156.009 104.177 156.312 104.177 156.609C104.177 157.378 104.177 158.115 104.177 158.792C104.147 160.714 104.064 162.166 103.885 162.585C103.823 162.729 103.766 162.885 103.712 163.049C103.477 163.819 103.307 164.604 103.203 165.397L102.743 165.053C101.863 164.388 100.991 163.708 100.106 163.049C98.6349 161.919 97.0732 160.893 95.4342 159.978C95.3232 159.918 95.2122 159.859 95.0986 159.802C94.7954 159.64 94.4868 159.489 94.1728 159.345C93.526 159.046 92.8629 158.778 92.186 158.542C89.0597 157.45 85.7113 157.053 82.317 157.12C80.9636 157.594 80.0839 157.934 80.0839 157.934L78.3624 158.41L78.0754 158.49C76.2105 159.01 73.5876 159.75 72.6429 160.057C71.1162 160.553 57.861 163.081 57.861 163.081C56.65 163.384 55.413 163.591 54.1635 163.701C51.8883 164.287 49.5722 164.732 47.2313 165.03C41.9118 165.654 36.5089 165.255 31.3667 163.86C31.2133 163.868 31.0593 163.864 30.9066 163.847C31.0013 163.847 31.0934 163.827 31.1773 163.813L30.847 163.723L30.395 163.594C29.6371 163.376 28.8855 163.137 28.1402 162.877L27.6882 162.719C26.9664 162.464 26.2599 162.19 25.5688 161.898L25.1167 161.709C24.3949 161.402 23.6884 161.077 22.9973 160.734C22.7483 160.615 22.5019 160.486 22.2583 160.365C21.5221 159.988 20.8003 159.592 20.0929 159.179C19.9738 158.244 19.9115 157.619 19.9115 157.619L18.8559 152.802L18.8017 152.554L18.0438 149.081L17.9897 148.833L16.3412 141.278L16.2871 141.03L15.5292 137.557L15.4751 137.309L13.805 129.759L13.7508 129.511L12.9929 126.038L12.9388 125.79L11.2822 118.225L11.2281 117.977L10.4702 114.517L10.416 114.268L10.1156 112.904L9.66355 110.838C9.66355 110.838 8.22082 108.948 6.59673 106.713L6.41537 106.465C5.95251 105.838 5.47611 105.185 5.01325 104.545C4.85896 104.334 4.71008 104.126 4.56121 103.92C4.33564 103.608 4.11729 103.303 3.90616 103.005L3.75999 102.799L3.73022 102.757C1.39695 99.4479 2.95878 98.0093 2.95878 98.0093C2.95878 98.0093 3.93864 96.7939 5.20272 95.1866C5.26498 95.1047 5.32994 95.0228 5.39761 94.9385C5.93898 94.244 6.53447 93.485 7.11914 92.726L7.57118 92.1356C7.74171 91.9149 7.90953 91.6941 8.07194 91.4758C8.1369 91.394 8.19916 91.3096 8.25871 91.2278C9.50655 89.5758 10.5351 88.1347 10.7463 87.6237C11.0765 86.8176 13.1824 84.4339 15.2802 82.3429C16.934 80.6909 18.5798 79.2225 19.3187 78.8703C20.9942 78.0592 21.6845 75.4374 21.6845 75.4374C21.6845 75.4374 25.3306 74.2666 25.8232 73.3638C26.3158 72.4609 33.2155 68.4029 33.2155 68.4029C33.2155 68.4029 36.0062 66.7559 37.135 65.7637C37.2947 65.634 37.4341 65.4846 37.5491 65.3197C37.9416 64.6748 40.5049 64.144 41.5471 63.953C41.8177 63.9034 41.9856 63.8761 41.9856 63.8761C42.4063 63.1756 42.9381 62.5361 43.5636 61.9786C43.9886 61.6338 44.5191 60.4457 44.9658 59.2948C45.4503 58.0397 45.8265 56.8317 45.8265 56.8317C46.6169 54.3935 48.1923 55.1153 48.1923 55.1153C48.1901 55.4483 48.2246 55.7807 48.2951 56.1074C48.9529 59.0839 52.5259 60.3242 54.4017 61.7157C56.4724 63.2486 59.7233 67.2247 62.2866 68.0358C64.4088 68.708 66.8692 71.243 67.6488 72.0888L67.7084 72.1533C67.8383 72.2922 67.9033 72.3716 67.9033 72.3716C67.9033 72.3716 69.3568 72.3021 70.2419 72.2873H70.564C70.7441 72.2707 70.9151 72.207 71.0567 72.1037C71.9364 71.5555 73.2465 69.9482 73.8176 69.5786C74.5052 69.1247 75.1981 61.8099 75.1981 61.8099L75.2333 61.7951C77.6884 60.7409 80.3221 71.2926 80.3221 71.2926C80.3221 71.2926 84.9534 72.5576 85.3486 73.4605C85.4244 73.6391 85.7736 73.9566 86.2987 74.341C88.6898 76.0155 91.2346 77.4969 93.9049 78.7686C93.9644 78.7959 94.0213 78.8232 94.0808 78.8455C94.1345 78.872 94.1896 78.896 94.2459 78.9174C94.3461 78.9621 94.4435 79.0018 94.5356 79.039C94.6817 79.0985 94.8171 79.1481 94.9416 79.1878L95.104 79.2399C95.4919 79.3582 95.8573 79.5314 96.1867 79.7533C96.2842 79.8178 96.3816 79.8848 96.4763 79.9567C96.8449 80.2378 97.1839 80.5501 97.4887 80.8894C97.5347 80.939 97.578 80.9911 97.6213 81.0407C97.827 81.2763 98.0111 81.5095 98.1627 81.7253C98.4115 82.0582 98.6383 82.4044 98.8421 82.7621C98.8421 82.7621 102.881 89.0847 104.164 89.804C105.447 90.5234 106.234 97.8431 106.234 97.8431L101.903 112.555C101.903 112.555 101.7 116.275 101.322 120.07C101.11 122.198 100.842 124.364 100.523 125.922Z" fill="#CED7E7"/>
<path d="M67.9032 72.818C67.9032 72.818 64.9988 74.2617 62.7305 74.3981C62.4336 74.4108 62.136 74.395 61.8427 74.3509C59.4661 74.0211 55.9797 72.2302 55.9797 72.2302L60.0697 68.1201L65.0448 70.3798L66.8747 71.94L67.9032 72.818Z" fill="#63667E"/>
<path opacity="0.1" d="M91.1656 36.0308C91.0627 36.1642 90.9457 36.288 90.8164 36.4004C89.3926 37.6406 86.8645 37.1272 84.9237 36.8395C83.2372 36.5868 81.5898 36.1505 80.0163 35.5397C78.6466 35.0039 77.0036 34.3491 75.772 35.118C75.2983 35.4107 74.9735 35.8795 74.4808 36.1375C73.9882 36.3955 73.3602 36.4128 72.7782 36.4203C70.8835 36.4203 68.9887 36.4401 67.14 36.0482C64.3817 35.4579 61.5288 33.9721 58.9059 34.9518C56.8541 35.7158 55.7416 37.7622 55.1867 39.7291C54.916 40.694 54.7157 41.7135 54.104 42.532C53.4922 43.3506 52.3094 43.931 51.3024 43.5465C49.8164 42.9785 49.5971 40.6668 47.8052 40.5502C45.8374 40.4237 45.8617 42.2865 46.4356 43.6333C47.2855 45.6177 48.398 47.602 48.4467 49.6707C46.3318 46.1995 45.3325 42.2506 45.5643 38.2807C45.7962 34.3109 47.2497 30.4822 49.7568 27.2377C50.1931 26.9901 50.5346 26.6243 50.734 26.191C50.754 26.1324 50.7703 26.0727 50.7827 26.0124C50.9316 25.3204 50.512 24.5936 50.4877 23.8693C50.3929 22.1008 52.4826 20.868 54.399 20.6447C55.6739 20.4959 56.9786 20.61 58.2562 20.5728C58.8998 20.5598 59.5397 20.4816 60.1645 20.3397C61.2424 20.0437 62.2516 19.5686 63.142 18.9382C66.2136 18.2714 69.402 18.1909 72.5089 18.7017C75.6159 19.2125 78.5749 20.3037 81.2019 21.9074C83.829 23.5111 86.0677 25.593 87.7791 28.0236C89.4904 30.4542 90.6376 33.1815 91.1494 36.0358L91.1656 36.0308Z" fill="black"/>
<path d="M91.6287 34.5699C91.4937 35.0605 91.2126 35.507 90.8166 35.8597C89.3928 37.0999 86.8647 36.584 84.9239 36.2962C83.2373 36.0491 81.5896 35.616 80.0164 35.0064C78.6468 34.4731 77.0038 33.8183 75.7722 34.5872C75.2985 34.8799 74.9737 35.3487 74.481 35.6067C73.9884 35.8646 73.3604 35.882 72.7784 35.887C70.8837 35.8994 68.9889 35.9093 67.1402 35.5174C64.3819 34.9246 61.5289 33.4413 58.906 34.4186C56.8543 35.1825 55.7418 37.2314 55.1869 39.1983C54.9162 40.1632 54.7159 41.1827 54.1042 41.9987C53.4924 42.8148 52.3095 43.4002 51.3026 43.0157C49.8166 42.4477 49.5973 40.1359 47.8054 40.0194C45.8376 39.8929 45.8619 41.7557 46.4358 43.1025C47.4427 45.4515 48.8123 47.788 48.363 50.2784C47.9164 50.2784 47.1774 50.2635 46.7389 50.2536C47.08 49.7203 46.4304 49.0853 45.7834 48.9042C45.1365 48.7232 44.3813 48.7257 43.8887 48.2941C43.396 47.8625 43.3933 47.1952 43.4447 46.5974C43.557 45.3198 43.8981 44.0678 44.4544 42.8917C44.809 42.1476 45.2664 41.3414 44.9957 40.5626C44.8333 40.2095 44.6376 39.8701 44.4111 39.5481C43.8481 38.5559 43.9807 37.3157 44.4625 36.2913C44.6682 35.8547 44.8171 35.443 44.9876 35.0511C45.203 34.494 45.5146 33.9722 45.9106 33.5058C46.5305 32.7988 47.1368 31.7347 46.452 31.0774C46.2788 30.9112 46.6252 30.7971 46.5143 30.5813C46.4947 30.5445 46.481 30.5052 46.4737 30.4648C46.4418 30.2035 46.5108 29.9402 46.6686 29.7206C46.7005 29.6636 46.7358 29.6081 46.7741 29.5544C46.8053 29.4978 46.8405 29.4431 46.8797 29.3907C47.4791 28.4737 48.2757 27.6779 49.2211 27.0517C49.8085 26.6623 50.496 26.2877 50.7288 25.6577C50.9994 24.9136 50.5231 24.1223 50.4824 23.336C50.3877 21.5675 52.4774 20.3347 54.3938 20.1115C56.3102 19.8882 58.297 20.2578 60.1647 19.8039C62.8147 19.1639 64.677 17.0208 67.0833 15.8178C68.3997 15.1728 69.8596 14.812 71.3514 14.763C72.8432 14.714 74.3275 14.9781 75.691 15.5351C78.5006 16.7108 80.6201 19.087 83.5542 19.98C84.5937 20.2975 85.7197 20.424 86.6562 20.9498C87.739 21.56 88.3967 22.6266 88.9597 23.6783C89.8178 25.2732 89.991 26.8756 90.5838 28.5647C91.0548 29.9042 91.7072 31.6554 91.7613 33.1982C91.7917 33.6589 91.747 34.1212 91.6287 34.5699Z" fill="#896363"/>
<g opacity="0.1">
<path opacity="0.1" d="M46.8039 31.4619C46.8472 31.3031 46.8515 31.1375 46.8164 30.9771C46.7812 30.8166 46.7076 30.6654 46.6009 30.5342C46.6713 30.7277 46.3654 30.8393 46.5332 31.0005C46.6669 31.1293 46.7604 31.2886 46.8039 31.4619Z" fill="black"/>
<path opacity="0.1" d="M46.5929 29.9662C46.5609 30.0531 46.5417 30.1435 46.5359 30.235C46.5875 30.1553 46.6581 30.0732 46.5929 29.9662Z" fill="black"/>
<path opacity="0.1" d="M90.892 35.2544C89.4655 36.4947 86.94 35.9812 84.9938 35.691C83.3085 35.4423 81.6624 35.0067 80.0918 34.3937C78.7195 33.858 77.0791 33.2031 75.8448 33.9721C75.3738 34.2648 75.049 34.7336 74.5537 34.9915C74.0583 35.2495 73.4331 35.2669 72.8511 35.2718C70.9563 35.2718 69.0616 35.2941 67.2101 34.8998C64.4546 34.3094 61.6016 32.8286 58.9787 33.8034C56.9269 34.5699 55.8144 36.6162 55.2595 38.5832C54.9889 39.5481 54.7913 40.5675 54.1768 41.3861C53.5624 42.2046 52.3795 42.785 51.3753 42.403C49.8892 41.8325 49.67 39.5233 47.8781 39.4067C46.4786 39.3149 46.0889 40.2327 46.1836 41.2521C46.2648 40.4733 46.725 39.873 47.8781 39.9474C49.67 40.064 49.8892 42.3758 51.3753 42.9438C52.3795 43.3282 53.5651 42.7503 54.1768 41.9268C54.7886 41.1033 54.9889 40.0888 55.2595 39.1264C55.8144 37.1594 56.9269 35.1106 58.9787 34.3466C61.6016 33.3693 64.4546 34.8427 67.2101 35.443C69.0507 35.8373 70.9617 35.8249 72.8511 35.8125C73.4331 35.8125 74.0475 35.7977 74.5537 35.5347C75.0598 35.2718 75.3657 34.808 75.8448 34.5128C77.0791 33.7463 78.7195 34.4012 80.0918 34.9345C81.6627 35.5471 83.3087 35.9835 84.9938 36.2342C86.94 36.5219 89.4655 37.0404 90.892 35.7952C91.6661 35.118 91.8989 34.1383 91.8475 33.0667C91.8042 33.9175 91.5335 34.6889 90.892 35.2544Z" fill="black"/>
<path opacity="0.1" d="M50.5769 22.887C50.5619 23.0105 50.5565 23.1349 50.5607 23.2591C50.5877 23.775 50.8016 24.2909 50.8693 24.7945C50.9694 24.1768 50.6581 23.5319 50.5769 22.887Z" fill="black"/>
<path opacity="0.1" d="M45.0766 40.4857C45.0989 40.5598 45.1161 40.6352 45.128 40.7114C45.1719 40.4555 45.1544 40.1939 45.0766 39.9449C44.9152 39.5906 44.7196 39.2503 44.4919 38.928C44.2886 38.561 44.168 38.1603 44.1373 37.7498C44.0823 38.3424 44.2049 38.9377 44.4919 39.4712C44.7201 39.7923 44.9158 40.1319 45.0766 40.4857Z" fill="black"/>
<path opacity="0.1" d="M48.4359 49.6583L46.8524 49.636C46.8894 49.7236 46.9042 49.8178 46.8957 49.9114C46.8873 50.0051 46.8558 50.0958 46.8037 50.1767C47.2503 50.1767 47.992 50.1916 48.4278 50.2015C48.5035 49.777 48.5298 49.3463 48.5063 48.9166C48.5001 49.165 48.4766 49.4127 48.4359 49.6583Z" fill="black"/>
<path opacity="0.1" d="M45.8456 48.2866C45.1987 48.108 44.4462 48.1055 43.9644 47.6714C43.6808 47.3871 43.5209 47.0173 43.5151 46.6321C43.4745 47.2026 43.5151 47.8178 43.9644 48.2147C44.4462 48.6487 45.1987 48.6512 45.8456 48.8298C46.0561 48.8859 46.2518 48.9809 46.4208 49.1088C46.5898 49.2368 46.7284 49.3951 46.8282 49.5739C47.1016 49.0605 46.4736 48.4577 45.8456 48.2866Z" fill="black"/>
</g>
<path opacity="0.1" d="M95.091 159.802C94.7879 159.64 94.4793 159.489 94.1653 159.345C93.5184 159.046 92.8553 158.778 92.1785 158.542C89.0521 157.45 85.7038 157.053 82.3095 157.12C80.9561 157.594 80.0763 157.934 80.0763 157.934L78.3548 158.41L78.0679 158.49C78.049 158.316 78.0273 158.142 78.0084 157.966C77.9894 157.79 77.9677 157.621 77.9461 157.448C77.3398 152.187 76.8634 146.782 76.8634 146.782V142.114V141.571L76.8309 127.817L76.5602 123.282L76.433 121.276L76.4086 120.894L76.3599 120.11L76.3328 119.644C76.2731 119.496 76.2225 119.345 76.1813 119.192C76.1623 119.13 76.1434 119.061 76.1271 118.989C76.0594 118.741 75.9864 118.421 75.9106 118.073C75.4152 115.791 74.7954 111.944 74.7575 111.163C74.7087 110.121 73.7235 103.89 73.7235 103.89C73.6233 100.46 70.4753 94.0009 69.6822 92.783C68.8891 91.5651 68.004 84.2478 68.3017 83.8535C68.456 83.6426 68.5562 82.395 68.6184 81.2441C68.6184 81.1126 68.632 80.9836 68.6374 80.8571C68.678 79.9567 68.6969 79.2051 68.6969 79.2051L71.7935 78.6446L72.6245 78.4957L72.6895 78.4833L72.7165 78.5329C72.8059 78.6843 73.0847 79.1679 73.4122 79.8029C73.4501 79.8699 73.4853 79.9418 73.5232 80.0138C73.5394 80.0485 73.5584 80.0832 73.5773 80.1179C74.1836 81.3333 74.8847 82.9332 74.8549 83.8535C74.8062 85.4806 76.8282 89.4096 76.8282 89.4096C77.0231 90.3125 81.3107 99.2966 81.3107 99.2966C81.3107 99.2966 84.8106 108.102 84.613 109.548C84.4154 110.994 86.2885 120.566 86.2885 120.566L88.2103 130.411C89.1442 132.351 90.3758 136.82 90.3758 136.82L90.844 139.355L90.9334 139.839L92.1812 146.603L92.7929 149.917C92.7929 149.917 93.0501 151.678 93.4399 153.638C93.4723 153.814 93.5102 153.992 93.5481 154.171C93.7883 155.461 94.1293 156.733 94.5686 157.979C94.7864 158.575 94.961 159.184 95.091 159.802Z" fill="black"/>
<path d="M95.4264 159.978C95.3155 159.918 95.2045 159.859 95.0908 159.802C94.7876 159.64 94.4791 159.489 94.1651 159.345C93.5182 159.046 92.8551 158.778 92.1783 158.542C89.0519 157.45 85.7036 157.053 82.3092 157.12C80.9558 157.594 80.0761 157.934 80.0761 157.934L78.3546 158.41C78.3329 158.236 78.314 158.063 78.2923 157.887C78.2707 157.711 78.2544 157.569 78.2382 157.41C77.6319 152.162 77.1555 146.782 77.1555 146.782V142.069V141.526L77.123 127.807L76.8523 123.476L76.7982 122.578L76.7603 121.97L76.7116 121.166L76.6628 120.35L76.6276 119.763V119.634C76.6276 119.621 76.6276 119.606 76.6087 119.591C76.5573 119.457 76.495 119.254 76.4273 118.996L76.3949 118.872C76.3813 118.815 76.3651 118.753 76.3516 118.691C75.8427 116.575 75.0956 112.014 75.055 111.158C75.0063 110.116 74.021 103.885 74.021 103.885C73.9208 100.455 70.7728 93.9959 69.9797 92.778C69.1866 91.5601 68.3042 84.2428 68.5992 83.8485C68.7698 83.6004 68.8699 82.0948 68.9349 80.8521C68.9349 80.7529 68.9349 80.6561 68.9349 80.5644C68.9701 79.7979 68.9836 79.2001 68.9836 79.2001L71.8637 78.6792L72.5945 78.5478L72.7082 78.5279L72.9789 78.4783C72.9789 78.4783 73.3335 79.0786 73.7584 79.9046L73.8126 80.0088C74.4324 81.2341 75.166 82.9009 75.1443 83.8485C75.0956 85.4756 77.1176 89.4046 77.1176 89.4046C77.3125 90.3075 81.6001 99.2916 81.6001 99.2916C81.6001 99.2916 85.1 108.097 84.9024 109.543C84.7048 110.989 86.5779 120.561 86.5779 120.561L88.4997 130.406C89.4336 132.346 90.6652 136.815 90.6652 136.815L91.101 139.177L91.1903 139.656L92.1728 144.993L93.0796 149.912C93.0796 149.912 93.3503 151.666 93.7239 153.633C93.759 153.811 93.7942 153.99 93.8321 154.171C94.0719 155.467 94.4129 156.745 94.8526 157.996C95.0926 158.644 95.2843 159.306 95.4264 159.978Z" fill="#63667E"/>
<path d="M92.9849 32.5855C92.9849 32.5855 91.9509 33.8059 91.0171 33.8059C90.0832 33.8059 86.448 33.6695 84.5532 33.1287C82.6584 32.588 73.3687 32.1787 73.3687 32.1787C73.3687 32.1787 60.2136 32.2234 59.7696 31.8166C59.3257 31.4098 51.5897 29.2419 50.802 29.3783C50.6369 29.4081 50.2336 29.4726 49.6949 29.5544L49.0777 29.6462C48.1439 29.7826 46.9773 29.9414 45.9108 30.058C44.5926 30.1993 43.434 30.2713 43.0659 30.1473V29.108C43.0659 29.108 44.5926 27.074 44.69 26.4911C44.7874 25.9082 46.0705 17.4574 49.4215 14.4338C50.8059 12.0087 53.0463 10.0851 55.7771 8.97682C60.311 7.16858 64.8449 5.63568 64.8449 5.63568L65.638 5.5315L68.1959 5.18424C68.2737 5.11331 68.3579 5.04859 68.4477 4.99077C69.1569 4.49468 71.3061 3.4157 74.1076 5.7349L74.603 6.45918C74.603 6.45918 83.2241 8.30958 87.214 14.7661C91.2038 21.2227 91.4041 27.5453 91.6992 30.435C91.6992 30.435 91.5016 31.2486 91.8968 31.5636C92.0398 31.6794 92.1763 31.8019 92.3055 31.9307C92.3407 31.9629 92.3759 31.9952 92.4083 32.0299C92.522 32.1341 92.6276 32.2432 92.7142 32.3325C92.7246 32.3395 92.7337 32.3478 92.7413 32.3573C92.7624 32.3808 92.785 32.4032 92.809 32.4243L92.9849 32.5855Z" fill="#FED253"/>
<path opacity="0.05" d="M92.9845 32.5856C92.9845 32.5856 91.9505 33.8059 91.0167 33.8059C90.0828 33.8059 86.4476 33.6695 84.5528 33.1288C82.658 32.588 73.3683 32.1788 73.3683 32.1788C73.3683 32.1788 60.2132 32.2234 59.7692 31.8166C59.3253 31.4098 51.5893 29.2419 50.8016 29.3784C50.6365 29.4081 50.2332 29.4726 49.6945 29.5545L49.5537 28.7607L49.5186 28.5648C49.5186 28.5648 64.4493 25.6304 74.4023 27.1683C84.3552 28.7062 91.6988 30.4177 91.6988 30.4177C91.6988 30.4177 91.5012 31.2312 91.8964 31.5463C92.0394 31.6621 92.1759 31.7846 92.3051 31.9134C92.3403 31.9456 92.3755 31.9778 92.408 32.0126C92.5216 32.1167 92.6272 32.2259 92.7138 32.3152C92.7242 32.3222 92.7333 32.3305 92.7409 32.34C92.7621 32.3634 92.7847 32.3858 92.8086 32.407L92.9845 32.5856Z" fill="black"/>
<path opacity="0.1" d="M91.6286 34.5699C89.7852 34.7013 86.3882 34.2896 84.9022 34.0887C84.4799 34.0316 84.0658 33.9622 83.6489 33.8778C82.0546 33.5603 77.1526 32.6699 74.1751 33.0816C70.5777 33.5777 60.4272 32.6748 60.4272 32.6748C60.4272 32.6748 54.169 31.5016 51.6544 30.554C50.7314 30.2043 49.1885 30.0952 47.6537 30.2688C47.2624 30.3135 46.8738 30.3773 46.4898 30.4598C44.3948 30.9137 42.6272 31.948 42.9331 33.7116C42.816 33.583 42.7075 33.448 42.6083 33.3073C42.4756 31.695 43.0224 30.7351 43.7803 30.1696L43.959 30.1026C44.8848 29.8615 45.827 29.6768 46.7795 29.5495C46.9283 29.5272 47.0826 29.5073 47.2396 29.4899C49.9329 29.1576 53.828 29.0832 57.1141 30.5987C57.1141 30.5987 60.1673 31.9108 62.238 31.9108C64.3088 31.9108 81.1586 32.0473 85.1025 33.0841C85.8876 33.2919 86.6882 33.447 87.498 33.5479C88.9358 33.7178 90.3969 33.5915 91.7747 33.1783C91.8029 33.6463 91.7537 34.1154 91.6286 34.5699Z" fill="black"/>
<path opacity="0.1" d="M92.9849 32.5855C92.9849 32.5855 91.9509 33.8059 91.0171 33.8059C90.0832 33.8059 86.448 33.6695 84.5532 33.1287C82.6584 32.588 73.3687 32.1787 73.3687 32.1787C73.3687 32.1787 60.2136 32.2234 59.7696 31.8166C59.3257 31.4098 51.5897 29.2419 50.802 29.3783C50.6369 29.4081 50.2336 29.4726 49.6949 29.5544L49.0777 29.6462C48.0058 29.6412 46.9389 29.7799 45.9108 30.058C44.5926 30.1994 43.434 30.2713 43.0659 30.1473V29.9414C43.3497 29.7905 43.6456 29.6594 43.951 29.5495C45.7776 29.0808 47.6585 28.8127 49.5541 28.7508C51.9172 28.6714 54.6808 28.9244 57.1088 30.0456C57.1088 30.0456 60.1621 31.3577 62.2328 31.3577C64.3036 31.3577 81.1534 31.4917 85.0973 32.531C85.8828 32.7369 86.6833 32.891 87.4928 32.9923C89.269 33.1974 91.0727 32.9601 92.7142 32.3052C92.7246 32.3122 92.7337 32.3206 92.7413 32.33C92.7625 32.3535 92.7851 32.3758 92.809 32.397L92.9849 32.5855Z" fill="black"/>
<path d="M42.9708 33.6695C42.9708 33.6695 39.6685 31.3651 43.956 29.8298C43.956 29.8298 51.4458 27.709 57.1138 30.3258C57.1138 30.3258 60.1671 31.633 62.2378 31.633C64.3085 31.633 81.1584 31.7694 85.1022 32.8087C85.8877 33.0149 86.6882 33.1691 87.4978 33.2701C89.596 33.5032 91.7214 33.1331 93.58 32.211C93.8507 32.0745 94.0943 32.0051 94.1674 32.0845C94.4137 32.3573 94.2188 33.9373 92.0506 34.2524C90.3589 34.5004 86.5152 34.0316 84.8992 33.8158C84.4797 33.7587 84.0628 33.6868 83.6487 33.605C82.0544 33.2875 77.1524 32.397 74.1613 32.8087C70.5667 33.3048 60.4134 32.402 60.4134 32.402C60.4134 32.402 54.158 31.2287 51.6434 30.2787C49.1288 29.3287 42.0342 30.1472 42.9708 33.6695Z" fill="#FED253"/>
<path opacity="0.1" d="M70.8106 9.45802C70.5399 9.10084 67.0617 6.54848 65.6433 5.51662L68.2012 5.16936C68.279 5.09843 68.3632 5.03371 68.453 4.97589C70.3125 6.76428 70.8106 9.45802 70.8106 9.45802Z" fill="black"/>
<path opacity="0.1" d="M59.5284 23.1475L58.3943 24.6829L62.7306 24.5489L62.828 22.8325L59.5284 23.1475Z" fill="black"/>
<path opacity="0.1" d="M85.9878 25.0004L86.4804 26.3993L89.2414 26.8061L88.0585 25.1343L85.9878 25.0004Z" fill="black"/>
<path opacity="0.1" d="M38.5859 71.9647C38.881 72.4162 48.5876 84.1188 51.151 83.7939C53.7143 83.4689 38.5859 71.9647 38.5859 71.9647Z" fill="black"/>
<path opacity="0.1" d="M71.1082 82.6603C71.1082 82.6603 73.4739 84.7389 73.1274 85.55C72.781 86.3611 71.1082 82.6603 71.1082 82.6603Z" fill="black"/>
<path opacity="0.1" d="M45.2883 96.9303C45.2883 96.9303 43.2176 105.825 44.303 106.108C45.3884 106.391 45.2883 96.9303 45.2883 96.9303Z" fill="black"/>
<path opacity="0.1" d="M71.8958 131.473C72.2395 132.376 75.0979 138.247 75.7394 138.562C76.3809 138.877 71.8958 131.473 71.8958 131.473Z" fill="black"/>
<path opacity="0.1" d="M105.109 107.36C105.009 107.675 102.546 109.528 103.087 110.206C103.628 110.883 105.109 107.36 105.109 107.36Z" fill="black"/>
<path opacity="0.1" d="M85.9877 123.84C85.939 124.069 85.4463 128.801 86.3829 129.712C87.3194 130.622 85.9877 123.84 85.9877 123.84Z" fill="black"/>
<path opacity="0.1" d="M111.237 148.426C110.522 148.791 109.783 149.143 109.031 149.481C108.219 149.843 107.407 150.188 106.578 150.512C106.248 150.644 105.918 150.773 105.59 150.897C105.092 151.085 104.6 151.266 104.113 151.44C102.632 151.971 101.205 152.432 99.9359 152.822C99.4433 152.973 98.9723 153.112 98.5338 153.241C96.325 153.883 94.858 154.233 94.858 154.233C94.5228 154.167 94.1798 154.142 93.8375 154.156C93.7427 154.156 93.6453 154.156 93.5452 154.156C93.0867 154.187 92.6304 154.24 92.1782 154.315C89.1547 154.811 84.8834 156.203 82.3092 157.113C80.9558 157.587 80.0761 157.926 80.0761 157.926L78.3545 158.403L78.0676 158.482C76.2026 159.003 73.5797 159.742 72.6351 160.05C71.1084 160.546 57.8532 163.073 57.8532 163.073C56.6422 163.376 55.4052 163.584 54.1557 163.693C51.0766 163.952 47.9817 164.017 44.893 163.887C41.791 164.07 36.7725 163.445 33.8519 163.024L33.3863 162.957C32.2576 162.788 31.5403 162.667 31.5403 162.667L31.9192 162.188L39.6905 152.363L39.7365 152.303L46.9772 143.153L47.2479 142.821L47.9057 141.99C47.9057 141.99 48.3008 141.494 49.8221 141.461C50.0007 141.461 50.1956 141.461 50.4094 141.461C51.6873 141.556 52.9479 141.791 54.1638 142.163L54.5157 142.26C59.7588 143.637 67.8629 143.292 67.8629 143.292C67.8629 143.292 72.9057 142.548 76.8685 142.101L77.1636 142.067C78.4585 141.899 79.7624 141.795 81.0695 141.757C83.4839 141.801 88.7081 140.628 88.7081 140.628C89.8314 140.407 90.3051 140.221 90.9385 139.807C91.0224 139.752 91.1117 139.693 91.2092 139.628C91.4799 139.442 91.7911 139.214 92.1917 138.931C92.9226 138.418 93.9485 137.721 95.5617 136.744C95.7025 136.659 95.8513 136.575 96.0111 136.496C96.1708 136.416 96.3738 136.31 96.5687 136.22C98.131 135.542 99.7782 135.042 101.473 134.732C102.88 134.455 104.306 134.275 105.742 134.194H105.956C110.016 133.995 114.163 134.633 116.588 136.724C117.012 137.091 117.382 137.508 117.687 137.964C117.835 138.18 117.967 138.406 118.082 138.639C118.304 139.083 118.468 139.549 118.572 140.028C118.592 140.117 118.608 140.206 118.621 140.296C118.621 140.323 118.621 140.348 118.621 140.375C118.621 140.447 118.637 140.519 118.643 140.591C118.859 143.56 115.497 146.244 111.237 148.426Z" fill="black"/>
<path d="M31.5403 162.133C31.5403 162.133 40.3103 163.621 44.893 163.351C44.893 163.351 53.3193 163.758 57.8532 162.54C57.8532 162.54 71.1166 160.01 72.6351 159.514C74.1536 159.018 80.0761 157.391 80.0761 157.391C80.0761 157.391 91.6071 152.966 94.858 153.687C94.858 153.687 120.383 147.638 118.559 139.465C116.734 131.292 100.623 133.145 95.5509 136.213C90.4784 139.281 91.22 139.601 88.7027 140.097C88.7027 140.097 83.4785 141.27 81.0641 141.226C78.6496 141.181 67.8576 142.761 67.8576 142.761C67.8576 142.761 59.3825 143.123 54.1611 141.633C48.9397 140.142 47.903 141.451 47.903 141.451L31.5403 162.133Z" fill="#FFA2A2"/>
<path opacity="0.1" d="M50.5582 140.921C50.5596 140.93 50.5596 140.94 50.5582 140.95C50.5393 141.135 50.4872 141.315 50.4039 141.484C49.3645 143.82 43.4637 150.123 43.4637 150.123C43.1947 150.872 42.87 151.603 42.4919 152.311C41.6789 153.824 40.7424 155.279 39.6904 156.664C38.1311 158.735 36.4286 160.713 34.5935 162.585H34.58C34.3464 162.743 34.1033 162.89 33.8518 163.024C33.2157 163.371 32.2602 163.8 31.3588 163.852C31.2054 163.861 31.0514 163.856 30.8987 163.84C30.9934 163.84 31.0855 163.82 31.1694 163.805L30.8391 163.716L30.3871 163.587C29.6292 163.368 28.8776 163.13 28.1323 162.87L27.6803 162.711C26.9585 162.456 26.252 162.183 25.5609 161.89L25.1088 161.702C24.387 161.394 23.6805 161.069 22.9894 160.727C22.7404 160.608 22.494 160.479 22.2504 160.357C21.5142 159.98 20.7924 159.585 20.085 159.172C19.3343 158.733 18.5999 158.276 17.8816 157.8C17.3403 156.88 16.8937 156.064 16.65 155.625C16.2061 154.809 16.1682 153.64 16.2224 152.794C16.2224 152.708 16.2224 152.626 16.2386 152.546C16.2846 152.016 16.355 151.651 16.355 151.651C15.9539 151.16 15.5921 150.642 15.2723 150.103C15.0886 149.835 14.9841 149.529 14.9691 149.213C14.9814 149.086 14.9685 148.958 14.9312 148.836C14.7228 148.052 13.8268 146.705 12.9986 145.859C12.3814 145.237 12.3435 142.91 12.4031 141.26C12.4382 140.268 12.5059 139.539 12.5059 139.539C12.3846 139.467 12.2939 139.36 12.2488 139.234C12.0311 138.691 11.8839 138.127 11.8103 137.552C11.8103 137.47 11.7859 137.388 11.7724 137.304C11.5991 136.166 11.5206 135.022 11.5206 135.022C9.5176 133.685 8.56481 131.599 8.12089 129.739L8.06405 129.491C7.82025 128.347 7.71675 127.183 7.75547 126.018C7.75547 125.907 7.75547 125.822 7.75547 125.77C7.75547 125.718 7.75547 125.708 7.75547 125.708C7.75547 125.708 8.02074 120.333 8.7624 118.235C8.79218 118.145 8.82466 118.063 8.85714 117.987C8.91178 117.855 8.98262 117.729 9.06827 117.612C9.33895 117.282 9.53114 116.66 9.69084 115.923C9.80182 115.412 9.89385 114.844 9.96152 114.278C10.0238 113.807 10.0725 113.338 10.1104 112.904C10.216 111.743 10.2484 110.838 10.2484 110.838L9.74768 108.576C9.60963 107.958 9.50407 107.336 9.43099 106.713C9.43099 106.631 9.40933 106.549 9.3985 106.465C9.27191 105.315 9.24927 104.158 9.33083 103.005C9.33083 102.92 9.33083 102.839 9.34707 102.757C9.55843 100.13 10.3077 97.5638 11.5558 95.1914L11.6912 94.9434C11.8716 94.6127 12.0611 94.2877 12.2596 93.9686C12.4031 93.7329 12.5546 93.4998 12.7116 93.2691C13.1278 92.6514 13.5796 92.0544 14.065 91.4807C14.1354 91.3964 14.2085 91.3145 14.2816 91.2327C15.1262 90.2731 16.0649 89.3864 17.0858 88.5836C19.8197 86.4306 22.3289 85.4955 24.6081 85.4235C34.5745 85.1011 40.1641 101.254 41.0682 104.084C41.1548 104.357 41.1981 104.505 41.1981 104.505C41.1981 104.505 45.2367 108.209 44.0538 109.833C43.8244 110.191 43.6848 110.591 43.6451 111.004C43.3202 113.189 44.2514 116.789 44.2514 116.789C44.2514 116.789 44.5816 117.781 45.5452 120.157L45.8294 120.851C46.4331 122.34 46.5738 124.838 46.2273 127.075C45.8944 129.218 45.1121 131.113 43.8589 131.599C41.2955 132.591 41.9858 133.583 42.5759 134.4C42.9265 134.985 43.2191 135.597 43.4502 136.23C43.821 137.145 44.1648 138.108 44.2947 138.482C44.3326 138.587 44.3515 138.644 44.3515 138.644C44.7106 138.516 45.0836 138.425 45.464 138.371C45.9485 138.309 46.4277 138.353 46.5197 138.733C46.5684 138.936 46.8472 139.177 47.2397 139.417C48.4036 140.152 50.5582 140.921 50.5582 140.921Z" fill="black"/>
<path d="M49.9685 140.921C49.9519 141.109 49.8997 141.294 49.8142 141.466C48.7802 143.805 42.8739 150.123 42.8739 150.123C42.6037 150.871 42.2791 151.602 41.9022 152.311C41.249 153.533 40.5103 154.715 39.6907 155.85C37.9939 158.196 36.1141 160.426 34.066 162.523L34.0037 162.585C34.0037 162.585 33.7655 162.751 33.3865 162.964C32.7094 163.36 31.9633 163.647 31.1805 163.812L30.8503 163.723L30.3982 163.594C29.6403 163.376 28.8887 163.137 28.1435 162.877L27.6914 162.719C26.9696 162.464 26.2631 162.19 25.572 161.898L25.12 161.709C24.3981 161.402 23.6917 161.077 23.0005 160.734C22.7515 160.615 22.5052 160.486 22.2616 160.365C21.5253 159.988 20.8035 159.592 20.0961 159.179C19.3454 158.741 18.611 158.284 17.8928 157.807C17.5607 157.589 17.2323 157.365 16.9075 157.135C16.5421 156.5 16.2497 155.964 16.0684 155.632C15.6245 154.816 15.5866 153.648 15.6407 152.802C15.6407 152.715 15.6407 152.633 15.6569 152.554C15.703 152.023 15.7733 151.658 15.7733 151.658C15.7733 151.658 15.5541 151.388 15.2888 151.021C15.1399 150.818 14.9802 150.582 14.8368 150.349C14.5661 149.912 14.355 149.471 14.3956 149.22C14.4011 149.177 14.4011 149.134 14.3956 149.091C14.3915 149.007 14.3779 148.924 14.355 148.843C14.1466 148.059 13.2479 146.712 12.4196 145.867C11.8025 145.244 11.7646 142.917 11.8214 141.268C11.8214 141.184 11.8214 141.102 11.8214 141.02C11.8593 140.164 11.9161 139.546 11.9161 139.546C11.6103 139.425 11.3748 138.525 11.2232 137.562L11.1826 137.314C11.0094 136.176 10.9309 135.032 10.9309 135.032C8.92782 133.695 7.97503 131.609 7.53382 129.749C7.22644 128.446 7.10812 127.111 7.18193 125.78C7.18193 125.74 7.18193 125.718 7.18193 125.718C7.18193 125.718 7.41472 120.316 8.15638 118.215C8.18616 118.126 8.21864 118.044 8.25112 117.967C8.31607 117.838 8.3969 117.717 8.49203 117.605C8.90346 117.079 9.17685 115.814 9.3555 114.519L9.38798 114.271C9.61265 112.535 9.6749 110.831 9.6749 110.831L9.17144 108.568C9.03429 107.948 8.92872 107.327 8.85474 106.706C8.8412 106.624 8.83309 106.539 8.82226 106.458C8.69569 105.308 8.67305 104.151 8.75459 102.997C8.75459 102.913 8.75459 102.831 8.77354 102.749C8.9836 100.123 9.73298 97.556 10.9823 95.1841C11.0256 95.0997 11.0689 95.0179 11.1176 94.936C11.4657 94.2918 11.8524 93.6658 12.2761 93.0608C12.4223 92.85 12.5712 92.6416 12.7282 92.4358C12.9745 92.1083 13.2316 91.7859 13.4996 91.4733L13.7162 91.2253C14.5536 90.2694 15.484 89.3852 16.4961 88.5836C19.4736 86.2446 22.1804 85.3417 24.6165 85.4236C34.2121 85.7386 39.5987 101.311 40.4838 104.084C40.5704 104.357 40.6137 104.506 40.6137 104.506C40.6137 104.506 44.655 108.209 43.4721 109.833C43.2428 110.191 43.1031 110.591 43.0634 111.004C42.7359 113.189 43.6697 116.789 43.6697 116.789C43.6697 116.789 43.9999 117.781 44.9636 120.157C45.0502 120.378 45.1449 120.608 45.2342 120.852C45.8379 122.34 45.9786 124.838 45.6322 127.075C45.2992 129.22 44.5197 131.113 43.2637 131.599C40.7031 132.591 41.3906 133.584 41.9834 134.4C42.334 134.985 42.6266 135.597 42.8577 136.23C43.326 137.398 43.7563 138.644 43.7563 138.644C43.9335 138.581 44.1142 138.527 44.2977 138.482C44.6743 138.369 45.073 138.331 45.467 138.371C45.5761 138.379 45.6796 138.418 45.7628 138.483C45.8459 138.548 45.9045 138.635 45.9299 138.733C46.003 139.031 46.5633 139.4 47.2427 139.75C48.1249 140.19 49.0351 140.581 49.9685 140.921Z" fill="#CED7E7"/>
<path opacity="0.1" d="M14.3411 117.069C15.2776 117.024 25.3307 113.457 27.4014 114.675C29.4721 115.893 42.2889 123.796 42.2889 123.796C42.2889 123.796 34.2578 114.179 27.2607 111.922C20.2636 109.665 14.3411 117.069 14.3411 117.069Z" fill="black"/>
<path opacity="0.1" d="M28.7925 131.609C28.7925 131.609 38.8456 133.46 40.3722 134.725L28.7925 131.609Z" fill="black"/>
<path opacity="0.1" d="M26.8572 145.385C26.711 145.522 23.0676 153.015 23.3599 153.015C23.6523 153.015 26.7597 148.55 26.7597 148.55L26.8572 145.385Z" fill="black"/>
<path opacity="0.1" d="M33.7083 136.394C33.7083 136.394 30.7524 137.344 31.0962 137.433C31.4399 137.522 33.6081 136.801 33.7083 136.394Z" fill="black"/>
<path opacity="0.1" d="M30.7522 147.729C31.2448 148.677 32.8202 151.522 33.1667 151.07C33.5131 150.619 30.7522 147.729 30.7522 147.729Z" fill="black"/>
<path opacity="0.1" d="M67.6516 72.6271L67.2293 73.1777C67.2293 73.1777 63.8756 71.0123 62.4978 69.9284C61.12 68.8444 57.8664 73.8102 55.3031 75.1645C52.7397 76.5189 48.4061 76.881 48.4061 76.881C48.4061 76.881 45.0551 73.8102 45.158 72.9123C45.2608 72.0144 43.5826 71.7391 43.4825 71.1066C43.3823 70.4741 42.7922 68.6683 42.0045 67.7654C41.5877 67.2892 41.5281 65.7984 41.566 64.5012C41.8367 64.4516 42.0045 64.4243 42.0045 64.4243C42.4253 63.7237 42.9571 63.0843 43.5826 62.5268C44.4704 61.805 45.8482 57.3799 45.8482 57.3799C46.6359 54.9416 48.2113 55.6634 48.2113 55.6634C48.2113 59.3667 52.3527 60.721 54.4207 62.2564C56.4887 63.7918 59.7423 67.7654 62.3056 68.579C64.4088 69.2363 66.8693 71.7788 67.6516 72.6271Z" fill="black"/>
<path d="M67.6519 72.0839L67.2296 72.637C67.2296 72.637 63.8624 70.4766 62.4846 69.3852C61.1068 68.2938 57.8533 73.267 55.2899 74.6213C52.7266 75.9757 48.393 76.3403 48.393 76.3403C48.393 76.3403 45.0419 73.267 45.1448 72.3716C45.2476 71.4762 43.5694 71.1984 43.4693 70.5634C43.3691 69.9284 42.779 68.1251 41.9914 67.2222C41.5745 66.746 41.515 65.2553 41.5529 63.958L41.9914 63.8836C42.4121 63.183 42.9439 62.5436 43.5694 61.986C44.4573 61.2618 45.835 56.8392 45.835 56.8392C46.6227 54.4009 48.1981 55.1202 48.1981 55.1202C48.1981 58.8235 52.3395 60.1803 54.4075 61.7157C56.4755 63.2511 59.7291 67.2222 62.2924 68.0358C64.4092 68.703 66.8696 71.2356 67.6519 72.0839Z" fill="#CED7E7"/>
<path opacity="0.1" d="M67.9031 72.818C67.9031 72.818 64.9987 74.2617 62.7304 74.3981C62.4334 74.4108 62.1359 74.395 61.8425 74.3509C61.8425 74.3509 64.3463 72.637 66.6715 72.2872L67.9031 72.818Z" fill="black"/>
<path opacity="0.1" d="M73.8178 80.1774C73.8178 80.1774 70.1555 78.8703 68.9456 80.8372C68.9862 79.9344 69.0024 79.1853 69.0024 79.1853L72.9949 78.461C72.9949 78.461 73.3793 79.1133 73.8287 79.9914C73.8178 80.108 73.8178 80.1774 73.8178 80.1774Z" fill="black"/>
<path d="M61.8425 74.3509C61.8425 74.3509 66.2303 71.9374 68.3389 72.1408C70.5503 72.3517 74.8352 72.5005 74.8352 72.5005C74.8352 72.5005 73.3573 75.5713 73.5549 76.2038C73.7525 76.8363 73.8012 79.907 73.8012 79.907C73.8012 79.907 69.3675 78.327 68.6285 81.2614C68.6285 81.2614 66.214 77.9649 64.5872 76.9702C63.5078 76.2556 62.578 75.3682 61.8425 74.3509Z" fill="#63667E"/>
<path opacity="0.1" d="M86.6295 77.1538C85.3492 77.1538 80.8153 74.532 79.83 72.818C78.8448 71.1041 77.4643 72.9966 76.184 73.6316C75.3719 74.0384 72.1535 73.1876 70.4185 72.57C71.2982 72.0218 73.2471 70.479 73.8182 70.1094C74.5057 69.6555 75.1987 62.3407 75.1987 62.3407C77.6619 61.1675 80.3227 71.8234 80.3227 71.8234C80.3227 71.8234 84.9567 73.0884 85.3492 73.9913C85.425 74.1699 85.7742 74.4874 86.2993 74.8718C86.8407 76.122 87.1384 77.1538 86.6295 77.1538Z" fill="black"/>
<path d="M86.6294 76.6106C85.3491 76.6106 80.8152 73.9913 79.8299 72.2773C78.8446 70.5633 77.4641 72.4559 76.1838 73.0884C75.3718 73.4952 72.7922 72.7089 71.0571 72.0962C71.9368 71.5505 73.2469 69.9432 73.8181 69.5712C74.5056 69.1197 75.1985 61.805 75.1985 61.805C77.6617 60.6317 80.3225 71.2876 80.3225 71.2876C80.3225 71.2876 84.9566 72.5526 85.3491 73.4555C85.4249 73.6341 85.774 73.9516 86.2992 74.3361C86.8405 75.5788 87.1383 76.6106 86.6294 76.6106Z" fill="#CED7E7"/>
<path d="M104.139 155.729L146.991 122.987C147.418 122.656 147.963 122.48 148.523 122.491L164.509 122.876C164.509 122.876 165.616 123.62 163.992 125.247L123.569 155.644C123.132 155.972 122.59 156.158 122.026 156.175L104.545 156.706C104.42 156.71 104.296 156.677 104.192 156.613C104.087 156.55 104.007 156.458 103.962 156.35C103.918 156.242 103.911 156.125 103.942 156.013C103.974 155.902 104.043 155.803 104.139 155.729Z" fill="#6C63FF"/>
<path d="M124.868 151.701C124.868 151.701 134.228 163.984 144.628 152.559C155.027 141.134 152.02 135.131 148.867 134.814C145.713 134.496 127.97 147.005 124.868 151.701Z" fill="#FFA2A2"/>
<path opacity="0.1" d="M187.999 14.3196C187.999 14.3196 200.064 -7.13605 214.323 3.92913C214.323 3.92913 217.436 4.96843 217.2 7.98462C217.2 7.98462 216.001 7.38188 215.048 9.6862C214.698 10.5038 214.244 11.2806 213.695 12.0004C212.965 12.9728 211.911 13.7021 210.69 14.079C210.69 14.079 204.292 18.4719 192.438 15.0836C192.438 15.0836 189.087 15.5251 188.546 15.1431L192.441 12.5337C192.441 12.5337 194.42 15.225 197.313 15.5326C197.313 15.5326 192.441 12.7297 192.999 12.122C193.112 11.998 195.132 10.8247 195.132 10.8247C195.132 10.8247 198.594 15.4904 203.082 15.8352C203.082 15.8352 196.794 13.2084 195.892 10.3782L199.051 8.76348C199.051 8.76348 202.446 13.8608 207.542 14.4313C207.542 14.4313 201.073 11.4771 199.768 8.45342L203.111 7.25786C203.111 7.25786 206.53 12.1691 210.772 12.6181C210.772 12.6181 203.674 8.51295 203.896 7.02966C203.896 7.02966 207.039 6.10198 208.003 6.22352C208.003 6.22352 210.544 9.69612 213.035 9.75813C213.035 9.75813 208.609 6.55342 208.901 6.05981C208.901 6.05981 213.346 5.84898 215.668 6.83371C215.668 6.83371 212.366 5.1495 208.901 5.42234C208.901 5.42234 210.468 3.73317 212.512 3.36111C212.512 3.36111 210.062 2.43839 207.824 5.48436C207.824 5.48436 204.367 5.77456 203.94 6.12678C203.94 6.12678 205.688 2.83278 207.84 1.43134C207.84 1.43134 204.633 1.94975 203.044 6.41452L199.655 7.54807C199.655 7.54807 201.715 3.0833 203.531 1.70419C203.531 1.70419 200.348 2.69636 198.827 7.90525L195.708 9.458C195.708 9.458 197.162 5.48932 198.821 3.5521C198.821 3.5521 196.085 5.05524 194.831 9.93176L192.882 11.1893C192.882 11.1893 194 8.30708 194.404 7.5059C194.807 6.70472 194.604 6.53854 194.604 6.53854C193.249 8.00625 192.366 9.78972 192.051 11.6904C192.051 11.6904 188.224 14.5181 187.999 14.3196Z" fill="#6C63FF"/>
<path opacity="0.1" d="M237.894 25.7941C237.894 25.7941 243.346 16.0981 249.788 21.0986C249.788 21.0986 251.195 21.5674 251.087 22.9292C251.087 22.9292 250.546 22.6588 250.115 23.7006C249.959 24.0696 249.756 24.4202 249.509 24.7449C249.18 25.1831 248.705 25.5127 248.156 25.6849C248.156 25.6849 245.262 27.6693 239.905 26.1389C239.905 26.1389 238.392 26.3373 238.148 26.1661L239.908 24.9855C239.908 24.9855 240.801 26.2033 242.111 26.3398C242.111 26.3398 239.913 25.0748 240.162 24.7994C240.211 24.7449 241.123 24.214 241.123 24.214C241.123 24.214 242.688 26.3224 244.718 26.4787C244.718 26.4787 241.876 25.2905 241.47 23.9982L242.899 23.2715C242.899 23.2715 244.431 25.5758 246.734 25.8338C246.734 25.8338 243.811 24.4993 243.216 23.1326L244.726 22.5918C244.726 22.5918 246.269 24.8118 248.185 25.0152C248.185 25.0152 244.978 23.1599 245.081 22.4901C245.081 22.4901 246.499 22.071 246.935 22.1255C246.935 22.1255 248.082 23.6956 249.209 23.7204C249.209 23.7204 247.208 22.2744 247.341 22.0511C247.341 22.0511 249.349 21.9569 250.394 22.4009C250.394 22.4009 248.903 21.6394 247.341 21.7634C247.772 21.3143 248.336 20.9902 248.965 20.8307C248.965 20.8307 247.858 20.414 246.845 21.7907C246.845 21.7907 245.284 21.9221 245.091 22.0809C245.091 22.0809 245.882 20.5926 246.854 19.9601C246.854 19.9601 245.403 20.1933 244.688 22.2123L243.172 22.7332C243.172 22.7332 244.101 20.7166 244.924 20.0916C244.924 20.0916 243.484 20.5405 242.796 22.892L241.389 23.5915C241.389 23.5915 242.044 21.7956 242.793 20.9225C242.793 20.9225 241.556 21.6022 240.993 23.8048L240.111 24.3728C240.111 24.3728 240.617 23.0706 240.798 22.7084C240.98 22.3463 240.888 22.2719 240.888 22.2719C240.276 22.9374 239.876 23.7453 239.735 24.606C239.735 24.606 237.989 25.8834 237.894 25.7941Z" fill="#6C63FF"/>
<path opacity="0.1" d="M178.823 37.0751C178.823 37.0751 184.275 27.3791 190.733 32.3796C190.733 32.3796 192.138 32.8484 192.032 34.2127C192.032 34.2127 191.491 33.9398 191.061 34.9816C190.904 35.3502 190.7 35.7007 190.454 36.0259C190.121 36.4663 189.642 36.7961 189.087 36.9659C189.087 36.9659 186.197 38.9503 180.84 37.4199C180.84 37.4199 179.327 37.6208 179.083 37.4471L180.843 36.2665C180.843 36.2665 181.736 37.4843 183.043 37.6232C183.043 37.6232 180.845 36.3558 181.094 36.0804C181.146 36.0259 182.058 35.495 182.058 35.495C182.058 35.495 183.622 37.6034 185.65 37.7597C185.65 37.7597 182.81 36.5715 182.402 35.2792L183.831 34.555C183.831 34.555 185.366 36.8568 187.669 37.1148C187.669 37.1148 184.746 35.7803 184.15 34.4136L185.661 33.8728C185.661 33.8728 187.206 36.0928 189.123 36.2962C189.123 36.2962 185.915 34.4409 186.015 33.7711C186.015 33.7711 187.436 33.352 187.872 33.4065C187.872 33.4065 189.02 34.9766 190.146 35.0039C190.146 35.0039 188.145 33.5554 188.278 33.3321C188.278 33.3321 190.284 33.2379 191.331 33.6819C191.331 33.6819 189.837 32.9204 188.275 33.0444C188.706 32.5954 189.271 32.2712 189.9 32.1117C189.9 32.1117 188.795 31.695 187.783 33.0717C187.783 33.0717 186.221 33.2031 186.029 33.3619C186.029 33.3619 186.816 31.8736 187.791 31.2411C187.791 31.2411 186.34 31.4743 185.625 33.4933L184.091 34.0142C184.091 34.0142 185.022 31.9976 185.842 31.3751C185.842 31.3751 184.405 31.8215 183.717 34.173L182.307 34.8725C182.307 34.8725 182.965 33.0766 183.714 32.2035C183.714 32.2035 182.477 32.8832 181.912 35.0858L181.029 35.6538C181.029 35.6538 181.535 34.3516 181.717 33.9894C181.898 33.6273 181.809 33.5529 181.809 33.5529C181.195 34.2177 180.796 35.0259 180.656 35.887C180.656 35.887 178.918 37.1644 178.823 37.0751Z" fill="#6C63FF"/>
</g>
<defs>
<clipPath id="clip0_105_184">
<rect width="290.262" height="193.508" fill="white" transform="translate(0.325195 0.759155)"/>
</clipPath>
</defs>
</svg>
