<svg width="297" height="198" viewBox="0 0 297 198" fill="none" xmlns="http://www.w3.org/2000/svg">
<g clip-path="url(#clip0_105_161)">
<path d="M271.056 178.034C273.656 182.337 271.452 196.871 271.452 196.871C271.452 196.871 257.015 191.148 254.416 186.847C253.171 184.781 252.852 182.336 253.531 180.05C254.209 177.765 255.829 175.825 258.035 174.657C260.24 173.489 262.85 173.188 265.292 173.821C267.734 174.455 269.807 175.97 271.056 178.034V178.034Z" fill="#F1F1F1"/>
<path d="M271.661 196.852L271.354 196.912C268.4 183.771 258.085 174.86 257.981 174.771L258.192 174.554C258.296 174.643 268.685 183.615 271.661 196.852Z" fill="white"/>
<path d="M294.678 182.934C291.15 188.926 271.261 197.044 271.261 197.044C271.261 197.044 267.982 176.961 271.508 170.97C273.202 168.093 276.047 165.964 279.418 165.051C282.788 164.139 286.408 164.517 289.481 166.104C292.553 167.69 294.827 170.354 295.802 173.511C296.776 176.667 296.372 180.056 294.678 182.934Z" fill="#F1F1F1"/>
<path d="M271.436 197.261L271.138 196.967C285.53 184.168 289.256 166.317 289.292 166.138L289.718 166.213C289.682 166.393 285.933 184.369 271.436 197.261Z" fill="white"/>
<path d="M70.0815 137.558C67.8053 137.551 65.539 137.276 63.3359 136.741L62.9016 136.628L62.4988 136.439C47.9353 129.602 35.6489 120.571 25.9808 109.596C17.9776 100.458 11.738 90.0833 7.54247 78.9376C2.52528 65.5934 0.111515 51.5132 0.416413 37.369C0.422565 37.0721 0.427772 36.8429 0.427772 36.685C0.427772 29.8094 4.50345 23.7766 10.811 21.3156C15.6385 19.432 59.47 2.57372 62.637 1.35566C68.6012 -1.44272 74.9639 0.892967 75.9821 1.30142C78.266 2.17581 118.786 17.6947 127.542 21.599C136.566 25.6229 138.974 32.8518 138.974 36.4887C138.974 52.9543 135.928 68.3427 129.922 82.2264C125.072 93.4643 118.197 103.839 109.597 112.899C93.0055 130.383 76.4093 136.581 76.2491 136.636C74.2657 137.275 72.1788 137.587 70.0815 137.558ZM66.1786 128.505C67.6174 128.807 70.9301 129.26 73.0893 128.523C75.8322 127.586 89.7229 120.841 102.703 107.162C120.638 88.2635 129.738 64.5058 129.751 36.5495C129.719 35.9831 129.29 31.9434 123.577 29.3961C114.99 25.5674 72.8737 9.44124 72.4493 9.27871L72.3329 9.23252C71.4503 8.88618 68.6414 8.15667 66.7051 9.10679L66.3175 9.27604C65.848 9.45659 19.3204 27.3511 14.3582 29.2871C10.887 30.6415 9.6502 33.9966 9.6502 36.685C9.6502 36.8815 9.64477 37.1672 9.6371 37.5366C9.24051 56.6654 13.9677 103.735 66.1786 128.505Z" fill="#3F3D56"/>
<path d="M64.5659 5.28181C64.5659 5.28181 17.6154 23.3386 12.585 25.3013C7.55458 27.264 5.03938 31.9745 5.03938 36.685C5.03938 41.3955 1.26658 102.861 64.5659 132.579C64.5659 132.579 70.311 134.068 74.6697 132.579C79.0284 131.091 134.363 105.968 134.363 36.4887C134.363 36.4887 134.363 29.423 125.56 25.4976C116.756 21.5722 74.1944 5.28181 74.1944 5.28181C74.1944 5.28181 68.9675 3.12284 64.5659 5.28181Z" fill="#6C63FF"/>
<path opacity="0.1" d="M69.5963 19.4133V115.74C69.5963 115.74 22.2266 94.3883 22.6458 38.2552L69.5963 19.4133Z" fill="black"/>
<path d="M70.2142 88.6446L55.1245 70.4765L63.8998 64.0856L71.0447 72.6877L95.1814 48.8286L103.253 55.9894L70.2142 88.6446Z" fill="white"/>
<path d="M296.45 197.906H158.567C158.471 197.906 158.379 197.87 158.312 197.807C158.244 197.743 158.206 197.657 158.206 197.567C158.206 197.477 158.244 197.391 158.312 197.327C158.379 197.264 158.471 197.228 158.567 197.228H296.45C296.546 197.228 296.638 197.264 296.706 197.327C296.774 197.391 296.812 197.477 296.812 197.567C296.812 197.657 296.774 197.743 296.706 197.807C296.638 197.87 296.546 197.906 296.45 197.906Z" fill="#CACACA"/>
<path d="M198.425 192.564L204.022 192.564L206.685 172.349L198.424 172.349L198.425 192.564Z" fill="#FFB8B8"/>
<path d="M196.997 190.853L208.02 190.853H208.02C209.883 190.853 211.67 191.546 212.987 192.779C214.304 194.013 215.044 195.686 215.044 197.43V197.644L196.997 197.644L196.997 190.853Z" fill="#2F2E41"/>
<path d="M217.244 192.564L222.84 192.564L225.503 172.349L217.242 172.349L217.244 192.564Z" fill="#FFB8B8"/>
<path d="M215.816 190.853L226.838 190.853H226.839C228.702 190.853 230.488 191.546 231.805 192.779C233.123 194.013 233.863 195.686 233.863 197.43V197.644L215.816 197.644L215.816 190.853Z" fill="#2F2E41"/>
<path d="M207.222 121.573L208.565 185.706L197.704 185.076L190.169 144.226L187.789 116.374L207.222 121.573Z" fill="#2F2E41"/>
<path d="M225.861 110.804L227.383 186.723L214.717 186.384L211.981 141.255L207.222 124.916L187.789 116.374L190.962 95.9496L219.516 95.5782L225.861 110.804Z" fill="#2F2E41"/>
<path d="M204.023 42.8453C209.387 42.8453 213.736 38.7733 213.736 33.7503C213.736 28.7273 209.387 24.6554 204.023 24.6554C198.659 24.6554 194.311 28.7273 194.311 33.7503C194.311 38.7733 198.659 42.8453 204.023 42.8453Z" fill="#FFB8B8"/>
<path d="M212.08 46.6766L213.567 48.7872L217.533 59.185L214.361 99.6629L195.721 100.035L193.342 53.6145L198.326 47.7804L212.08 46.6766Z" fill="#CCCCCC"/>
<path d="M185.807 54.7288L182.634 54.3574C182.634 54.3574 181.841 54.7288 181.444 57.3283C181.048 59.9278 176.289 82.952 176.289 82.952L182.634 111.175L189.772 102.263L185.41 86.6656L189.772 71.0686L185.807 54.7288Z" fill="#2F2E41"/>
<path d="M226.258 54.3577H228.637L234.586 84.4374L229.034 107.833L223.482 99.2919L225.068 90.0079L224.275 81.8382L221.499 77.0102L226.258 54.3577Z" fill="#2F2E41"/>
<path d="M209.763 33.7504L207.997 33.337C207.997 33.337 206.672 26.309 203.582 27.1358C200.492 27.9627 192.545 28.7895 192.545 25.4822C192.545 22.175 200.05 19.2811 204.465 19.6945C208.88 20.1079 214.518 21.4794 215.944 27.5492C218.228 37.2795 211.229 39.7372 211.229 39.7372L211.346 39.3829C211.669 38.3993 211.692 37.3505 211.413 36.3551C211.133 35.3598 210.561 34.4575 209.763 33.7504Z" fill="#2F2E41"/>
<path d="M183.031 54.3574L195.721 49.5298L198.696 47.4873L207.619 84.4375L211.783 46.3732L228.241 54.3574L222.689 79.6098L221.896 89.2651L224.275 97.0636C224.275 97.0636 232.603 102.634 229.827 108.576C227.051 114.517 223.879 114.889 223.879 114.889C223.879 114.889 210.395 103.005 209.602 100.034C208.809 97.0636 207.619 91.8646 207.619 91.8646C207.619 91.8646 200.877 115.632 192.945 115.26C185.014 114.889 185.014 107.09 185.014 107.09L186.997 98.9204L190.169 90.3792L188.583 76.2675L183.031 54.3574Z" fill="#2F2E41"/>
</g>
<defs>
<clipPath id="clip0_105_161">
<rect width="296.419" height="197.906" fill="white" transform="translate(0.393066)"/>
</clipPath>
</defs>
</svg>
